B612Mono-Italic.ufo
<glyph name="quotedbl" format="1">
  <advance width="1300"/>
  <unicode hex="0022"/>
  <outline>
    <contour>
      <point x="589" y="1500" type="line"/>
      <point x="571" y="1400" type="line"/>
      <point x="565" y="1362"/>
      <point x="531" y="1250"/>
      <point x="513" y="1196" type="qcurve"/>
      <point x="492" y="1134"/>
      <point x="469" y="1067" type="qcurve"/>
      <point x="382" y="1067" type="line" name="av01"/>
      <point x="381" y="1134"/>
      <point x="382" y="1196" type="qcurve"/>
      <point x="384" y="1250"/>
      <point x="390" y="1362"/>
      <point x="396" y="1400" type="qcurve"/>
      <point x="414" y="1500" type="line" name="at01"/>
    </contour>
    <contour>
      <point x="890" y="1500" type="line" name="sv01"/>
      <point x="872" y="1400" type="line"/>
      <point x="866" y="1362"/>
      <point x="832" y="1250"/>
      <point x="814" y="1196" type="qcurve"/>
      <point x="793" y="1134"/>
      <point x="770" y="1067" type="qcurve" name="sv02"/>
      <point x="683" y="1067" type="line"/>
      <point x="682" y="1134"/>
      <point x="683" y="1196" type="qcurve"/>
      <point x="685" y="1250"/>
      <point x="691" y="1362"/>
      <point x="697" y="1400" type="qcurve"/>
      <point x="715" y="1500" type="line"/>
    </contour>
  </outline>
</glyph>
<glyph name="numbersign" format="1">
  <advance width="1300"/>
  <unicode hex="0023"/>
  <outline>
    <contour>
      <point x="1038" y="950" type="line"/>
      <point x="917" y="550" type="line"/>
      <point x="1189" y="550" type="line" name="sv01"/>
      <point x="1143" y="400" type="line"/>
      <point x="874" y="400" type="line"/>
      <point x="753" y="0" type="line" name="sv02"/>
      <point x="549" y="-20" type="line" name="ab03"/>
      <point x="677" y="400" type="line"/>
      <point x="404" y="400" type="line"/>
      <point x="285" y="0" type="line" name="ab01"/>
      <point x="82" y="-20" type="line" name="ab02"/>
      <point x="207" y="400" type="line"/>
      <point x="39" y="400" type="line" name="sv03"/>
      <point x="39" y="550" type="line" name="av02"/>
      <point x="250" y="550" type="line"/>
      <point x="372" y="950" type="line"/>
      <point x="110" y="950" type="line"/>
      <point x="156" y="1100" type="line" name="av01"/>
      <point x="415" y="1100" type="line"/>
      <point x="472" y="1285" type="line"/>
      <point x="510" y="1500" type="line" name="at01"/>
      <point x="739" y="1520" type="line" name="at02"/>
      <point x="612" y="1100" type="line"/>
      <point x="885" y="1100" type="line"/>
      <point x="1004" y="1500" type="line" name="sv04"/>
      <point x="1208" y="1520" type="line" name="at03"/>
      <point x="1083" y="1100" type="line"/>
      <point x="1260" y="1100" type="line" name="sv05"/>
      <point x="1260" y="950" type="line" name="sv06"/>
    </contour>
    <contour>
      <point x="840" y="950" type="line"/>
      <point x="569" y="950" type="line"/>
      <point x="449" y="550" type="line"/>
      <point x="720" y="550" type="line"/>
    </contour>
  </outline>
</glyph>
<glyph name="quotesingle" format="1">
  <advance width="1300"/>
  <unicode hex="0027"/>
  <outline>
    <contour>
      <point x="414" y="1500" type="line" name="at01"/>
      <point x="589" y="1500" type="line" name="sv01"/>
      <point x="571" y="1400" type="line"/>
      <point x="558" y="1326"/>
      <point x="457" y="1155"/>
      <point x="372" y="1067" type="qcurve" name="sv02"/>
      <point x="328" y="1067" type="line" name="av01"/>
      <point x="343" y="1143"/>
      <point x="358" y="1209" type="qcurve"/>
      <point x="364" y="1237"/>
      <point x="375" y="1295"/>
      <point x="386" y="1346"/>
      <point x="394" y="1388"/>
      <point x="396" y="1400" type="qcurve"/>
    </contour>
  </outline>
</glyph>
<glyph name="parenright" format="1">
  <advance width="1300"/>
  <unicode hex="0029"/>
  <outline>
    <contour>
      <point x="650" y="0" type="line" name="ah01"/>
      <point x="638" y="-67"/>
      <point x="617" y="-182"/>
      <point x="586" y="-276"/>
      <point x="539" y="-348"/>
      <point x="465" y="-396"/>
      <point x="357" y="-421" name="av02"/>
      <point x="281" y="-420" type="qcurve"/>
      <point x="261" y="-420"/>
      <point x="221" y="-416"/>
      <point x="185" y="-410"/>
      <point x="155" y="-401"/>
      <point x="147" y="-395" type="qcurve"/>
      <point x="238" y="-269" type="line"/>
      <point x="252" y="-272" type="line"/>
      <point x="258" y="-273"/>
      <point x="276" y="-274"/>
      <point x="287" y="-274" type="qcurve"/>
      <point x="338" y="-274"/>
      <point x="396" y="-231"/>
      <point x="428" y="-160"/>
      <point x="444" y="-66"/>
      <point x="453" y="-14" type="qcurve"/>
      <point x="666" y="1194" type="line" name="ah02"/>
      <point x="675" y="1246"/>
      <point x="688" y="1339"/>
      <point x="678" y="1409"/>
      <point x="637" y="1452"/>
      <point x="592" y="1454" type="qcurve"/>
      <point x="581" y="1455"/>
      <point x="563" y="1452"/>
      <point x="555" y="1451" type="qcurve"/>
      <point x="541" y="1449" type="line"/>
      <point x="494" y="1575" type="line"/>
      <point x="504" y="1581"/>
      <point x="537" y="1590"/>
      <point x="576" y="1597"/>
      <point x="618" y="1600"/>
      <point x="638" y="1600" type="qcurve" name="av01"/>
      <point x="731" y="1600"/>
      <point x="835" y="1533"/>
      <point x="878" y="1418"/>
      <point x="873" y="1265"/>
      <point x="858" y="1180" type="qcurve"/>
    </contour>
  </outline>
</glyph>
<glyph name="plus" format="1">
  <advance width="1300"/>
  <unicode hex="002B"/>
  <outline>
    <contour>
      <point x="223" y="700" type="line" name="av02"/>
      <point x="596" y="700" type="line"/>
      <point x="671" y="1123" type="line" name="av01"/>
      <point x="826" y="1123" type="line" name="sv01"/>
      <point x="751" y="700" type="line"/>
      <point x="1123" y="700" type="line" name="sv02"/>
      <point x="1096" y="545" type="line"/>
      <point x="724" y="545" type="line"/>
      <point x="649" y="122" type="line" name="sv03"/>
      <point x="494" y="122" type="line" name="av03"/>
      <point x="569" y="545" type="line"/>
      <point x="196" y="545" type="line"/>
    </contour>
  </outline>
</glyph>
<glyph name="comma" format="1">
  <advance width="1300"/>
  <unicode hex="002C"/>
  <outline>
    <contour>
      <point x="127" y="127" type="qcurve"/>
      <point x="132" y="156"/>
      <point x="165" y="209"/>
      <point x="212" y="247"/>
      <point x="270" y="271"/>
      <point x="300" y="271" type="qcurve" name="av01"/>
      <point x="329" y="271"/>
      <point x="379" y="250"/>
      <point x="413" y="210"/>
      <point x="427" y="149"/>
      <point x="420" y="110" type="qcurve"/>
      <point x="411" y="57"/>
      <point x="380" y="-42"/>
      <point x="321" y="-144"/>
      <point x="227" y="-250"/>
      <point x="155" y="-307" type="qcurve"/>
      <point x="107" y="-284" type="line"/>
      <point x="137" y="-240"/>
      <point x="164" y="-193" type="qcurve"/>
      <point x="186" y="-154"/>
      <point x="227" y="-61"/>
      <point x="235" y="-17" type="qcurve"/>
      <point x="210" y="-16"/>
      <point x="165" y="4"/>
      <point x="134" y="39"/>
      <point x="121" y="93"/>
    </contour>
  </outline>
</glyph>
<glyph name="slash" format="1">
  <advance width="1300"/>
  <unicode hex="002F"/>
  <outline>
    <contour>
      <point x="257" y="-100" type="line" name="sv01"/>
      <point x="47" y="-100" type="line" name="av01"/>
      <point x="1057" y="1600" type="line" name="av02"/>
      <point x="1257" y="1600" type="line" name="sv02"/>
    </contour>
  </outline>
</glyph>
<glyph name="zero" format="1">
  <advance width="1300"/>
  <unicode hex="0030"/>
  <outline>
    <contour>
      <point x="509" y="-17" type="qcurve" name="ab01"/>
      <point x="424" y="-7"/>
      <point x="300" y="66"/>
      <point x="213" y="178"/>
      <point x="160" y="322"/>
      <point x="135" y="485"/>
      <point x="134" y="662"/>
      <point x="142" y="750" type="qcurve"/>
      <point x="150" y="841"/>
      <point x="200" y="1031"/>
      <point x="280" y="1207"/>
      <point x="390" y="1361"/>
      <point x="526" y="1471"/>
      <point x="687" y="1526"/>
      <point x="779" y="1517" type="qcurve" name="at01"/>
      <point x="862" y="1508"/>
      <point x="986" y="1437"/>
      <point x="1075" y="1325"/>
      <point x="1129" y="1179"/>
      <point x="1156" y="1014"/>
      <point x="1156" y="837"/>
      <point x="1146" y="750" type="qcurve"/>
      <point x="1135" y="658"/>
      <point x="1082" y="468"/>
      <point x="999" y="290"/>
      <point x="888" y="136"/>
      <point x="754" y="26"/>
      <point x="597" y="-28"/>
    </contour>
    <contour>
      <point x="348" y="793" type="qcurve"/>
      <point x="340" y="735"/>
      <point x="326" y="600"/>
      <point x="325" y="463"/>
      <point x="343" y="335"/>
      <point x="393" y="232"/>
      <point x="479" y="165"/>
      <point x="547" y="158" type="qcurve" name="av02"/>
      <point x="605" y="152"/>
      <point x="706" y="194"/>
      <point x="790" y="274"/>
      <point x="857" y="385"/>
      <point x="905" y="511"/>
      <point x="934" y="644"/>
      <point x="939" y="707" type="qcurve"/>
      <point x="943" y="765"/>
      <point x="954" y="901"/>
      <point x="954" y="1038"/>
      <point x="937" y="1166"/>
      <point x="890" y="1268"/>
      <point x="806" y="1334"/>
      <point x="740" y="1341" type="qcurve" name="av01"/>
      <point x="679" y="1347"/>
      <point x="579" y="1306"/>
      <point x="498" y="1226"/>
      <point x="434" y="1115"/>
      <point x="388" y="989"/>
      <point x="357" y="856"/>
    </contour>
  </outline>
</glyph>
<glyph name="two" format="1">
  <advance width="1300"/>
  <unicode hex="0032"/>
  <outline>
    <contour>
      <point x="71" y="0" type="line" name="ab01"/>
      <point x="100" y="168" type="line"/>
      <point x="169" y="266"/>
      <point x="312" y="428"/>
      <point x="456" y="566"/>
      <point x="598" y="685"/>
      <point x="665" y="739" type="qcurve"/>
      <point x="725" y="787"/>
      <point x="833" y="880"/>
      <point x="915" y="973"/>
      <point x="963" y="1070"/>
      <point x="963" y="1123" type="qcurve"/>
      <point x="963" y="1177"/>
      <point x="935" y="1263"/>
      <point x="872" y="1321"/>
      <point x="772" y="1352"/>
      <point x="699" y="1352" type="qcurve"/>
      <point x="651" y="1352"/>
      <point x="570" y="1319"/>
      <point x="502" y="1265"/>
      <point x="447" y="1196"/>
      <point x="426" y="1160" type="qcurve"/>
      <point x="296" y="1220" type="line"/>
      <point x="362" y="1362"/>
      <point x="598" y="1517"/>
      <point x="752" y="1517" type="qcurve" name="at01"/>
      <point x="762" y="1517"/>
      <point x="781" y="1517"/>
      <point x="791" y="1516" type="qcurve"/>
      <point x="882" y="1510"/>
      <point x="1015" y="1440"/>
      <point x="1102" y="1332"/>
      <point x="1144" y="1198"/>
      <point x="1144" y="1128" type="qcurve"/>
      <point x="1144" y="1122"/>
      <point x="1143" y="1110"/>
      <point x="1143" y="1104" type="qcurve"/>
      <point x="1139" y="1025"/>
      <point x="1064" y="888"/>
      <point x="956" y="766"/>
      <point x="829" y="658"/>
      <point x="772" y="607" type="qcurve"/>
      <point x="700" y="542"/>
      <point x="571" y="428"/>
      <point x="460" y="320"/>
      <point x="368" y="215"/>
      <point x="333" y="160" type="qcurve"/>
      <point x="1003" y="160" type="line"/>
      <point x="975" y="0" type="line"/>
    </contour>
  </outline>
</glyph>
<glyph name="four" format="1">
  <advance width="1300"/>
  <unicode hex="0034"/>
  <outline>
    <contour>
      <point x="1107" y="300" type="line"/>
      <point x="927" y="300" type="line"/>
      <point x="875" y="0" type="line"/>
      <point x="675" y="0" type="line"/>
      <point x="727" y="300" type="line"/>
      <point x="132" y="300" type="line"/>
      <point x="163" y="471" type="line"/>
      <point x="832" y="1520" type="line"/>
      <point x="1017" y="1500" type="line"/>
      <point x="443" y="600" type="line"/>
      <point x="326" y="460" type="line"/>
      <point x="756" y="460" type="line"/>
      <point x="827" y="867" type="line"/>
      <point x="1024" y="850" type="line"/>
      <point x="956" y="460" type="line"/>
      <point x="1151" y="460" type="line"/>
    </contour>
  </outline>
</glyph>
<glyph name="five" format="1">
  <advance width="1300"/>
  <unicode hex="0035"/>
  <outline>
    <contour>
      <point x="492" y="982" type="line"/>
      <point x="500" y="986"/>
      <point x="536" y="1004"/>
      <point x="584" y="1022"/>
      <point x="639" y="1035"/>
      <point x="666" y="1035" type="qcurve"/>
      <point x="769" y="1035"/>
      <point x="918" y="977"/>
      <point x="1014" y="875"/>
      <point x="1060" y="736"/>
      <point x="1060" y="655" type="qcurve"/>
      <point x="1060" y="539"/>
      <point x="985" y="353"/>
      <point x="854" y="207"/>
      <point x="675" y="101"/>
      <point x="466" y="33"/>
      <point x="237" y="0"/>
      <point x="121" y="0" type="qcurve"/>
      <point x="149" y="160" type="line"/>
      <point x="245" y="160"/>
      <point x="425" y="191"/>
      <point x="583" y="247"/>
      <point x="715" y="327"/>
      <point x="809" y="429"/>
      <point x="861" y="550"/>
      <point x="861" y="619" type="qcurve"/>
      <point x="861" y="668"/>
      <point x="827" y="757"/>
      <point x="763" y="825"/>
      <point x="673" y="866"/>
      <point x="618" y="866" type="qcurve"/>
      <point x="536" y="866"/>
      <point x="423" y="832"/>
      <point x="376" y="800" type="qcurve"/>
      <point x="262" y="800" type="line"/>
      <point x="385" y="1500" type="line"/>
      <point x="1128" y="1500" type="line"/>
      <point x="1100" y="1340" type="line"/>
      <point x="555" y="1340" type="line"/>
    </contour>
  </outline>
</glyph>
<glyph name="six" format="1">
  <advance width="1300"/>
  <unicode hex="0036"/>
  <outline>
    <contour>
      <point x="1065" y="1344" type="line"/>
      <point x="1059" y="1346"/>
      <point x="1032" y="1347"/>
      <point x="1021" y="1347" type="qcurve"/>
      <point x="933" y="1347"/>
      <point x="778" y="1302"/>
      <point x="644" y="1220"/>
      <point x="531" y="1106"/>
      <point x="440" y="969"/>
      <point x="371" y="813"/>
      <point x="348" y="730" type="qcurve"/>
      <point x="452" y="847" type="line"/>
      <point x="478" y="862"/>
      <point x="544" y="891"/>
      <point x="616" y="914"/>
      <point x="689" y="928"/>
      <point x="722" y="928" type="qcurve" name="av01"/>
      <point x="808" y="928"/>
      <point x="951" y="884"/>
      <point x="1053" y="790"/>
      <point x="1110" y="644"/>
      <point x="1110" y="541" type="qcurve" name="ah01"/>
      <point x="1110" y="429"/>
      <point x="1024" y="226"/>
      <point x="876" y="72"/>
      <point x="677" y="-19"/>
      <point x="565" y="-19" type="qcurve" name="ab01"/>
      <point x="554" y="-19"/>
      <point x="534" y="-18"/>
      <point x="523" y="-17" type="qcurve"/>
      <point x="445" y="-11"/>
      <point x="326" y="44"/>
      <point x="240" y="127"/>
      <point x="183" y="234"/>
      <point x="149" y="352"/>
      <point x="135" y="473"/>
      <point x="135" y="530" type="qcurve" name="ah02"/>
      <point x="135" y="658"/>
      <point x="198" y="904"/>
      <point x="315" y="1123"/>
      <point x="481" y="1308"/>
      <point x="687" y="1442"/>
      <point x="927" y="1517"/>
      <point x="1060" y="1517" type="qcurve" name="at01"/>
      <point x="1075" y="1517"/>
      <point x="1111" y="1516"/>
      <point x="1120" y="1514" type="qcurve"/>
    </contour>
    <contour>
      <point x="328" y="597" type="qcurve"/>
      <point x="321" y="559"/>
      <point x="319" y="499"/>
      <point x="319" y="469" type="qcurve"/>
      <point x="319" y="406"/>
      <point x="349" y="298"/>
      <point x="409" y="215"/>
      <point x="497" y="161"/>
      <point x="555" y="153" type="qcurve"/>
      <point x="576" y="150"/>
      <point x="596" y="150" type="qcurve"/>
      <point x="659" y="150"/>
      <point x="773" y="207"/>
      <point x="860" y="309"/>
      <point x="911" y="448"/>
      <point x="911" y="530" type="qcurve"/>
      <point x="911" y="590"/>
      <point x="868" y="677"/>
      <point x="796" y="732"/>
      <point x="702" y="759"/>
      <point x="651" y="759" type="qcurve"/>
      <point x="553" y="759"/>
      <point x="388" y="678"/>
    </contour>
  </outline>
</glyph>
<glyph name="semicolon" format="1">
  <advance width="1300"/>
  <unicode hex="003B"/>
  <outline>
    <contour>
      <point x="226" y="641" type="qcurve"/>
      <point x="231" y="672"/>
      <point x="265" y="726"/>
      <point x="312" y="766"/>
      <point x="369" y="789"/>
      <point x="400" y="789" type="qcurve" name="av01"/>
      <point x="431" y="789"/>
      <point x="481" y="766"/>
      <point x="514" y="726"/>
      <point x="527" y="672"/>
      <point x="522" y="641" type="qcurve"/>
      <point x="517" y="610"/>
      <point x="484" y="555"/>
      <point x="437" y="515"/>
      <point x="380" y="491"/>
      <point x="350" y="491" type="qcurve" name="av02"/>
      <point x="319" y="491"/>
      <point x="268" y="515"/>
      <point x="235" y="555"/>
      <point x="221" y="610"/>
    </contour>
    <contour>
      <point x="135" y="127" type="qcurve"/>
      <point x="141" y="156"/>
      <point x="173" y="209"/>
      <point x="221" y="247"/>
      <point x="279" y="271"/>
      <point x="309" y="271" type="qcurve" name="av03"/>
      <point x="338" y="271"/>
      <point x="387" y="250"/>
      <point x="421" y="210"/>
      <point x="435" y="149"/>
      <point x="428" y="110" type="qcurve"/>
      <point x="419" y="57"/>
      <point x="389" y="-42"/>
      <point x="330" y="-144"/>
      <point x="235" y="-250"/>
      <point x="163" y="-307" type="qcurve"/>
      <point x="115" y="-284" type="line"/>
      <point x="146" y="-240"/>
      <point x="172" y="-193" type="qcurve"/>
      <point x="194" y="-154"/>
      <point x="235" y="-61"/>
      <point x="243" y="-17" type="qcurve" name="ab01"/>
      <point x="218" y="-16"/>
      <point x="174" y="4"/>
      <point x="142" y="39"/>
      <point x="129" y="93"/>
    </contour>
  </outline>
</glyph>
<glyph name="C" format="1">
  <advance width="1300"/>
  <unicode hex="0043"/>
  <outline>
    <contour>
      <point x="998" y="95" type="line"/>
      <point x="978" y="81"/>
      <point x="906" y="43"/>
      <point x="802" y="8"/>
      <point x="664" y="-17"/>
      <point x="577" y="-17" type="qcurve" name="ab01"/>
      <point x="458" y="-17"/>
      <point x="281" y="78"/>
      <point x="164" y="247"/>
      <point x="106" y="479"/>
      <point x="106" y="616" type="qcurve"/>
      <point x="106" y="738"/>
      <point x="149" y="967"/>
      <point x="233" y="1167"/>
      <point x="357" y="1333"/>
      <point x="519" y="1451"/>
      <point x="718" y="1517"/>
      <point x="835" y="1517" type="qcurve" name="at01"/>
      <point x="1078" y="1517"/>
      <point x="1210" y="1385" type="qcurve"/>
      <point x="1112" y="1263" type="line"/>
      <point x="1050" y="1306"/>
      <point x="917" y="1341"/>
      <point x="829" y="1341" type="qcurve"/>
      <point x="735" y="1341"/>
      <point x="585" y="1283"/>
      <point x="469" y="1180"/>
      <point x="385" y="1039"/>
      <point x="332" y="876"/>
      <point x="307" y="696"/>
      <point x="307" y="605" type="qcurve"/>
      <point x="307" y="518"/>
      <point x="332" y="355"/>
      <point x="402" y="229"/>
      <point x="530" y="153"/>
      <point x="632" y="153" type="qcurve"/>
      <point x="677" y="153"/>
      <point x="759" y="165"/>
      <point x="837" y="189"/>
      <point x="915" y="224"/>
      <point x="956" y="247" type="qcurve"/>
    </contour>
  </outline>
</glyph>
<glyph name="F" format="1">
  <advance width="1300"/>
  <unicode hex="0046"/>
  <outline>
    <contour>
      <point x="300" y="0" type="line" name="sv01"/>
      <point x="100" y="0" type="line" name="ab01"/>
      <point x="327" y="1290" type="line"/>
      <point x="334" y="1500" type="line" name="at01"/>
      <point x="1209" y="1500" type="line" name="sv02"/>
      <point x="1161" y="1340" type="line"/>
      <point x="516" y="1340" type="line"/>
      <point x="502" y="1150" type="line"/>
      <point x="456" y="885" type="line"/>
      <point x="996" y="885" type="line"/>
      <point x="970" y="740" type="line" name="sv03"/>
      <point x="430" y="740" type="line" name="av01"/>
    </contour>
  </outline>
</glyph>
<glyph name="H" format="1">
  <advance width="1300"/>
  <unicode hex="0048"/>
  <outline>
    <contour>
      <point x="787" y="0" type="line"/>
      <point x="914" y="725" type="line" name="sv01"/>
      <point x="372" y="725" type="line" name="av01"/>
      <point x="245" y="0" type="line"/>
      <point x="50" y="0" type="line" name="ab01"/>
      <point x="277" y="1290" type="line"/>
      <point x="285" y="1500" type="line" name="at01"/>
      <point x="513" y="1520" type="line" name="at02"/>
      <point x="401" y="885" type="line"/>
      <point x="943" y="885" type="line"/>
      <point x="1051" y="1500" type="line" name="sv02"/>
      <point x="1250" y="1520" type="line" name="at03"/>
      <point x="982" y="0" type="line" name="sv03"/>
    </contour>
  </outline>
</glyph>
<glyph name="I" format="1">
  <advance width="1300"/>
  <unicode hex="0049"/>
  <outline>
    <contour>
      <point x="332" y="1500" type="line" name="at01"/>
      <point x="1232" y="1500" type="line" name="sv01"/>
      <point x="1204" y="1340" type="line"/>
      <point x="846" y="1340" type="line"/>
      <point x="637" y="160" type="line"/>
      <point x="1015" y="160" type="line"/>
      <point x="967" y="0" type="line" name="sv02"/>
      <point x="67" y="0" type="line" name="ab01"/>
      <point x="95" y="160" type="line"/>
      <point x="451" y="160" type="line"/>
      <point x="660" y="1340" type="line"/>
      <point x="284" y="1340" type="line"/>
    </contour>
  </outline>
</glyph>
<glyph name="J" format="1">
  <advance width="1300"/>
  <unicode hex="004A"/>
  <outline>
    <contour>
      <point x="473" y="1325" type="line"/>
      <point x="500" y="1500" type="line" name="at01"/>
      <point x="1068" y="1500" type="line" name="sv01"/>
      <point x="872" y="415" type="line"/>
      <point x="853" y="309"/>
      <point x="784" y="147"/>
      <point x="671" y="38"/>
      <point x="510" y="-17"/>
      <point x="399" y="-17" type="qcurve" name="ab01"/>
      <point x="358" y="-17"/>
      <point x="277" y="10"/>
      <point x="205" y="50"/>
      <point x="147" y="96"/>
      <point x="130" y="115" type="qcurve"/>
      <point x="243" y="233" type="line"/>
      <point x="252" y="223"/>
      <point x="286" y="196"/>
      <point x="333" y="172"/>
      <point x="391" y="156"/>
      <point x="424" y="156" type="qcurve"/>
      <point x="493" y="156"/>
      <point x="581" y="195"/>
      <point x="636" y="273"/>
      <point x="668" y="391"/>
      <point x="682" y="470" type="qcurve"/>
      <point x="802" y="1148" type="line"/>
      <point x="875" y="1374" type="line"/>
      <point x="633" y="1325" type="line"/>
    </contour>
  </outline>
</glyph>
<glyph name="K" format="1">
  <advance width="1300"/>
  <unicode hex="004B"/>
  <outline>
    <contour>
      <point x="50" y="0" type="line" name="ab01"/>
      <point x="277" y="1290" type="line"/>
      <point x="284" y="1500" type="line" name="at01"/>
      <point x="518" y="1520" type="line" name="at02"/>
      <point x="400" y="856" type="line"/>
      <point x="1055" y="1500" type="line"/>
      <point x="1277" y="1500" type="line" name="sv01"/>
      <point x="634" y="865" type="line"/>
      <point x="454" y="802" type="line"/>
      <point x="618" y="744" type="line"/>
      <point x="1040" y="0" type="line" name="sv02"/>
      <point x="803" y="0" type="line"/>
      <point x="381" y="746" type="line"/>
      <point x="250" y="0" type="line"/>
    </contour>
  </outline>
</glyph>
<glyph name="N" format="1">
  <advance width="1300"/>
  <unicode hex="004E"/>
  <outline>
    <contour>
      <point x="817" y="0" type="line"/>
      <point x="490" y="948" type="line"/>
      <point x="403" y="1361" type="line"/>
      <point x="397" y="1360" type="line"/>
      <point x="385" y="920" type="line"/>
      <point x="222" y="0" type="line"/>
      <point x="42" y="0" type="line" name="ab01"/>
      <point x="270" y="1290" type="line"/>
      <point x="277" y="1500" type="line" name="at01"/>
      <point x="482" y="1520" type="line" name="at02"/>
      <point x="808" y="557" type="line"/>
      <point x="900" y="140" type="line"/>
      <point x="906" y="141" type="line"/>
      <point x="905" y="580" type="line"/>
      <point x="1067" y="1500" type="line" name="sv01"/>
      <point x="1251" y="1520" type="line" name="at03"/>
      <point x="982" y="0" type="line" name="sv02"/>
    </contour>
  </outline>
</glyph>
<glyph name="P" format="1">
  <advance width="1300"/>
  <unicode hex="0050"/>
  <outline>
    <contour>
      <point x="289" y="0" type="line" name="sv01"/>
      <point x="99" y="0" type="line" name="ab01"/>
      <point x="327" y="1290" type="line"/>
      <point x="327" y="1490" type="line"/>
      <point x="357" y="1495"/>
      <point x="440" y="1503"/>
      <point x="532" y="1509"/>
      <point x="624" y="1512"/>
      <point x="663" y="1512" type="qcurve" name="at01"/>
      <point x="823" y="1512"/>
      <point x="1057" y="1451"/>
      <point x="1203" y="1342"/>
      <point x="1260" y="1190"/>
      <point x="1244" y="1099" type="qcurve"/>
      <point x="1157" y="624"/>
      <point x="399" y="624" type="qcurve"/>
    </contour>
    <contour>
      <point x="491" y="1147" type="line"/>
      <point x="424" y="765" type="line"/>
      <point x="576" y="765"/>
      <point x="803" y="809"/>
      <point x="960" y="895"/>
      <point x="1051" y="1019"/>
      <point x="1066" y="1100" type="qcurve"/>
      <point x="1079" y="1167"/>
      <point x="1030" y="1268"/>
      <point x="925" y="1336"/>
      <point x="773" y="1370"/>
      <point x="683" y="1370" type="qcurve"/>
      <point x="666" y="1370"/>
      <point x="619" y="1369"/>
      <point x="570" y="1366"/>
      <point x="524" y="1362"/>
      <point x="509" y="1359" type="qcurve"/>
    </contour>
  </outline>
</glyph>
<glyph name="Q" format="1">
  <advance width="1300"/>
  <unicode hex="0051"/>
  <outline>
    <contour>
      <point x="841" y="314" type="line"/>
      <point x="901" y="393"/>
      <point x="979" y="559"/>
      <point x="1026" y="725"/>
      <point x="1045" y="886"/>
      <point x="1045" y="961" type="qcurve"/>
      <point x="1045" y="1036"/>
      <point x="1014" y="1173"/>
      <point x="944" y="1276"/>
      <point x="831" y="1337"/>
      <point x="749" y="1337" type="qcurve"/>
      <point x="665" y="1337"/>
      <point x="527" y="1258"/>
      <point x="419" y="1128"/>
      <point x="339" y="961"/>
      <point x="287" y="783"/>
      <point x="262" y="610"/>
      <point x="262" y="539" type="qcurve"/>
      <point x="262" y="456"/>
      <point x="295" y="317"/>
      <point x="367" y="217"/>
      <point x="479" y="162"/>
      <point x="558" y="162" type="qcurve"/>
      <point x="570" y="162"/>
      <point x="588" y="162"/>
      <point x="604" y="164"/>
      <point x="623" y="168"/>
      <point x="636" y="172" type="qcurve"/>
      <point x="618" y="217"/>
      <point x="592" y="284"/>
      <point x="565" y="328"/>
      <point x="529" y="350"/>
      <point x="500" y="350" type="qcurve"/>
      <point x="577" y="500" type="line"/>
      <point x="618" y="500"/>
      <point x="681" y="459"/>
      <point x="736" y="378"/>
      <point x="788" y="257"/>
      <point x="817" y="177" type="qcurve"/>
    </contour>
    <contour>
      <point x="626" y="0" type="line"/>
      <point x="591" y="-8"/>
      <point x="515" y="-17"/>
      <point x="467" y="-17" type="qcurve" name="ab01"/>
      <point x="365" y="-17"/>
      <point x="214" y="70"/>
      <point x="113" y="221"/>
      <point x="63" y="424"/>
      <point x="63" y="540" type="qcurve"/>
      <point x="63" y="657"/>
      <point x="109" y="893"/>
      <point x="197" y="1110"/>
      <point x="323" y="1298"/>
      <point x="484" y="1437"/>
      <point x="677" y="1517"/>
      <point x="787" y="1517" type="qcurve" name="at01"/>
      <point x="899" y="1517"/>
      <point x="1069" y="1432"/>
      <point x="1183" y="1281"/>
      <point x="1240" y="1074"/>
      <point x="1240" y="953" type="qcurve"/>
      <point x="1240" y="837"/>
      <point x="1191" y="599"/>
      <point x="1101" y="379"/>
      <point x="972" y="190"/>
      <point x="893" y="124" type="qcurve"/>
      <point x="885" y="116"/>
      <point x="863" y="99"/>
      <point x="854" y="92" type="qcurve"/>
      <point x="867" y="60"/>
      <point x="891" y="24"/>
      <point x="926" y="5"/>
      <point x="979" y="0"/>
      <point x="1021" y="0" type="qcurve"/>
      <point x="944" y="-145" type="line"/>
      <point x="894" y="-145"/>
      <point x="814" y="-129"/>
      <point x="746" y="-77"/>
      <point x="689" y="21"/>
      <point x="662" y="102" type="qcurve"/>
      <point x="650" y="137" type="line"/>
    </contour>
  </outline>
</glyph>
<glyph name="U" format="1">
  <advance width="1300"/>
  <unicode hex="0055"/>
  <outline>
    <contour>
      <point x="1226" y="1500" type="line" name="sv01"/>
      <point x="1054" y="523" type="line"/>
      <point x="1030" y="387"/>
      <point x="930" y="184"/>
      <point x="783" y="50"/>
      <point x="593" y="-17"/>
      <point x="479" y="-17" type="qcurve" name="ab01"/>
      <point x="357" y="-17"/>
      <point x="202" y="68"/>
      <point x="121" y="223"/>
      <point x="110" y="441"/>
      <point x="133" y="573" type="qcurve"/>
      <point x="259" y="1290" type="line"/>
      <point x="266" y="1500" type="line" name="at01"/>
      <point x="490" y="1520" type="line" name="at02"/>
      <point x="320" y="554" type="line"/>
      <point x="303" y="459"/>
      <point x="314" y="310"/>
      <point x="366" y="207"/>
      <point x="456" y="153"/>
      <point x="519" y="153" type="qcurve"/>
      <point x="666" y="153"/>
      <point x="830" y="328"/>
      <point x="861" y="504" type="qcurve"/>
      <point x="1036" y="1500" type="line"/>
    </contour>
  </outline>
</glyph>
<glyph name="V" format="1">
  <advance width="1300"/>
  <unicode hex="0056"/>
  <outline>
    <contour>
      <point x="469" y="500" type="line"/>
      <point x="493" y="140" type="line"/>
      <point x="597" y="454" type="line"/>
      <point x="1111" y="1500" type="line"/>
      <point x="1300" y="1500" type="line" name="sv01"/>
      <point x="648" y="180" type="line"/>
      <point x="587" y="-20" type="line" name="ab01"/>
      <point x="355" y="0" type="line"/>
      <point x="137" y="1500" type="line" name="at01"/>
      <point x="326" y="1520" type="line" name="at02"/>
    </contour>
  </outline>
</glyph>
<glyph name="bracketright" format="1">
  <advance width="1300"/>
  <unicode hex="005D"/>
  <outline>
    <contour>
      <point x="633" y="-220" type="line"/>
      <point x="619" y="-420" type="line" name="sv01"/>
      <point x="53" y="-420" type="line" name="av01"/>
      <point x="80" y="-270" type="line"/>
      <point x="452" y="-270" type="line"/>
      <point x="467" y="-70" type="line"/>
      <point x="686" y="1170" type="line"/>
      <point x="741" y="1370" type="line"/>
      <point x="369" y="1370" type="line"/>
      <point x="396" y="1520" type="line" name="at01"/>
      <point x="962" y="1520" type="line" name="sv02"/>
      <point x="904" y="1320" type="line"/>
    </contour>
  </outline>
</glyph>
<glyph name="underscore" format="1">
  <advance width="1300"/>
  <unicode hex="005F"/>
  <outline>
    <contour>
      <point x="101" y="-300" type="line"/>
      <point x="1200" y="-300" type="line"/>
      <point x="1172" y="-455" type="line" name="sv01"/>
      <point x="73" y="-455" type="line" name="ab01"/>
    </contour>
  </outline>
</glyph>
<glyph name="n" format="1">
  <advance width="1300"/>
  <unicode hex="006E"/>
  <outline>
    <contour>
      <point x="292" y="0" type="line"/>
      <point x="102" y="0" type="line" name="ab01"/>
      <point x="296" y="1100" type="line"/>
      <point x="489" y="1121" type="line" name="av01"/>
      <point x="455" y="927" type="line"/>
      <point x="537" y="1044" type="line"/>
      <point x="557" y="1056"/>
      <point x="615" y="1082"/>
      <point x="695" y="1103"/>
      <point x="798" y="1117"/>
      <point x="863" y="1117" type="qcurve" name="av02"/>
      <point x="1000" y="1117"/>
      <point x="1142" y="972"/>
      <point x="1142" y="844" type="qcurve"/>
      <point x="1142" y="799"/>
      <point x="1133" y="750" type="qcurve"/>
      <point x="1001" y="0" type="line" name="sv01"/>
      <point x="811" y="0" type="line"/>
      <point x="943" y="750" type="line"/>
      <point x="945" y="764"/>
      <point x="948" y="790"/>
      <point x="948" y="802" type="qcurve"/>
      <point x="948" y="851"/>
      <point x="923" y="912"/>
      <point x="876" y="946"/>
      <point x="810" y="957"/>
      <point x="770" y="957" type="qcurve"/>
      <point x="717" y="957"/>
      <point x="623" y="933"/>
      <point x="540" y="896"/>
      <point x="469" y="853"/>
      <point x="439" y="834" type="qcurve"/>
    </contour>
  </outline>
</glyph>
<glyph name="q" format="1">
  <advance width="1300"/>
  <unicode hex="0071"/>
  <outline>
    <contour>
      <point x="933" y="935" type="line"/>
      <point x="913" y="939"/>
      <point x="861" y="947"/>
      <point x="802" y="953"/>
      <point x="741" y="957"/>
      <point x="713" y="957" type="qcurve"/>
      <point x="638" y="957"/>
      <point x="525" y="907"/>
      <point x="442" y="824"/>
      <point x="387" y="716"/>
      <point x="354" y="598"/>
      <point x="340" y="478"/>
      <point x="340" y="425" type="qcurve"/>
      <point x="340" y="277"/>
      <point x="448" y="140"/>
      <point x="545" y="140" type="qcurve"/>
      <point x="615" y="140"/>
      <point x="755" y="214"/>
      <point x="816" y="270" type="qcurve"/>
    </contour>
    <contour>
      <point x="792" y="136" type="line"/>
      <point x="669" y="29" type="line"/>
      <point x="641" y="17"/>
      <point x="595" y="0"/>
      <point x="550" y="-12"/>
      <point x="501" y="-17"/>
      <point x="470" y="-17" type="qcurve" name="ab01"/>
      <point x="397" y="-17"/>
      <point x="280" y="44"/>
      <point x="199" y="159"/>
      <point x="155" y="326"/>
      <point x="155" y="432" type="qcurve"/>
      <point x="155" y="577"/>
      <point x="239" y="827"/>
      <point x="390" y="1011"/>
      <point x="601" y="1117"/>
      <point x="727" y="1117" type="qcurve" name="av02"/>
      <point x="793" y="1117"/>
      <point x="897" y="1109"/>
      <point x="990" y="1094"/>
      <point x="1083" y="1075"/>
      <point x="1138" y="1065" type="qcurve"/>
      <point x="862" y="-500" type="line" name="sv01"/>
      <point x="680" y="-500" type="line" name="av01"/>
    </contour>
  </outline>
</glyph>
<glyph name="r" format="1">
  <advance width="1300"/>
  <unicode hex="0072"/>
  <outline>
    <contour>
      <point x="448" y="895" type="line"/>
      <point x="566" y="1053" type="line"/>
      <point x="598" y="1074"/>
      <point x="674" y="1100"/>
      <point x="753" y="1113"/>
      <point x="831" y="1117"/>
      <point x="866" y="1117" type="qcurve" name="av01"/>
      <point x="918" y="1117"/>
      <point x="1004" y="1103"/>
      <point x="1070" y="1083"/>
      <point x="1114" y="1061"/>
      <point x="1125" y="1053" type="qcurve"/>
      <point x="1125" y="800" type="line"/>
      <point x="980" y="779" type="line"/>
      <point x="961" y="948" type="line"/>
      <point x="947" y="953"/>
      <point x="891" y="968"/>
      <point x="846" y="968" type="qcurve"/>
      <point x="778" y="968"/>
      <point x="654" y="930"/>
      <point x="546" y="868"/>
      <point x="456" y="790"/>
      <point x="422" y="750" type="qcurve"/>
      <point x="290" y="0" type="line" name="sv01"/>
      <point x="100" y="0" type="line" name="ab01"/>
      <point x="294" y="1100" type="line"/>
      <point x="487" y="1121" type="line" name="av02"/>
    </contour>
  </outline>
</glyph>
<glyph name="t" format="1">
  <advance width="1300"/>
  <unicode hex="0074"/>
  <outline>
    <contour>
      <point x="533" y="376" type="line"/>
      <point x="521" y="307"/>
      <point x="521" y="261" type="qcurve"/>
      <point x="521" y="195"/>
      <point x="565" y="143"/>
      <point x="607" y="143" type="qcurve"/>
      <point x="654" y="143"/>
      <point x="750" y="165"/>
      <point x="835" y="194"/>
      <point x="902" y="223"/>
      <point x="920" y="230" type="qcurve"/>
      <point x="968" y="109" type="line"/>
      <point x="957" y="101"/>
      <point x="881" y="60"/>
      <point x="768" y="16"/>
      <point x="631" y="-17"/>
      <point x="559" y="-17" type="qcurve" name="ab01"/>
      <point x="493" y="-17"/>
      <point x="404" y="19"/>
      <point x="351" y="85"/>
      <point x="329" y="175"/>
      <point x="329" y="229" type="qcurve"/>
      <point x="329" y="268"/>
      <point x="339" y="354"/>
      <point x="347" y="400" type="qcurve"/>
      <point x="443" y="940" type="line"/>
      <point x="142" y="940" type="line"/>
      <point x="170" y="1100" type="line" name="av01"/>
      <point x="471" y="1100" type="line"/>
      <point x="508" y="1309" type="line"/>
      <point x="712" y="1420" type="line" name="av02"/>
      <point x="656" y="1100" type="line"/>
      <point x="1096" y="1100" type="line" name="sv01"/>
      <point x="1048" y="940" type="line"/>
      <point x="633" y="940" type="line"/>
    </contour>
  </outline>
</glyph>
<glyph name="w" format="1">
  <advance width="1300"/>
  <unicode hex="0077"/>
  <outline>
    <contour>
      <point x="737" y="400" type="line"/>
      <point x="754" y="150" type="line"/>
      <point x="823" y="480" type="line"/>
      <point x="1063" y="1100" type="line" name="sv01"/>
      <point x="1229" y="1121" type="line" name="av02"/>
      <point x="813" y="0" type="line" name="sv02"/>
      <point x="666" y="0" type="line"/>
      <point x="595" y="348" type="line"/>
      <point x="610" y="750" type="line"/>
      <point x="485" y="350" type="line"/>
      <point x="293" y="0" type="line"/>
      <point x="146" y="0" type="line" name="ab01"/>
      <point x="146" y="1100" type="line" name="av03"/>
      <point x="299" y="1121" type="line" name="av01"/>
      <point x="300" y="480" type="line"/>
      <point x="263" y="150" type="line"/>
      <point x="558" y="885" type="line" name="av04"/>
      <point x="711" y="885" type="line" name="sv03"/>
    </contour>
  </outline>
</glyph>
<glyph name="z" format="1">
  <advance width="1300"/>
  <unicode hex="007A"/>
  <outline>
    <contour>
      <point x="1008" y="160" type="line"/>
      <point x="1000" y="0" type="line" name="sv01"/>
      <point x="181" y="0" type="line" name="ab01"/>
      <point x="169" y="50" type="line"/>
      <point x="769" y="826" type="line"/>
      <point x="948" y="980" type="line"/>
      <point x="736" y="940" type="line"/>
      <point x="313" y="940" type="line"/>
      <point x="321" y="1100" type="line" name="av01"/>
      <point x="1125" y="1100" type="line" name="sv02"/>
      <point x="1137" y="1051" type="line"/>
      <point x="552" y="280" type="line"/>
      <point x="373" y="120" type="line"/>
      <point x="585" y="160" type="line"/>
    </contour>
  </outline>
</glyph>
<glyph name="bar" format="1">
  <advance width="1300"/>
  <unicode hex="007C"/>
  <outline>
    <contour>
      <point x="762" y="1520" type="line" name="at01"/>
      <point x="423" y="-400" type="line" name="sv01"/>
      <point x="229" y="-400" type="line" name="av01"/>
      <point x="564" y="1500" type="line"/>
    </contour>
  </outline>
</glyph>
<glyph name="asciitilde" format="1">
  <advance width="1300"/>
  <unicode hex="007E"/>
  <outline>
    <contour>
      <point x="78" y="484" type="line"/>
      <point x="97" y="550"/>
      <point x="176" y="673"/>
      <point x="281" y="765"/>
      <point x="406" y="813"/>
      <point x="472" y="805" type="qcurve"/>
      <point x="517" y="799"/>
      <point x="594" y="763"/>
      <point x="663" y="717"/>
      <point x="728" y="668"/>
      <point x="792" y="630"/>
      <point x="858" y="610"/>
      <point x="895" y="616" type="qcurve"/>
      <point x="967" y="628"/>
      <point x="1064" y="712"/>
      <point x="1099" y="792" type="qcurve"/>
      <point x="1242" y="776" type="line"/>
      <point x="1222" y="703"/>
      <point x="1140" y="565"/>
      <point x="1031" y="463"/>
      <point x="902" y="410"/>
      <point x="836" y="422" type="qcurve"/>
      <point x="800" y="428"/>
      <point x="730" y="465"/>
      <point x="660" y="511"/>
      <point x="590" y="560"/>
      <point x="520" y="597"/>
      <point x="450" y="617"/>
      <point x="414" y="611" type="qcurve"/>
      <point x="353" y="600"/>
      <point x="255" y="534"/>
      <point x="224" y="468" type="qcurve"/>
    </contour>
  </outline>
</glyph>
<glyph name="exclamdown" format="1">
  <advance width="1300"/>
  <unicode hex="00A1"/>
  <outline>
    <contour>
      <point x="196" y="-396" type="line" name="av01"/>
      <point x="381" y="654" type="line"/>
      <point x="585" y="675" type="line" name="av02"/>
      <point x="396" y="-396" type="line" name="sv01"/>
    </contour>
    <contour>
      <point x="664" y="998" type="qcurve"/>
      <point x="664" y="968"/>
      <point x="638" y="920"/>
      <point x="596" y="888"/>
      <point x="545" y="873"/>
      <point x="521" y="877" type="qcurve" name="av03"/>
      <point x="497" y="881"/>
      <point x="461" y="905"/>
      <point x="436" y="940"/>
      <point x="423" y="979"/>
      <point x="422" y="998" type="qcurve"/>
      <point x="421" y="1028"/>
      <point x="444" y="1077"/>
      <point x="483" y="1110"/>
      <point x="535" y="1125"/>
      <point x="563" y="1121" type="qcurve" name="av04"/>
      <point x="610" y="1115"/>
      <point x="664" y="1049"/>
    </contour>
  </outline>
</glyph>
<glyph name="sterling" format="1">
  <advance width="1300"/>
  <unicode hex="00A3"/>
  <outline>
    <contour>
      <point x="379" y="850" type="line" name="av01"/>
      <point x="540" y="850" type="line"/>
      <point x="641" y="1165" type="line"/>
      <point x="674" y="1267"/>
      <point x="739" y="1402"/>
      <point x="824" y="1482"/>
      <point x="938" y="1516"/>
      <point x="1020" y="1517" type="qcurve" name="at01"/>
      <point x="1071" y="1518"/>
      <point x="1153" y="1501"/>
      <point x="1186" y="1484" type="qcurve"/>
      <point x="1253" y="1451"/>
      <point x="1276" y="1425" type="qcurve"/>
      <point x="1168" y="1324" type="line"/>
      <point x="1160" y="1329"/>
      <point x="1131" y="1344"/>
      <point x="1095" y="1358"/>
      <point x="1057" y="1368"/>
      <point x="1040" y="1369" type="qcurve"/>
      <point x="995" y="1371"/>
      <point x="931" y="1356"/>
      <point x="881" y="1307"/>
      <point x="839" y="1216"/>
      <point x="815" y="1141" type="qcurve"/>
      <point x="722" y="850" type="line"/>
      <point x="929" y="850" type="line" name="sv01"/>
      <point x="883" y="700" type="line"/>
      <point x="675" y="700" type="line"/>
      <point x="543" y="263"/>
      <point x="507" y="224" type="qcurve"/>
      <point x="398" y="104" type="line"/>
      <point x="567" y="147" type="line"/>
      <point x="1005" y="147" type="line"/>
      <point x="980" y="0" type="line" name="sv02"/>
      <point x="34" y="0" type="line" name="ab01"/>
      <point x="79" y="147" type="line"/>
      <point x="217" y="147" type="line"/>
      <point x="252" y="147"/>
      <point x="300" y="197" type="qcurve"/>
      <point x="347" y="245"/>
      <point x="493" y="700" type="qcurve"/>
      <point x="353" y="700" type="line"/>
    </contour>
  </outline>
</glyph>
<glyph name="currency" format="1">
  <advance width="1300"/>
  <unicode hex="00A4"/>
  <outline>
    <contour>
      <point x="1001" y="222" type="line"/>
      <point x="882" y="121" type="line"/>
      <point x="754" y="278" type="line"/>
      <point x="741" y="260"/>
      <point x="686" y="230"/>
      <point x="614" y="211"/>
      <point x="531" y="204" name="sv01"/>
      <point x="449" y="216"/>
      <point x="375" y="249"/>
      <point x="348" y="278" type="qcurve"/>
      <point x="164" y="121" type="line"/>
      <point x="81" y="222" type="line"/>
      <point x="265" y="378" type="line"/>
      <point x="237" y="437"/>
      <point x="225" y="557"/>
      <point x="248" y="666"/>
      <point x="301" y="755"/>
      <point x="337" y="784" type="qcurve"/>
      <point x="207" y="940" type="line"/>
      <point x="326" y="1042" type="line"/>
      <point x="455" y="885" type="line"/>
      <point x="475" y="909"/>
      <point x="542" y="937"/>
      <point x="621" y="948" name="av02"/>
      <point x="707" y="945"/>
      <point x="784" y="929"/>
      <point x="845" y="902"/>
      <point x="861" y="885" type="qcurve"/>
      <point x="1044" y="1042" type="line"/>
      <point x="1127" y="940" type="line"/>
      <point x="944" y="784" type="line"/>
      <point x="965" y="760"/>
      <point x="987" y="663"/>
      <point x="975" y="547"/>
      <point x="923" y="426"/>
      <point x="872" y="378" type="qcurve"/>
    </contour>
    <contour>
      <point x="419" y="424" type="qcurve"/>
      <point x="453" y="386"/>
      <point x="535" y="353" name="av01"/>
      <point x="622" y="356"/>
      <point x="707" y="392"/>
      <point x="743" y="424" type="qcurve"/>
      <point x="776" y="452"/>
      <point x="822" y="532"/>
      <point x="839" y="619"/>
      <point x="820" y="704"/>
      <point x="789" y="738" type="qcurve"/>
      <point x="756" y="773"/>
      <point x="672" y="798"/>
      <point x="585" y="791" name="sv02"/>
      <point x="504" y="759"/>
      <point x="475" y="738" type="qcurve"/>
      <point x="435" y="708"/>
      <point x="391" y="621"/>
      <point x="379" y="531"/>
      <point x="397" y="449"/>
    </contour>
  </outline>
</glyph>
<glyph name="dieresis" format="1">
  <advance width="1300"/>
  <unicode hex="00A8"/>
  <outline>
    <contour>
      <point x="564" y="1500" type="line"/>
      <point x="764" y="1500" type="line"/>
      <point x="729" y="1300" type="line"/>
      <point x="529" y="1300" type="line"/>
    </contour>
    <contour>
      <point x="964" y="1500" type="line"/>
      <point x="1164" y="1500" type="line"/>
      <point x="1129" y="1300" type="line"/>
      <point x="929" y="1300" type="line"/>
    </contour>
  </outline>
</glyph>
<glyph name="ordfeminine" format="1">
  <advance width="1300"/>
  <unicode hex="00AA"/>
  <outline>
    <contour>
      <point x="241" y="800" type="line"/>
      <point x="641" y="800" type="line"/>
      <point x="623" y="700" type="line"/>
      <point x="223" y="700" type="line"/>
    </contour>
    <contour>
      <point x="665" y="1427" type="line"/>
      <point x="656" y="1431"/>
      <point x="631" y="1437"/>
      <point x="619" y="1438" type="qcurve"/>
      <point x="606" y="1440"/>
      <point x="591" y="1441" type="qcurve"/>
      <point x="540" y="1441"/>
      <point x="464" y="1406"/>
      <point x="411" y="1345"/>
      <point x="380" y="1264"/>
      <point x="375" y="1218" type="qcurve"/>
      <point x="372" y="1193"/>
      <point x="372" y="1172" type="qcurve"/>
      <point x="372" y="1138"/>
      <point x="386" y="1086"/>
      <point x="411" y="1051"/>
      <point x="444" y="1034"/>
      <point x="463" y="1034" type="qcurve"/>
      <point x="489" y="1034"/>
      <point x="533" y="1048"/>
      <point x="570" y="1071"/>
      <point x="600" y="1100"/>
      <point x="612" y="1115" type="qcurve"/>
    </contour>
    <contour>
      <point x="586" y="962" type="line"/>
      <point x="600" y="1043" type="line"/>
      <point x="542" y="986" type="line"/>
      <point x="532" y="978"/>
      <point x="511" y="965"/>
      <point x="487" y="957"/>
      <point x="455" y="953"/>
      <point x="433" y="953" type="qcurve"/>
      <point x="397" y="953"/>
      <point x="341" y="985"/>
      <point x="302" y="1043"/>
      <point x="282" y="1123"/>
      <point x="282" y="1171" type="qcurve"/>
      <point x="282" y="1185"/>
      <point x="283" y="1215"/>
      <point x="285" y="1230" type="qcurve"/>
      <point x="292" y="1285"/>
      <point x="337" y="1390"/>
      <point x="415" y="1471"/>
      <point x="528" y="1520"/>
      <point x="602" y="1520" type="qcurve"/>
      <point x="644" y="1520"/>
      <point x="730" y="1506"/>
      <point x="768" y="1493" type="qcurve"/>
      <point x="692" y="1052" type="line"/>
      <point x="687" y="962" type="line"/>
    </contour>
  </outline>
</glyph>
<glyph name="registered" format="1">
  <advance width="1300"/>
  <unicode hex="00AE"/>
  <outline>
    <contour>
      <point x="717" y="1517" type="curve" smooth="yes"/>
      <point x="435" y="1538"/>
      <point x="184" y="1315"/>
      <point x="164" y="1047" type="curve" smooth="yes"/>
      <point x="144" y="784"/>
      <point x="298" y="583"/>
      <point x="557" y="577" type="curve" smooth="yes"/>
      <point x="844" y="570"/>
      <point x="1070" y="780"/>
      <point x="1104" y="1047" type="curve" smooth="yes"/>
      <point x="1139" y="1325"/>
      <point x="978" y="1498"/>
    </contour>
    <contour>
      <point x="571" y="663" type="curve" smooth="yes"/>
      <point x="355" y="663"/>
      <point x="239" y="837"/>
      <point x="250" y="1047" type="curve" smooth="yes"/>
      <point x="262" y="1273"/>
      <point x="467" y="1439"/>
      <point x="696" y="1439" type="curve" smooth="yes"/>
      <point x="873" y="1439"/>
      <point x="1063" y="1288"/>
      <point x="1013" y="1047" type="curve" smooth="yes"/>
      <point x="957" y="776"/>
      <point x="763" y="663"/>
    </contour>
    <contour>
      <point x="541" y="1006" type="line"/>
      <point x="505" y="802" type="line"/>
      <point x="439" y="802" type="line"/>
      <point x="514" y="1228" type="line"/>
      <point x="514" y="1294" type="line"/>
      <point x="525" y="1295"/>
      <point x="554" y="1298"/>
      <point x="586" y="1301"/>
      <point x="619" y="1303"/>
      <point x="635" y="1303" type="qcurve"/>
      <point x="676" y="1303"/>
      <point x="737" y="1284"/>
      <point x="776" y="1251"/>
      <point x="795" y="1205"/>
      <point x="795" y="1178" type="qcurve"/>
      <point x="795" y="1135"/>
      <point x="766" y="1073"/>
      <point x="718" y="1032"/>
      <point x="657" y="1011"/>
      <point x="626" y="1010" type="qcurve"/>
      <point x="668" y="998" type="line"/>
      <point x="780" y="802" type="line"/>
      <point x="706" y="802" type="line"/>
      <point x="594" y="1000" type="line"/>
      <point x="592" y="1005"/>
      <point x="583" y="1006"/>
      <point x="580" y="1006" type="qcurve"/>
    </contour>
    <contour>
      <point x="572" y="1181" type="line"/>
      <point x="549" y="1054" type="line"/>
      <point x="598" y="1054" type="line"/>
      <point x="628" y="1054"/>
      <point x="679" y="1069"/>
      <point x="715" y="1099"/>
      <point x="735" y="1143"/>
      <point x="735" y="1171" type="qcurve"/>
      <point x="735" y="1190"/>
      <point x="718" y="1222"/>
      <point x="690" y="1244"/>
      <point x="654" y="1256"/>
      <point x="635" y="1256" type="qcurve"/>
      <point x="621" y="1256"/>
      <point x="589" y="1254"/>
      <point x="578" y="1252" type="qcurve"/>
    </contour>
  </outline>
</glyph>
<glyph name="macron" format="1">
  <advance width="1300"/>
  <unicode hex="00AF"/>
  <outline>
    <contour>
      <point x="464" y="1500" type="line" name="at01"/>
      <point x="1164" y="1500" type="line" name="sv01"/>
      <point x="1138" y="1350" type="line" name="sv02"/>
      <point x="438" y="1350" type="line"/>
    </contour>
  </outline>
</glyph>
<glyph name="plusminus" format="1">
  <advance width="1300"/>
  <unicode hex="00B1"/>
  <outline>
    <contour>
      <point x="223" y="862" type="line" name="hr00"/>
      <point x="596" y="862" type="line"/>
      <point x="671" y="1200" type="line"/>
      <point x="826" y="1200" type="line"/>
      <point x="751" y="862" type="line"/>
      <point x="1123" y="862" type="line"/>
      <point x="1096" y="738" type="line"/>
      <point x="724" y="738" type="line"/>
      <point x="649" y="400" type="line"/>
      <point x="494" y="400" type="line"/>
      <point x="569" y="738" type="line"/>
      <point x="196" y="738" type="line"/>
    </contour>
    <contour>
      <point x="98" y="290" type="line"/>
      <point x="998" y="290" type="line"/>
      <point x="998" y="150" type="line"/>
      <point x="98" y="150" type="line"/>
    </contour>
  </outline>
</glyph>
<glyph name="twosuperior" format="1">
  <advance width="1300"/>
  <unicode hex="00B2"/>
  <outline>
    <contour>
      <point x="135" y="720" type="line"/>
      <point x="150" y="804" type="line"/>
      <point x="184" y="853"/>
      <point x="256" y="934"/>
      <point x="328" y="1003"/>
      <point x="399" y="1062"/>
      <point x="432" y="1089" type="qcurve"/>
      <point x="462" y="1113"/>
      <point x="516" y="1160"/>
      <point x="557" y="1206"/>
      <point x="581" y="1255"/>
      <point x="581" y="1281" type="qcurve"/>
      <point x="581" y="1308"/>
      <point x="567" y="1351"/>
      <point x="536" y="1380"/>
      <point x="486" y="1396"/>
      <point x="449" y="1396" type="qcurve"/>
      <point x="425" y="1396"/>
      <point x="385" y="1379"/>
      <point x="351" y="1352"/>
      <point x="323" y="1318"/>
      <point x="313" y="1300" type="qcurve"/>
      <point x="248" y="1330" type="line"/>
      <point x="281" y="1401"/>
      <point x="399" y="1478"/>
      <point x="476" y="1478" type="qcurve"/>
      <point x="481" y="1478"/>
      <point x="490" y="1478"/>
      <point x="495" y="1478" type="qcurve"/>
      <point x="541" y="1475"/>
      <point x="607" y="1440"/>
      <point x="651" y="1386"/>
      <point x="672" y="1319"/>
      <point x="672" y="1284" type="qcurve"/>
      <point x="672" y="1281"/>
      <point x="671" y="1275"/>
      <point x="671" y="1272" type="qcurve"/>
      <point x="669" y="1232"/>
      <point x="632" y="1164"/>
      <point x="578" y="1103"/>
      <point x="514" y="1049"/>
      <point x="486" y="1023" type="qcurve"/>
      <point x="450" y="991"/>
      <point x="385" y="934"/>
      <point x="330" y="880"/>
      <point x="284" y="827"/>
      <point x="266" y="800" type="qcurve"/>
      <point x="601" y="800" type="line"/>
      <point x="587" y="720" type="line"/>
    </contour>
  </outline>
</glyph>
<glyph name="threesuperior" format="1">
  <advance width="1300"/>
  <unicode hex="00B3"/>
  <outline>
    <contour>
      <point x="285" y="1390" type="line"/>
      <point x="307" y="1470" type="line"/>
      <point x="672" y="1470" type="line"/>
      <point x="659" y="1400" type="line"/>
      <point x="650" y="1380"/>
      <point x="614" y="1336"/>
      <point x="567" y="1292"/>
      <point x="514" y="1249"/>
      <point x="488" y="1229" type="qcurve"/>
      <point x="415" y="1194" type="line"/>
      <point x="451" y="1194" type="line"/>
      <point x="484" y="1194"/>
      <point x="550" y="1169"/>
      <point x="602" y="1123"/>
      <point x="634" y="1058"/>
      <point x="634" y="1018" type="qcurve"/>
      <point x="634" y="962"/>
      <point x="593" y="874"/>
      <point x="524" y="808"/>
      <point x="431" y="762"/>
      <point x="326" y="733"/>
      <point x="213" y="720"/>
      <point x="160" y="720" type="qcurve"/>
      <point x="174" y="800" type="line"/>
      <point x="213" y="800"/>
      <point x="297" y="812"/>
      <point x="376" y="835"/>
      <point x="447" y="867"/>
      <point x="500" y="909"/>
      <point x="531" y="961"/>
      <point x="531" y="991" type="qcurve"/>
      <point x="531" y="1023"/>
      <point x="508" y="1070"/>
      <point x="466" y="1100"/>
      <point x="408" y="1115"/>
      <point x="373" y="1115" type="qcurve"/>
      <point x="350" y="1115"/>
      <point x="307" y="1114"/>
      <point x="286" y="1113" type="qcurve"/>
      <point x="300" y="1190" type="line"/>
      <point x="323" y="1205"/>
      <point x="378" y="1243"/>
      <point x="435" y="1284"/>
      <point x="489" y="1327"/>
      <point x="535" y="1365"/>
      <point x="567" y="1399"/>
      <point x="573" y="1410" type="qcurve"/>
      <point x="493" y="1390" type="line"/>
    </contour>
  </outline>
</glyph>
<glyph name="acute" format="1">
  <advance width="1300"/>
  <unicode hex="00B4"/>
  <outline>
    <contour>
      <point x="864" y="1500" type="line" name="at01"/>
      <point x="1098" y="1520" type="line"/>
      <point x="801" y="1200" type="line"/>
      <point x="651" y="1200" type="line" name="av01"/>
    </contour>
  </outline>
</glyph>
<glyph name="onesuperior" format="1">
  <advance width="1300"/>
  <unicode hex="00B9"/>
  <outline>
    <contour>
      <point x="148" y="720" type="line"/>
      <point x="162" y="800" type="line"/>
      <point x="284" y="800" type="line"/>
      <point x="369" y="1283" type="line"/>
      <point x="418" y="1396" type="line"/>
      <point x="334" y="1303" type="line"/>
      <point x="211" y="1209" type="line"/>
      <point x="168" y="1270" type="line"/>
      <point x="434" y="1480" type="line"/>
      <point x="502" y="1470" type="line"/>
      <point x="384" y="800" type="line"/>
      <point x="507" y="800" type="line"/>
      <point x="493" y="720" type="line"/>
    </contour>
  </outline>
</glyph>
<glyph name="ordmasculine" format="1">
  <advance width="1300"/>
  <unicode hex="00BA"/>
  <outline>
    <contour>
      <point x="241" y="800" type="line"/>
      <point x="641" y="800" type="line"/>
      <point x="623" y="700" type="line"/>
      <point x="223" y="700" type="line"/>
    </contour>
    <contour>
      <point x="426" y="950" type="qcurve"/>
      <point x="377" y="950"/>
      <point x="295" y="985"/>
      <point x="237" y="1049"/>
      <point x="205" y="1140"/>
      <point x="205" y="1195" type="qcurve"/>
      <point x="205" y="1267"/>
      <point x="249" y="1385"/>
      <point x="329" y="1470"/>
      <point x="439" y="1517"/>
      <point x="506" y="1517" type="qcurve"/>
      <point x="557" y="1517"/>
      <point x="640" y="1484"/>
      <point x="699" y="1422"/>
      <point x="731" y="1331"/>
      <point x="731" y="1274" type="qcurve"/>
      <point x="731" y="1200"/>
      <point x="688" y="1080"/>
      <point x="609" y="996"/>
      <point x="497" y="950"/>
    </contour>
    <contour>
      <point x="639" y="1270" type="qcurve"/>
      <point x="639" y="1307"/>
      <point x="621" y="1370"/>
      <point x="585" y="1415"/>
      <point x="532" y="1440"/>
      <point x="496" y="1440" type="qcurve"/>
      <point x="463" y="1440"/>
      <point x="408" y="1421"/>
      <point x="364" y="1387"/>
      <point x="330" y="1340"/>
      <point x="308" y="1287"/>
      <point x="296" y="1228"/>
      <point x="296" y="1199" type="qcurve"/>
      <point x="296" y="1161"/>
      <point x="313" y="1098"/>
      <point x="348" y="1053"/>
      <point x="400" y="1028"/>
      <point x="436" y="1028" type="qcurve"/>
      <point x="468" y="1028"/>
      <point x="523" y="1047"/>
      <point x="568" y="1082"/>
      <point x="603" y="1128"/>
      <point x="627" y="1182"/>
      <point x="639" y="1241"/>
    </contour>
  </outline>
</glyph>
<glyph name="guillemotright" format="1">
  <advance width="1300"/>
  <unicode hex="00BB"/>
  <outline>
    <contour>
      <point x="708" y="617" type="line"/>
      <point x="684" y="478" type="line"/>
      <point x="143" y="66" type="line" name="av01"/>
      <point x="113" y="201" type="line"/>
      <point x="492" y="490" type="line"/>
      <point x="639" y="550" type="line" name="iv01"/>
      <point x="512" y="610" type="line"/>
      <point x="238" y="901" type="line"/>
      <point x="310" y="1026" type="line" name="at01"/>
    </contour>
    <contour>
      <point x="1208" y="617" type="line"/>
      <point x="1184" y="478" type="line"/>
      <point x="643" y="66" type="line" name="av02"/>
      <point x="613" y="201" type="line"/>
      <point x="992" y="490" type="line"/>
      <point x="1139" y="550" type="line" name="iv02"/>
      <point x="1012" y="610" type="line"/>
      <point x="738" y="901" type="line"/>
      <point x="810" y="1026" type="line" name="at02"/>
    </contour>
  </outline>
</glyph>
<glyph name="onehalf" format="1">
  <advance width="1300"/>
  <unicode hex="00BD"/>
  <outline>
    <contour>
      <point x="354" y="0" type="line"/>
      <point x="219" y="0" type="line"/>
      <point x="994" y="1500" type="line"/>
      <point x="1120" y="1500" type="line"/>
    </contour>
    <contour>
      <point x="46" y="720" type="line"/>
      <point x="60" y="800" type="line"/>
      <point x="182" y="800" type="line"/>
      <point x="267" y="1283" type="line"/>
      <point x="316" y="1396" type="line"/>
      <point x="232" y="1303" type="line"/>
      <point x="109" y="1209" type="line"/>
      <point x="66" y="1270" type="line"/>
      <point x="332" y="1480" type="line"/>
      <point x="400" y="1470" type="line"/>
      <point x="282" y="800" type="line"/>
      <point x="405" y="800" type="line"/>
      <point x="391" y="720" type="line"/>
    </contour>
    <contour>
      <point x="708" y="0" type="line"/>
      <point x="723" y="84" type="line"/>
      <point x="757" y="133"/>
      <point x="829" y="214"/>
      <point x="901" y="283"/>
      <point x="972" y="342"/>
      <point x="1005" y="369" type="qcurve"/>
      <point x="1035" y="393"/>
      <point x="1089" y="440"/>
      <point x="1130" y="486"/>
      <point x="1154" y="535"/>
      <point x="1154" y="561" type="qcurve"/>
      <point x="1154" y="588"/>
      <point x="1140" y="631"/>
      <point x="1109" y="660"/>
      <point x="1059" y="676"/>
      <point x="1022" y="676" type="qcurve"/>
      <point x="998" y="676"/>
      <point x="958" y="659"/>
      <point x="924" y="632"/>
      <point x="896" y="598"/>
      <point x="886" y="580" type="qcurve"/>
      <point x="821" y="610" type="line"/>
      <point x="854" y="681"/>
      <point x="972" y="758"/>
      <point x="1049" y="758" type="qcurve"/>
      <point x="1054" y="758"/>
      <point x="1063" y="758"/>
      <point x="1068" y="758" type="qcurve"/>
      <point x="1114" y="755"/>
      <point x="1180" y="720"/>
      <point x="1224" y="666"/>
      <point x="1245" y="599"/>
      <point x="1245" y="564" type="qcurve"/>
      <point x="1245" y="561"/>
      <point x="1244" y="555"/>
      <point x="1244" y="552" type="qcurve"/>
      <point x="1242" y="512"/>
      <point x="1205" y="444"/>
      <point x="1151" y="383"/>
      <point x="1087" y="329"/>
      <point x="1059" y="303" type="qcurve"/>
      <point x="1023" y="271"/>
      <point x="958" y="214"/>
      <point x="903" y="160"/>
      <point x="857" y="107"/>
      <point x="839" y="80" type="qcurve"/>
      <point x="1174" y="80" type="line"/>
      <point x="1160" y="0" type="line"/>
    </contour>
  </outline>
</glyph>
<glyph name="Aacute" format="1">
  <advance width="1300"/>
  <unicode hex="00C1"/>
  <outline>
    <contour>
      <point x="18" y="0" type="line" name="ab01"/>
      <point x="719" y="1300" type="line"/>
      <point x="789" y="1500" type="line"/>
      <point x="971" y="1520" type="line" name="at01"/>
      <point x="1250" y="0" type="line" name="sv01"/>
      <point x="1050" y="0" type="line"/>
      <point x="982" y="450" type="line" name="sv02"/>
      <point x="447" y="450" type="line" name="av01"/>
      <point x="201" y="0" type="line"/>
    </contour>
    <contour>
      <point x="877" y="1400" type="line"/>
      <point x="776" y="1080" type="line"/>
      <point x="522" y="600" type="line"/>
      <point x="959" y="600" type="line"/>
      <point x="866" y="1080" type="line"/>
    </contour>
    <contour>
      <point x="1048" y="1900" type="line" name="at02"/>
      <point x="1282" y="1920" type="line"/>
      <point x="985" y="1600" type="line"/>
      <point x="835" y="1600" type="line" name="av02"/>
    </contour>
  </outline>
</glyph>
<glyph name="Acircumflex" format="1">
  <advance width="1300"/>
  <unicode hex="00C2"/>
  <outline>
    <contour>
      <point x="18" y="0" type="line" name="ab01"/>
      <point x="719" y="1300" type="line"/>
      <point x="789" y="1500" type="line"/>
      <point x="971" y="1520" type="line" name="at01"/>
      <point x="1250" y="0" type="line" name="sv01"/>
      <point x="1050" y="0" type="line"/>
      <point x="982" y="450" type="line" name="sv02"/>
      <point x="447" y="450" type="line" name="av01"/>
      <point x="201" y="0" type="line"/>
    </contour>
    <contour>
      <point x="877" y="1400" type="line"/>
      <point x="776" y="1080" type="line"/>
      <point x="522" y="600" type="line"/>
      <point x="959" y="600" type="line"/>
      <point x="866" y="1080" type="line"/>
    </contour>
    <contour>
      <point x="1173" y="1620" type="line" name="sv03"/>
      <point x="1023" y="1620" type="line"/>
      <point x="949" y="1772" type="line"/>
      <point x="935" y="1860" type="line"/>
      <point x="890" y="1773" type="line"/>
      <point x="762" y="1620" type="line"/>
      <point x="612" y="1620" type="line" name="av02"/>
      <point x="837" y="1900" type="line"/>
      <point x="1041" y="1920" type="line"/>
    </contour>
  </outline>
</glyph>
<glyph name="Atilde" format="1">
  <advance width="1300"/>
  <unicode hex="00C3"/>
  <outline>
    <contour>
      <point x="18" y="0" type="line" name="ab01"/>
      <point x="719" y="1300" type="line"/>
      <point x="789" y="1500" type="line"/>
      <point x="971" y="1520" type="line" name="at01"/>
      <point x="1250" y="0" type="line" name="sv01"/>
      <point x="1050" y="0" type="line"/>
      <point x="982" y="450" type="line" name="sv02"/>
      <point x="447" y="450" type="line" name="av01"/>
      <point x="201" y="0" type="line"/>
    </contour>
    <contour>
      <point x="877" y="1400" type="line"/>
      <point x="776" y="1080" type="line"/>
      <point x="522" y="600" type="line"/>
      <point x="959" y="600" type="line"/>
      <point x="866" y="1080" type="line"/>
    </contour>
    <contour>
      <point x="566" y="1616" type="line"/>
      <point x="578" y="1671"/>
      <point x="626" y="1753"/>
      <point x="686" y="1806"/>
      <point x="753" y="1829"/>
      <point x="785" y="1825" type="qcurve"/>
      <point x="824" y="1819"/>
      <point x="886" y="1790"/>
      <point x="943" y="1759"/>
      <point x="998" y="1735"/>
      <point x="1029" y="1735" type="qcurve"/>
      <point x="1057" y="1735"/>
      <point x="1096" y="1756"/>
      <point x="1122" y="1788"/>
      <point x="1136" y="1825"/>
      <point x="1140" y="1842" type="qcurve"/>
      <point x="1235" y="1839" type="line"/>
      <point x="1229" y="1791"/>
      <point x="1183" y="1702"/>
      <point x="1118" y="1638"/>
      <point x="1039" y="1605"/>
      <point x="1000" y="1612" type="qcurve"/>
      <point x="972" y="1617"/>
      <point x="916" y="1650"/>
      <point x="857" y="1684"/>
      <point x="793" y="1706"/>
      <point x="757" y="1701" type="qcurve"/>
      <point x="719" y="1696"/>
      <point x="666" y="1658"/>
      <point x="651" y="1613" type="qcurve"/>
    </contour>
  </outline>
</glyph>
<glyph name="Aring" format="1">
  <advance width="1300"/>
  <unicode hex="00C5"/>
  <outline>
    <contour>
      <point x="18" y="0" type="line" name="ab01"/>
      <point x="719" y="1300" type="line"/>
      <point x="789" y="1500" type="line"/>
      <point x="971" y="1520" type="line" name="at01"/>
      <point x="1250" y="0" type="line" name="sv01"/>
      <point x="1050" y="0" type="line"/>
      <point x="982" y="450" type="line" name="sv02"/>
      <point x="447" y="450" type="line" name="av01"/>
      <point x="201" y="0" type="line"/>
    </contour>
    <contour>
      <point x="877" y="1400" type="line"/>
      <point x="776" y="1080" type="line"/>
      <point x="522" y="600" type="line"/>
      <point x="959" y="600" type="line"/>
      <point x="866" y="1080" type="line"/>
    </contour>
    <contour>
      <point x="968" y="1881" type="qcurve" name="av02"/>
      <point x="1016" y="1873"/>
      <point x="1091" y="1830"/>
      <point x="1141" y="1767"/>
      <point x="1165" y="1688"/>
      <point x="1163" y="1644" type="qcurve"/>
      <point x="1160" y="1587"/>
      <point x="1111" y="1496"/>
      <point x="1034" y="1433"/>
      <point x="937" y="1401"/>
      <point x="886" y="1403" type="qcurve" name="av03"/>
      <point x="842" y="1404"/>
      <point x="767" y="1445"/>
      <point x="713" y="1511"/>
      <point x="685" y="1597"/>
      <point x="688" y="1644" type="qcurve"/>
      <point x="691" y="1694"/>
      <point x="740" y="1787"/>
      <point x="818" y="1855"/>
      <point x="917" y="1889"/>
    </contour>
    <contour>
      <point x="905" y="1520" type="qcurve"/>
      <point x="929" y="1515"/>
      <point x="980" y="1529"/>
      <point x="1023" y="1562"/>
      <point x="1049" y="1612"/>
      <point x="1047" y="1643" type="qcurve"/>
      <point x="1044" y="1695"/>
      <point x="997" y="1754"/>
      <point x="947" y="1764" type="qcurve"/>
      <point x="921" y="1769"/>
      <point x="870" y="1752"/>
      <point x="829" y="1717"/>
      <point x="804" y="1669"/>
      <point x="805" y="1643" type="qcurve"/>
      <point x="808" y="1541"/>
    </contour>
  </outline>
</glyph>
<glyph name="AE" format="1">
  <advance width="1300"/>
  <unicode hex="00C6"/>
  <outline>
    <contour>
      <point x="1300" y="160" type="line"/>
      <point x="1252" y="0" type="line" name="sv01"/>
      <point x="546" y="0" type="line"/>
      <point x="598" y="200" type="line"/>
      <point x="642" y="450" type="line"/>
      <point x="347" y="450" type="line"/>
      <point x="113" y="0" type="line"/>
      <point x="-103" y="0" type="line" name="ab01"/>
      <point x="575" y="1300" type="line"/>
      <point x="655" y="1500" type="line" name="at01"/>
      <point x="1400" y="1500" type="line" name="sv02"/>
      <point x="1372" y="1340" type="line"/>
      <point x="986" y="1340" type="line"/>
      <point x="974" y="1149" type="line"/>
      <point x="927" y="885" type="line" name="av02"/>
      <point x="1252" y="885" type="line" name="sv03"/>
      <point x="1227" y="740" type="line"/>
      <point x="902" y="740" type="line"/>
      <point x="831" y="340" type="line"/>
      <point x="789" y="160" type="line"/>
    </contour>
    <contour>
      <point x="669" y="600" type="line" name="sv04"/>
      <point x="757" y="1106" type="line"/>
      <point x="758" y="1340" type="line"/>
      <point x="662" y="1099" type="line"/>
      <point x="415" y="600" type="line" name="av01"/>
    </contour>
  </outline>
</glyph>
<glyph name="Ccedilla" format="1">
  <advance width="1300"/>
  <unicode hex="00C7"/>
  <outline>
    <contour>
      <point x="998" y="95" type="line"/>
      <point x="978" y="81"/>
      <point x="906" y="43"/>
      <point x="802" y="8"/>
      <point x="664" y="-17"/>
      <point x="577" y="-17" type="qcurve" name="ab01"/>
      <point x="458" y="-17"/>
      <point x="281" y="78"/>
      <point x="164" y="247"/>
      <point x="106" y="479"/>
      <point x="106" y="616" type="qcurve"/>
      <point x="106" y="738"/>
      <point x="149" y="967"/>
      <point x="233" y="1167"/>
      <point x="357" y="1333"/>
      <point x="519" y="1451"/>
      <point x="718" y="1517"/>
      <point x="835" y="1517" type="qcurve" name="at01"/>
      <point x="1078" y="1517"/>
      <point x="1210" y="1385" type="qcurve"/>
      <point x="1112" y="1263" type="line"/>
      <point x="1050" y="1306"/>
      <point x="917" y="1341"/>
      <point x="829" y="1341" type="qcurve"/>
      <point x="735" y="1341"/>
      <point x="585" y="1283"/>
      <point x="469" y="1180"/>
      <point x="385" y="1039"/>
      <point x="332" y="876"/>
      <point x="307" y="696"/>
      <point x="307" y="605" type="qcurve"/>
      <point x="307" y="518"/>
      <point x="332" y="355"/>
      <point x="402" y="229"/>
      <point x="530" y="153"/>
      <point x="632" y="153" type="qcurve"/>
      <point x="677" y="153"/>
      <point x="759" y="165"/>
      <point x="837" y="189"/>
      <point x="915" y="224"/>
      <point x="956" y="247" type="qcurve"/>
    </contour>
    <contour>
      <point x="648" y="0" type="line" name="sv01"/>
      <point x="666" y="-27"/>
      <point x="678" y="-59" type="qcurve"/>
      <point x="689" y="-86"/>
      <point x="701" y="-158"/>
      <point x="696" y="-198" type="qcurve"/>
      <point x="689" y="-248"/>
      <point x="643" y="-326"/>
      <point x="574" y="-379"/>
      <point x="485" y="-407"/>
      <point x="435" y="-407" type="qcurve" name="sv02"/>
      <point x="393" y="-407"/>
      <point x="306" y="-380"/>
      <point x="270" y="-363" type="qcurve"/>
      <point x="228" y="-344"/>
      <point x="189" y="-318" type="qcurve"/>
      <point x="278" y="-218" type="line"/>
      <point x="301" y="-235"/>
      <point x="327" y="-248" type="qcurve"/>
      <point x="349" y="-259"/>
      <point x="404" y="-279"/>
      <point x="433" y="-279" type="qcurve" name="av01"/>
      <point x="476" y="-280"/>
      <point x="536" y="-238"/>
      <point x="544" y="-189" type="qcurve"/>
      <point x="549" y="-156"/>
      <point x="529" y="-88"/>
      <point x="514" y="-61" type="qcurve"/>
      <point x="496" y="-29"/>
      <point x="472" y="0" type="qcurve" name="ab02"/>
    </contour>
  </outline>
</glyph>
<glyph name="Edieresis" format="1">
  <advance width="1300"/>
  <unicode hex="00CB"/>
  <outline>
    <contour>
      <point x="1040" y="160" type="line"/>
      <point x="992" y="0" type="line" name="sv01"/>
      <point x="72" y="0" type="line" name="ab01"/>
      <point x="123" y="200" type="line"/>
      <point x="315" y="1290" type="line"/>
      <point x="322" y="1500" type="line" name="at01"/>
      <point x="1242" y="1500" type="line" name="sv02"/>
      <point x="1214" y="1340" type="line"/>
      <point x="489" y="1340" type="line"/>
      <point x="475" y="1150" type="line"/>
      <point x="428" y="885" type="line"/>
      <point x="1063" y="885" type="line"/>
      <point x="1038" y="740" type="line" name="sv03"/>
      <point x="403" y="740" type="line" name="av01"/>
      <point x="332" y="340" type="line"/>
      <point x="290" y="160" type="line"/>
    </contour>
    <contour>
      <point x="714" y="1800" type="line"/>
      <point x="914" y="1800" type="line"/>
      <point x="879" y="1600" type="line"/>
      <point x="679" y="1600" type="line"/>
    </contour>
    <contour>
      <point x="1114" y="1800" type="line"/>
      <point x="1314" y="1800" type="line"/>
      <point x="1279" y="1600" type="line"/>
      <point x="1079" y="1600" type="line"/>
    </contour>
  </outline>
</glyph>
<glyph name="Igrave" format="1">
  <advance width="1300"/>
  <unicode hex="00CC"/>
  <outline>
    <contour>
      <point x="338" y="1500" type="line" name="at01"/>
      <point x="1238" y="1500" type="line" name="sv01"/>
      <point x="1210" y="1340" type="line"/>
      <point x="852" y="1340" type="line"/>
      <point x="643" y="160" type="line"/>
      <point x="1021" y="160" type="line"/>
      <point x="973" y="0" type="line" name="sv02"/>
      <point x="73" y="0" type="line" name="ab01"/>
      <point x="101" y="160" type="line"/>
      <point x="457" y="160" type="line"/>
      <point x="666" y="1340" type="line"/>
      <point x="290" y="1340" type="line"/>
    </contour>
    <contour>
      <point x="929" y="1600" type="line" name="ah01"/>
      <point x="779" y="1600" type="line" name="sh01"/>
      <point x="607" y="1900" type="line"/>
      <point x="815" y="1920" type="line" name="at02"/>
    </contour>
  </outline>
</glyph>
<glyph name="Idieresis" format="1">
  <advance width="1300"/>
  <unicode hex="00CF"/>
  <outline>
    <contour>
      <point x="338" y="1500" type="line" name="at01"/>
      <point x="1238" y="1500" type="line" name="sv01"/>
      <point x="1210" y="1340" type="line"/>
      <point x="852" y="1340" type="line"/>
      <point x="643" y="160" type="line"/>
      <point x="1021" y="160" type="line"/>
      <point x="973" y="0" type="line" name="sv02"/>
      <point x="73" y="0" type="line" name="ab01"/>
      <point x="101" y="160" type="line"/>
      <point x="457" y="160" type="line"/>
      <point x="666" y="1340" type="line"/>
      <point x="290" y="1340" type="line"/>
    </contour>
    <contour>
      <point x="580" y="1900" type="line"/>
      <point x="780" y="1900" type="line"/>
      <point x="745" y="1700" type="line"/>
      <point x="545" y="1700" type="line"/>
    </contour>
    <contour>
      <point x="980" y="1900" type="line"/>
      <point x="1180" y="1900" type="line"/>
      <point x="1145" y="1700" type="line"/>
      <point x="945" y="1700" type="line"/>
    </contour>
  </outline>
</glyph>
<glyph name="Eth" format="1">
  <advance width="1300"/>
  <unicode hex="00D0"/>
  <outline>
    <contour>
      <point x="50" y="856" type="line"/>
      <point x="649" y="856" type="line"/>
      <point x="622" y="701" type="line"/>
      <point x="23" y="701" type="line"/>
    </contour>
    <contour>
      <point x="294" y="1500" type="line"/>
      <point x="325" y="1503"/>
      <point x="407" y="1507"/>
      <point x="494" y="1510"/>
      <point x="578" y="1511"/>
      <point x="611" y="1511" type="qcurve"/>
      <point x="756" y="1511"/>
      <point x="985" y="1447"/>
      <point x="1144" y="1308"/>
      <point x="1228" y="1089"/>
      <point x="1228" y="933" type="qcurve"/>
      <point x="1228" y="772"/>
      <point x="1161" y="509"/>
      <point x="1040" y="302"/>
      <point x="873" y="149"/>
      <point x="675" y="49"/>
      <point x="452" y="0"/>
      <point x="336" y="0" type="qcurve"/>
      <point x="60" y="0" type="line"/>
      <point x="287" y="1290" type="line"/>
    </contour>
    <contour>
      <point x="462" y="1150" type="line"/>
      <point x="450" y="1083"/>
      <point x="427" y="953" type="qcurve"/>
      <point x="417" y="897"/>
      <point x="391" y="747"/>
      <point x="357" y="552"/>
      <point x="314" y="309"/>
      <point x="288" y="160" type="qcurve"/>
      <point x="308" y="160" type="line"/>
      <point x="451" y="160"/>
      <point x="671" y="226"/>
      <point x="834" y="340"/>
      <point x="944" y="493"/>
      <point x="1010" y="667"/>
      <point x="1039" y="855"/>
      <point x="1039" y="946" type="qcurve"/>
      <point x="1039" y="1036"/>
      <point x="994" y="1188"/>
      <point x="887" y="1297"/>
      <point x="711" y="1358"/>
      <point x="580" y="1358" type="qcurve"/>
      <point x="564" y="1358"/>
      <point x="528" y="1356"/>
      <point x="511" y="1354" type="qcurve"/>
      <point x="492" y="1352"/>
      <point x="473" y="1350" type="qcurve"/>
    </contour>
  </outline>
</glyph>
<glyph name="Otilde" format="1">
  <advance width="1300"/>
  <unicode hex="00D5"/>
  <outline>
    <contour>
      <point x="488" y="-17" type="qcurve" name="ab01"/>
      <point x="398" y="-17"/>
      <point x="256" y="38"/>
      <point x="152" y="139"/>
      <point x="84" y="279"/>
      <point x="52" y="450"/>
      <point x="55" y="645"/>
      <point x="74" y="750" type="qcurve"/>
      <point x="92" y="855"/>
      <point x="157" y="1050"/>
      <point x="248" y="1221"/>
      <point x="363" y="1361"/>
      <point x="503" y="1462"/>
      <point x="667" y="1517"/>
      <point x="759" y="1517" type="qcurve" name="at01"/>
      <point x="849" y="1517"/>
      <point x="991" y="1462"/>
      <point x="1095" y="1361"/>
      <point x="1163" y="1221"/>
      <point x="1195" y="1050"/>
      <point x="1192" y="855"/>
      <point x="1174" y="750" type="qcurve"/>
      <point x="1155" y="645"/>
      <point x="1090" y="450"/>
      <point x="1000" y="279"/>
      <point x="884" y="139"/>
      <point x="744" y="38"/>
      <point x="580" y="-17"/>
    </contour>
    <contour>
      <point x="960" y="719" type="qcurve"/>
      <point x="972" y="789"/>
      <point x="989" y="935"/>
      <point x="987" y="1074"/>
      <point x="960" y="1197"/>
      <point x="899" y="1288"/>
      <point x="798" y="1342"/>
      <point x="722" y="1342" type="qcurve"/>
      <point x="650" y="1342"/>
      <point x="536" y="1294"/>
      <point x="446" y="1211"/>
      <point x="380" y="1100"/>
      <point x="331" y="976"/>
      <point x="299" y="846"/>
      <point x="288" y="785" type="qcurve"/>
      <point x="275" y="714"/>
      <point x="259" y="566"/>
      <point x="261" y="427"/>
      <point x="287" y="304"/>
      <point x="348" y="212"/>
      <point x="449" y="158"/>
      <point x="525" y="158" type="qcurve"/>
      <point x="596" y="158"/>
      <point x="710" y="207"/>
      <point x="800" y="292"/>
      <point x="867" y="403"/>
      <point x="916" y="528"/>
      <point x="949" y="658"/>
    </contour>
    <contour>
      <point x="516" y="1655" type="line"/>
      <point x="528" y="1710"/>
      <point x="576" y="1792"/>
      <point x="636" y="1845"/>
      <point x="703" y="1868"/>
      <point x="735" y="1864" type="qcurve"/>
      <point x="774" y="1858"/>
      <point x="836" y="1829"/>
      <point x="893" y="1798"/>
      <point x="948" y="1774"/>
      <point x="979" y="1774" type="qcurve"/>
      <point x="1007" y="1774"/>
      <point x="1046" y="1795"/>
      <point x="1072" y="1827"/>
      <point x="1086" y="1864"/>
      <point x="1090" y="1881" type="qcurve"/>
      <point x="1185" y="1878" type="line"/>
      <point x="1179" y="1830"/>
      <point x="1133" y="1741"/>
      <point x="1068" y="1677"/>
      <point x="989" y="1644"/>
      <point x="950" y="1651" type="qcurve"/>
      <point x="922" y="1656"/>
      <point x="866" y="1689"/>
      <point x="807" y="1723"/>
      <point x="743" y="1745"/>
      <point x="707" y="1740" type="qcurve"/>
      <point x="669" y="1735"/>
      <point x="616" y="1697"/>
      <point x="601" y="1652" type="qcurve"/>
    </contour>
  </outline>
</glyph>
<glyph name="Odieresis" format="1">
  <advance width="1300"/>
  <unicode hex="00D6"/>
  <outline>
    <contour>
      <point x="488" y="-17" type="qcurve" name="ab01"/>
      <point x="398" y="-17"/>
      <point x="256" y="38"/>
      <point x="152" y="139"/>
      <point x="84" y="279"/>
      <point x="52" y="450"/>
      <point x="55" y="645"/>
      <point x="74" y="750" type="qcurve"/>
      <point x="92" y="855"/>
      <point x="157" y="1050"/>
      <point x="248" y="1221"/>
      <point x="363" y="1361"/>
      <point x="503" y="1462"/>
      <point x="667" y="1517"/>
      <point x="759" y="1517" type="qcurve" name="at01"/>
      <point x="849" y="1517"/>
      <point x="991" y="1462"/>
      <point x="1095" y="1361"/>
      <point x="1163" y="1221"/>
      <point x="1195" y="1050"/>
      <point x="1192" y="855"/>
      <point x="1174" y="750" type="qcurve"/>
      <point x="1155" y="645"/>
      <point x="1090" y="450"/>
      <point x="1000" y="279"/>
      <point x="884" y="139"/>
      <point x="744" y="38"/>
      <point x="580" y="-17"/>
    </contour>
    <contour>
      <point x="960" y="719" type="qcurve"/>
      <point x="972" y="789"/>
      <point x="989" y="935"/>
      <point x="987" y="1074"/>
      <point x="960" y="1197"/>
      <point x="899" y="1288"/>
      <point x="798" y="1342"/>
      <point x="722" y="1342" type="qcurve"/>
      <point x="650" y="1342"/>
      <point x="536" y="1294"/>
      <point x="446" y="1211"/>
      <point x="380" y="1100"/>
      <point x="331" y="976"/>
      <point x="299" y="846"/>
      <point x="288" y="785" type="qcurve"/>
      <point x="275" y="714"/>
      <point x="259" y="566"/>
      <point x="261" y="427"/>
      <point x="287" y="304"/>
      <point x="348" y="212"/>
      <point x="449" y="158"/>
      <point x="525" y="158" type="qcurve"/>
      <point x="596" y="158"/>
      <point x="710" y="207"/>
      <point x="800" y="292"/>
      <point x="867" y="403"/>
      <point x="916" y="528"/>
      <point x="949" y="658"/>
    </contour>
    <contour>
      <point x="552" y="1800" type="line"/>
      <point x="752" y="1800" type="line"/>
      <point x="717" y="1600" type="line"/>
      <point x="517" y="1600" type="line"/>
    </contour>
    <contour>
      <point x="952" y="1800" type="line"/>
      <point x="1152" y="1800" type="line"/>
      <point x="1117" y="1600" type="line"/>
      <point x="917" y="1600" type="line"/>
    </contour>
  </outline>
</glyph>
<glyph name="germandbls" format="1">
  <advance width="1300"/>
  <unicode hex="00DF"/>
  <outline>
    <contour>
      <point x="950" y="1148" type="qcurve"/>
      <point x="956" y="1196"/>
      <point x="928" y="1275"/>
      <point x="875" y="1334"/>
      <point x="805" y="1367"/>
      <point x="769" y="1369" type="qcurve"/>
      <point x="691" y="1372"/>
      <point x="599" y="1340"/>
      <point x="567" y="1304" type="qcurve"/>
      <point x="539" y="1273"/>
      <point x="510" y="1205"/>
      <point x="502" y="1160" type="qcurve"/>
      <point x="295" y="-17" type="line" name="ab01"/>
      <point x="100" y="0" type="line"/>
      <point x="295" y="1111" type="line"/>
      <point x="329" y="1306"/>
      <point x="453" y="1418" type="qcurve"/>
      <point x="481" y="1443"/>
      <point x="540" y="1480"/>
      <point x="619" y="1505"/>
      <point x="724" y="1517"/>
      <point x="798" y="1517" type="qcurve" name="at01"/>
      <point x="880" y="1517"/>
      <point x="1011" y="1464"/>
      <point x="1100" y="1371"/>
      <point x="1142" y="1244"/>
      <point x="1135" y="1169" type="qcurve" name="iv02"/>
      <point x="1129" y="1106"/>
      <point x="1092" y="1010"/>
      <point x="1031" y="935"/>
      <point x="949" y="881"/>
      <point x="899" y="860" type="qcurve"/>
      <point x="737" y="816" type="line" name="iv01"/>
      <point x="882" y="802" type="line"/>
      <point x="940" y="784"/>
      <point x="1035" y="723"/>
      <point x="1097" y="638"/>
      <point x="1122" y="527"/>
      <point x="1111" y="460" type="qcurve" name="iv03"/>
      <point x="1102" y="366"/>
      <point x="1038" y="225"/>
      <point x="944" y="123"/>
      <point x="825" y="56"/>
      <point x="695" y="16"/>
      <point x="560" y="0"/>
      <point x="498" y="0" type="qcurve" name="ab02"/>
      <point x="466" y="160" type="line"/>
      <point x="565" y="160"/>
      <point x="723" y="183"/>
      <point x="838" y="247"/>
      <point x="908" y="360"/>
      <point x="919" y="450" type="qcurve"/>
      <point x="936" y="591"/>
      <point x="769" y="730"/>
      <point x="606" y="730" type="qcurve"/>
      <point x="564" y="885" type="line"/>
      <point x="628" y="885"/>
      <point x="758" y="910"/>
      <point x="866" y="971"/>
      <point x="941" y="1072"/>
    </contour>
  </outline>
</glyph>
<glyph name="ae" format="1">
  <advance width="1300"/>
  <unicode hex="00E6"/>
  <outline>
    <contour>
      <point x="1262" y="650" type="qcurve"/>
      <point x="1259" y="631"/>
      <point x="1248" y="588"/>
      <point x="1235" y="546"/>
      <point x="1222" y="510"/>
      <point x="1216" y="500" type="qcurve"/>
      <point x="736" y="500" type="line"/>
      <point x="722" y="425"/>
      <point x="722" y="295"/>
      <point x="750" y="198"/>
      <point x="808" y="143"/>
      <point x="853" y="143" type="qcurve"/>
      <point x="891" y="143"/>
      <point x="956" y="162"/>
      <point x="1007" y="188"/>
      <point x="1041" y="216"/>
      <point x="1049" y="225" type="qcurve"/>
      <point x="1161" y="129" type="line"/>
      <point x="1131" y="99"/>
      <point x="1068" y="46"/>
      <point x="990" y="6"/>
      <point x="890" y="-17"/>
      <point x="823" y="-17" type="qcurve"/>
      <point x="770" y="-17"/>
      <point x="683" y="16"/>
      <point x="618" y="72"/>
      <point x="579" y="147"/>
      <point x="574" y="189" type="qcurve"/>
      <point x="550" y="147"/>
      <point x="497" y="72"/>
      <point x="428" y="16"/>
      <point x="340" y="-17"/>
      <point x="281" y="-17" type="qcurve"/>
      <point x="213" y="-17"/>
      <point x="103" y="30"/>
      <point x="31" y="121"/>
      <point x="3" y="256"/>
      <point x="18" y="344" type="qcurve"/>
      <point x="34" y="437"/>
      <point x="102" y="574"/>
      <point x="198" y="665"/>
      <point x="319" y="710"/>
      <point x="388" y="710" type="qcurve"/>
      <point x="426" y="710"/>
      <point x="483" y="698"/>
      <point x="501" y="690" type="qcurve"/>
      <point x="522" y="681"/>
      <point x="536" y="670" type="qcurve"/>
      <point x="542" y="705" type="line"/>
      <point x="552" y="764"/>
      <point x="565" y="858"/>
      <point x="553" y="923"/>
      <point x="508" y="957"/>
      <point x="461" y="957" type="qcurve"/>
      <point x="428" y="957"/>
      <point x="363" y="939"/>
      <point x="337" y="928" type="qcurve"/>
      <point x="306" y="916"/>
      <point x="279" y="900" type="qcurve"/>
      <point x="227" y="1044" type="line"/>
      <point x="272" y="1064"/>
      <point x="324" y="1080" type="qcurve"/>
      <point x="369" y="1094"/>
      <point x="484" y="1117"/>
      <point x="549" y="1117" type="qcurve"/>
      <point x="591" y="1117"/>
      <point x="653" y="1092"/>
      <point x="694" y="1049"/>
      <point x="716" y="993"/>
      <point x="720" y="962" type="qcurve"/>
      <point x="735" y="993"/>
      <point x="786" y="1049"/>
      <point x="858" y="1092"/>
      <point x="950" y="1117"/>
      <point x="1004" y="1117" type="qcurve"/>
      <point x="1101" y="1117"/>
      <point x="1221" y="1057"/>
      <point x="1279" y="939"/>
      <point x="1282" y="764"/>
    </contour>
    <contour>
      <point x="512" y="533" type="line"/>
      <point x="505" y="537"/>
      <point x="493" y="541" type="qcurve"/>
      <point x="482" y="544"/>
      <point x="449" y="550"/>
      <point x="426" y="550" type="qcurve"/>
      <point x="333" y="550"/>
      <point x="218" y="457"/>
      <point x="198" y="345" type="qcurve"/>
      <point x="190" y="300"/>
      <point x="194" y="226"/>
      <point x="222" y="172"/>
      <point x="276" y="143"/>
      <point x="317" y="143" type="qcurve"/>
      <point x="357" y="143"/>
      <point x="413" y="183"/>
      <point x="431" y="208" type="qcurve"/>
      <point x="452" y="237"/>
      <point x="466" y="274" type="qcurve"/>
    </contour>
    <contour>
      <point x="1098" y="730" type="line"/>
      <point x="1106" y="776"/>
      <point x="1112" y="859"/>
      <point x="1094" y="921"/>
      <point x="1047" y="957"/>
      <point x="1002" y="957" type="qcurve"/>
      <point x="953" y="957"/>
      <point x="876" y="918"/>
      <point x="819" y="855"/>
      <point x="783" y="774"/>
      <point x="776" y="732" type="qcurve"/>
      <point x="687" y="623" type="line"/>
      <point x="814" y="650" type="line"/>
      <point x="1084" y="650" type="line"/>
    </contour>
  </outline>
</glyph>
<glyph name="idieresis" format="1">
  <advance width="1300"/>
  <unicode hex="00EF"/>
  <outline>
    <contour>
      <point x="631" y="393" type="line"/>
      <point x="607" y="254"/>
      <point x="620" y="153"/>
      <point x="719" y="153" type="curve" smooth="yes"/>
      <point x="851" y="153"/>
      <point x="984" y="205"/>
      <point x="1000" y="210" type="curve"/>
      <point x="1012" y="56" type="line"/>
      <point x="995" y="48"/>
      <point x="855" y="-17"/>
      <point x="679" y="-17" type="curve" smooth="yes"/>
      <point x="418" y="-17"/>
      <point x="401" y="165"/>
      <point x="443" y="403" type="curve" smooth="yes"/>
      <point x="544" y="977" type="line"/>
      <point x="489" y="955" type="line"/>
      <point x="250" y="955" type="line"/>
      <point x="250" y="1100" type="line"/>
      <point x="756" y="1100" type="line"/>
      <point x="650" y="501" type="line"/>
    </contour>
    <contour>
      <point x="435" y="1500" type="line"/>
      <point x="635" y="1500" type="line"/>
      <point x="600" y="1300" type="line"/>
      <point x="400" y="1300" type="line"/>
    </contour>
    <contour>
      <point x="835" y="1500" type="line"/>
      <point x="1035" y="1500" type="line"/>
      <point x="1000" y="1300" type="line"/>
      <point x="800" y="1300" type="line"/>
    </contour>
  </outline>
</glyph>
<glyph name="otilde" format="1">
  <advance width="1300"/>
  <unicode hex="00F5"/>
  <outline>
    <contour>
      <point x="567" y="-17" type="qcurve" name="ab01"/>
      <point x="468" y="-17"/>
      <point x="305" y="53"/>
      <point x="188" y="181"/>
      <point x="124" y="362"/>
      <point x="124" y="473" type="qcurve"/>
      <point x="124" y="616"/>
      <point x="213" y="853"/>
      <point x="372" y="1023"/>
      <point x="593" y="1117"/>
      <point x="726" y="1117" type="qcurve" name="av01"/>
      <point x="828" y="1117"/>
      <point x="994" y="1051"/>
      <point x="1112" y="926"/>
      <point x="1176" y="745"/>
      <point x="1176" y="631" type="qcurve"/>
      <point x="1176" y="482"/>
      <point x="1091" y="242"/>
      <point x="933" y="74"/>
      <point x="708" y="-17"/>
    </contour>
    <contour>
      <point x="993" y="622" type="qcurve"/>
      <point x="993" y="697"/>
      <point x="957" y="822"/>
      <point x="885" y="913"/>
      <point x="778" y="963"/>
      <point x="706" y="963" type="qcurve"/>
      <point x="641" y="963"/>
      <point x="531" y="924"/>
      <point x="443" y="856"/>
      <point x="375" y="763"/>
      <point x="330" y="656"/>
      <point x="307" y="538"/>
      <point x="307" y="480" type="qcurve"/>
      <point x="307" y="405"/>
      <point x="341" y="279"/>
      <point x="410" y="188"/>
      <point x="515" y="138"/>
      <point x="586" y="138" type="qcurve"/>
      <point x="650" y="138"/>
      <point x="760" y="177"/>
      <point x="850" y="246"/>
      <point x="920" y="339"/>
      <point x="968" y="447"/>
      <point x="993" y="564"/>
    </contour>
    <contour>
      <point x="410" y="1275" type="line"/>
      <point x="422" y="1330"/>
      <point x="470" y="1412"/>
      <point x="530" y="1465"/>
      <point x="597" y="1488"/>
      <point x="629" y="1484" type="qcurve"/>
      <point x="668" y="1478"/>
      <point x="730" y="1449"/>
      <point x="787" y="1418"/>
      <point x="842" y="1394"/>
      <point x="873" y="1394" type="qcurve"/>
      <point x="901" y="1394"/>
      <point x="940" y="1415"/>
      <point x="966" y="1447"/>
      <point x="980" y="1484"/>
      <point x="984" y="1501" type="qcurve"/>
      <point x="1079" y="1498" type="line"/>
      <point x="1073" y="1450"/>
      <point x="1027" y="1361"/>
      <point x="962" y="1297"/>
      <point x="883" y="1264"/>
      <point x="844" y="1271" type="qcurve"/>
      <point x="816" y="1276"/>
      <point x="760" y="1309"/>
      <point x="701" y="1343"/>
      <point x="637" y="1365"/>
      <point x="601" y="1360" type="qcurve"/>
      <point x="563" y="1355"/>
      <point x="510" y="1317"/>
      <point x="495" y="1272" type="qcurve"/>
    </contour>
  </outline>
</glyph>
<glyph name="odieresis" format="1">
  <advance width="1300"/>
  <unicode hex="00F6"/>
  <outline>
    <contour>
      <point x="567" y="-17" type="qcurve" name="ab01"/>
      <point x="468" y="-17"/>
      <point x="305" y="53"/>
      <point x="188" y="181"/>
      <point x="124" y="362"/>
      <point x="124" y="473" type="qcurve"/>
      <point x="124" y="616"/>
      <point x="213" y="853"/>
      <point x="372" y="1023"/>
      <point x="593" y="1117"/>
      <point x="726" y="1117" type="qcurve" name="av01"/>
      <point x="828" y="1117"/>
      <point x="994" y="1051"/>
      <point x="1112" y="926"/>
      <point x="1176" y="745"/>
      <point x="1176" y="631" type="qcurve"/>
      <point x="1176" y="482"/>
      <point x="1091" y="242"/>
      <point x="933" y="74"/>
      <point x="708" y="-17"/>
    </contour>
    <contour>
      <point x="993" y="622" type="qcurve"/>
      <point x="993" y="697"/>
      <point x="957" y="822"/>
      <point x="885" y="913"/>
      <point x="778" y="963"/>
      <point x="706" y="963" type="qcurve"/>
      <point x="641" y="963"/>
      <point x="531" y="924"/>
      <point x="443" y="856"/>
      <point x="375" y="763"/>
      <point x="330" y="656"/>
      <point x="307" y="538"/>
      <point x="307" y="480" type="qcurve"/>
      <point x="307" y="405"/>
      <point x="341" y="279"/>
      <point x="410" y="188"/>
      <point x="515" y="138"/>
      <point x="586" y="138" type="qcurve"/>
      <point x="650" y="138"/>
      <point x="760" y="177"/>
      <point x="850" y="246"/>
      <point x="920" y="339"/>
      <point x="968" y="447"/>
      <point x="993" y="564"/>
    </contour>
    <contour>
      <point x="514" y="1500" type="line"/>
      <point x="714" y="1500" type="line"/>
      <point x="679" y="1300" type="line"/>
      <point x="479" y="1300" type="line"/>
    </contour>
    <contour>
      <point x="914" y="1500" type="line"/>
      <point x="1114" y="1500" type="line"/>
      <point x="1079" y="1300" type="line"/>
      <point x="879" y="1300" type="line"/>
    </contour>
  </outline>
</glyph>
<glyph name="udieresis" format="1">
  <advance width="1300"/>
  <unicode hex="00FC"/>
  <outline>
    <contour>
      <point x="967" y="1100" type="line"/>
      <point x="1161" y="1121" type="line" name="av02"/>
      <point x="963" y="0" type="line" name="sv01"/>
      <point x="773" y="0" type="line" name="ab02"/>
      <point x="802" y="163" type="line"/>
      <point x="722" y="56" type="line"/>
      <point x="698" y="42"/>
      <point x="652" y="16"/>
      <point x="589" y="-4"/>
      <point x="496" y="-17"/>
      <point x="425" y="-17" type="qcurve" name="ab01"/>
      <point x="356" y="-17"/>
      <point x="244" y="35"/>
      <point x="165" y="126"/>
      <point x="122" y="248"/>
      <point x="122" y="318" type="qcurve"/>
      <point x="122" y="338"/>
      <point x="125" y="380"/>
      <point x="129" y="401" type="qcurve"/>
      <point x="257" y="1100" type="line"/>
      <point x="451" y="1121" type="line" name="av01"/>
      <point x="319" y="401" type="line"/>
      <point x="315" y="381"/>
      <point x="312" y="344"/>
      <point x="312" y="326" type="qcurve"/>
      <point x="312" y="286"/>
      <point x="332" y="219"/>
      <point x="377" y="170"/>
      <point x="448" y="143"/>
      <point x="498" y="143" type="qcurve"/>
      <point x="564" y="143"/>
      <point x="661" y="163"/>
      <point x="735" y="196"/>
      <point x="792" y="237"/>
      <point x="819" y="258" type="qcurve"/>
    </contour>
    <contour>
      <point x="518" y="1500" type="line"/>
      <point x="718" y="1500" type="line"/>
      <point x="683" y="1300" type="line"/>
      <point x="483" y="1300" type="line"/>
    </contour>
    <contour>
      <point x="918" y="1500" type="line"/>
      <point x="1118" y="1500" type="line"/>
      <point x="1083" y="1300" type="line"/>
      <point x="883" y="1300" type="line"/>
    </contour>
  </outline>
</glyph>
<glyph name="OE" format="1">
  <advance width="1300"/>
  <unicode hex="0152"/>
  <outline>
    <contour>
      <point x="419" y="-17" type="line" name="ab02"/>
      <point x="305" y="-17"/>
      <point x="127" y="68"/>
      <point x="20" y="252"/>
      <point x="-7" y="544"/>
      <point x="29" y="750" type="qcurve"/>
      <point x="65" y="956"/>
      <point x="195" y="1247"/>
      <point x="367" y="1432"/>
      <point x="576" y="1517"/>
      <point x="690" y="1517" type="qcurve" name="at02"/>
      <point x="804" y="1430" type="line"/>
      <point x="807" y="1500" type="line" name="at01"/>
      <point x="1432" y="1500" type="line" name="sv01"/>
      <point x="1404" y="1340" type="line"/>
      <point x="989" y="1340" type="line"/>
      <point x="975" y="1150" type="line"/>
      <point x="928" y="885" type="line" name="av01"/>
      <point x="1253" y="885" type="line" name="sv02"/>
      <point x="1228" y="740" type="line"/>
      <point x="903" y="740" type="line"/>
      <point x="832" y="340" type="line"/>
      <point x="790" y="160" type="line"/>
      <point x="1230" y="160" type="line"/>
      <point x="1182" y="0" type="line" name="sv03"/>
      <point x="542" y="0" type="line" name="ab01"/>
      <point x="565" y="70" type="line"/>
    </contour>
    <contour>
      <point x="792" y="1305" type="line"/>
      <point x="769" y="1325"/>
      <point x="696" y="1347"/>
      <point x="654" y="1347" type="qcurve"/>
      <point x="504" y="1347"/>
      <point x="291" y="1060"/>
      <point x="243" y="785" type="qcurve"/>
      <point x="214" y="622"/>
      <point x="214" y="384"/>
      <point x="268" y="228"/>
      <point x="376" y="153"/>
      <point x="455" y="153" type="qcurve"/>
      <point x="475" y="153"/>
      <point x="509" y="156"/>
      <point x="542" y="163"/>
      <point x="576" y="178"/>
      <point x="596" y="190" type="qcurve"/>
    </contour>
  </outline>
</glyph>
<glyph name="Ydieresis" format="1">
  <advance width="1300"/>
  <unicode hex="0178"/>
  <outline>
    <contour>
      <point x="608" y="935" type="line"/>
      <point x="996" y="1500" type="line"/>
      <point x="1188" y="1500" type="line" name="sv01"/>
      <point x="602" y="646" type="line"/>
      <point x="489" y="0" type="line" name="sv02"/>
      <point x="289" y="0" type="line" name="ab01"/>
      <point x="402" y="645" type="line"/>
      <point x="117" y="1500" type="line" name="at01"/>
      <point x="325" y="1520" type="line" name="at02"/>
      <point x="503" y="954" type="line"/>
      <point x="538" y="705" type="line"/>
    </contour>
    <contour>
      <point x="462" y="1898" type="line"/>
      <point x="662" y="1898" type="line"/>
      <point x="627" y="1698" type="line"/>
      <point x="427" y="1698" type="line"/>
    </contour>
    <contour>
      <point x="862" y="1898" type="line"/>
      <point x="1062" y="1898" type="line"/>
      <point x="1027" y="1698" type="line"/>
      <point x="827" y="1698" type="line"/>
    </contour>
  </outline>
</glyph>
<glyph name="breve" format="1">
  <advance width="1300"/>
  <unicode hex="02D8"/>
  <outline>
    <contour>
      <point x="593" y="1519" type="line"/>
      <point x="582" y="1485"/>
      <point x="593" y="1458" type="qcurve"/>
      <point x="597" y="1446"/>
      <point x="617" y="1422"/>
      <point x="651" y="1402"/>
      <point x="703" y="1387"/>
      <point x="740" y="1383" type="qcurve" name="ih01"/>
      <point x="774" y="1379"/>
      <point x="828" y="1387"/>
      <point x="869" y="1405"/>
      <point x="899" y="1430"/>
      <point x="909" y="1444" type="qcurve"/>
      <point x="933" y="1476"/>
      <point x="941" y="1519" type="qcurve"/>
      <point x="1047" y="1519" type="line" name="ih03"/>
      <point x="1039" y="1437"/>
      <point x="1001" y="1375" type="qcurve"/>
      <point x="985" y="1349"/>
      <point x="937" y="1300"/>
      <point x="868" y="1265"/>
      <point x="776" y="1248"/>
      <point x="717" y="1253" type="qcurve" name="av01"/>
      <point x="629" y="1261"/>
      <point x="528" y="1306"/>
      <point x="477" y="1366"/>
      <point x="466" y="1430"/>
      <point x="473" y="1484"/>
      <point x="487" y="1519" name="ih02"/>
      <point x="486" y="1519" type="qcurve"/>
    </contour>
  </outline>
</glyph>
<glyph name="ogonek" format="1">
  <advance width="1300"/>
  <unicode hex="02DB"/>
  <outline>
    <contour>
      <point x="552" y="0" type="line" name="sv02"/>
      <point x="528" y="-29"/>
      <point x="510" y="-61" type="qcurve"/>
      <point x="495" y="-88"/>
      <point x="475" y="-156"/>
      <point x="480" y="-189" type="qcurve"/>
      <point x="488" y="-238"/>
      <point x="548" y="-280"/>
      <point x="591" y="-279" type="qcurve" name="sv01"/>
      <point x="620" y="-279"/>
      <point x="675" y="-259"/>
      <point x="697" y="-248" type="qcurve"/>
      <point x="723" y="-235"/>
      <point x="746" y="-218" type="qcurve" name="mh01"/>
      <point x="835" y="-318" type="line" name="mv01"/>
      <point x="796" y="-344"/>
      <point x="754" y="-363" type="qcurve"/>
      <point x="718" y="-380"/>
      <point x="631" y="-407"/>
      <point x="589" y="-407" type="qcurve" name="av01"/>
      <point x="539" y="-407"/>
      <point x="450" y="-379"/>
      <point x="381" y="-326"/>
      <point x="335" y="-248"/>
      <point x="328" y="-198" type="qcurve"/>
      <point x="323" y="-158"/>
      <point x="335" y="-86"/>
      <point x="346" y="-59" type="qcurve"/>
      <point x="358" y="-27"/>
      <point x="376" y="0" type="qcurve" name="ab01"/>
    </contour>
  </outline>
</glyph>
<glyph name="Gamma" format="1">
  <advance width="1300"/>
  <unicode hex="0393"/>
  <outline>
    <contour>
      <point x="502" y="1150" type="line"/>
      <point x="300" y="0" type="line" name="sv01"/>
      <point x="100" y="0" type="line" name="ab01"/>
      <point x="329" y="1300" type="line"/>
      <point x="347" y="1500" type="line" name="at01"/>
      <point x="1184" y="1500" type="line" name="sv02"/>
      <point x="1158" y="1350" type="line" name="sv03"/>
      <point x="523" y="1350" type="line"/>
    </contour>
  </outline>
</glyph>
<glyph name="Eta" format="1">
  <advance width="1300"/>
  <unicode hex="0397"/>
  <outline>
    <contour>
      <point x="786" y="0" type="line"/>
      <point x="913" y="725" type="line" name="sv01"/>
      <point x="371" y="725" type="line" name="av01"/>
      <point x="244" y="0" type="line"/>
      <point x="49" y="0" type="line" name="ab01"/>
      <point x="276" y="1290" type="line"/>
      <point x="284" y="1500" type="line" name="at01"/>
      <point x="512" y="1520" type="line" name="at02"/>
      <point x="400" y="885" type="line"/>
      <point x="942" y="885" type="line"/>
      <point x="1050" y="1500" type="line" name="sv02"/>
      <point x="1249" y="1520" type="line" name="at03"/>
      <point x="981" y="0" type="line" name="sv03"/>
    </contour>
  </outline>
</glyph>
<glyph name="Phi" format="1">
  <advance width="1300"/>
  <unicode hex="03A6"/>
  <outline>
    <contour>
      <point x="451" y="204" type="line"/>
      <point x="384" y="213"/>
      <point x="319" y="233" type="qcurve"/>
      <point x="254" y="256"/>
      <point x="135" y="340"/>
      <point x="49" y="466"/>
      <point x="7" y="638"/>
      <point x="19" y="750" type="qcurve" name="av01"/>
      <point x="32" y="867"/>
      <point x="119" y="1039"/>
      <point x="249" y="1161"/>
      <point x="412" y="1241"/>
      <point x="501" y="1266" type="qcurve"/>
      <point x="574" y="1288"/>
      <point x="644" y="1295" type="qcurve"/>
      <point x="680" y="1500" type="line"/>
      <point x="883" y="1520" type="line" name="at01"/>
      <point x="843" y="1295" type="line"/>
      <point x="878" y="1291"/>
      <point x="945" y="1277"/>
      <point x="977" y="1266" type="qcurve"/>
      <point x="1039" y="1244"/>
      <point x="1159" y="1161"/>
      <point x="1248" y="1034"/>
      <point x="1293" y="861"/>
      <point x="1279" y="750" type="qcurve" name="sv03"/>
      <point x="1253" y="543"/>
      <point x="1004" y="283"/>
      <point x="796" y="233" type="qcurve"/>
      <point x="650" y="204" type="line"/>
      <point x="612" y="-14" type="line" name="sv04"/>
      <point x="413" y="-14" type="line" name="ab01"/>
    </contour>
    <contour>
      <point x="678" y="361" type="line"/>
      <point x="755" y="365"/>
      <point x="902" y="423"/>
      <point x="1020" y="524"/>
      <point x="1095" y="664"/>
      <point x="1100" y="750" type="qcurve" name="sv02"/>
      <point x="1104" y="824"/>
      <point x="1082" y="946"/>
      <point x="1016" y="1042"/>
      <point x="902" y="1115"/>
      <point x="815" y="1139" type="qcurve"/>
    </contour>
    <contour>
      <point x="417" y="376" type="qcurve"/>
      <point x="432" y="373"/>
      <point x="463" y="364"/>
      <point x="479" y="361" type="qcurve"/>
      <point x="616" y="1139" type="line"/>
      <point x="542" y="1137"/>
      <point x="398" y="1084"/>
      <point x="281" y="985"/>
      <point x="203" y="842"/>
      <point x="197" y="750" type="qcurve" name="sv01"/>
      <point x="192" y="672"/>
      <point x="227" y="543"/>
      <point x="290" y="446"/>
      <point x="373" y="385"/>
    </contour>
  </outline>
</glyph>
<glyph name="Chi" format="1">
  <advance width="1300"/>
  <unicode hex="03A7"/>
  <outline>
    <contour>
      <point x="846" y="0" type="line"/>
      <point x="688" y="519" type="line"/>
      <point x="647" y="700" type="line"/>
      <point x="567" y="540" type="line"/>
      <point x="197" y="0" type="line"/>
      <point x="-1" y="0" type="line" name="ab01"/>
      <point x="569" y="799" type="line"/>
      <point x="320" y="1500" type="line" name="at01"/>
      <point x="536" y="1520" type="line" name="at02"/>
      <point x="682" y="1056" type="line"/>
      <point x="717" y="860" type="line"/>
      <point x="776" y="1020" type="line"/>
      <point x="1106" y="1500" type="line"/>
      <point x="1299" y="1500" type="line" name="sv01"/>
      <point x="786" y="776" type="line"/>
      <point x="1066" y="0" type="line" name="sv02"/>
    </contour>
  </outline>
</glyph>
<glyph name="Omegagreek" format="1">
  <advance width="1300"/>
  <unicode hex="03A9"/>
  <outline>
    <contour>
      <point x="56" y="160" type="line"/>
      <point x="203" y="160" type="line"/>
      <point x="343" y="100" type="line"/>
      <point x="224" y="239" type="line"/>
      <point x="199" y="268"/>
      <point x="168" y="374"/>
      <point x="158" y="515"/>
      <point x="169" y="683"/>
      <point x="185" y="775" type="qcurve"/>
      <point x="214" y="940"/>
      <point x="306" y="1213"/>
      <point x="457" y="1409"/>
      <point x="681" y="1517"/>
      <point x="842" y="1517" type="qcurve" name="at01"/>
      <point x="999" y="1517"/>
      <point x="1184" y="1409"/>
      <point x="1268" y="1213"/>
      <point x="1266" y="940"/>
      <point x="1237" y="775" type="qcurve"/>
      <point x="1221" y="684"/>
      <point x="1172" y="516"/>
      <point x="1113" y="375"/>
      <point x="1048" y="270"/>
      <point x="1016" y="242" type="qcurve"/>
      <point x="841" y="100" type="line"/>
      <point x="1002" y="160" type="line"/>
      <point x="1150" y="160" type="line"/>
      <point x="1122" y="0" type="line" name="sv01"/>
      <point x="674" y="0" type="line"/>
      <point x="709" y="200" type="line"/>
      <point x="788" y="249"/>
      <point x="893" y="359"/>
      <point x="963" y="490"/>
      <point x="1007" y="647"/>
      <point x="1024" y="744" type="qcurve"/>
      <point x="1045" y="864"/>
      <point x="1056" y="1082"/>
      <point x="1014" y="1248"/>
      <point x="905" y="1347"/>
      <point x="806" y="1347" type="qcurve" name="sv02"/>
      <point x="713" y="1347"/>
      <point x="577" y="1259"/>
      <point x="481" y="1111"/>
      <point x="419" y="917"/>
      <point x="400" y="810" type="qcurve"/>
      <point x="380" y="698"/>
      <point x="363" y="519"/>
      <point x="383" y="373"/>
      <point x="448" y="253"/>
      <point x="510" y="200" type="qcurve"/>
      <point x="475" y="0" type="line"/>
      <point x="28" y="0" type="line" name="ab01"/>
    </contour>
  </outline>
</glyph>
<glyph name="beta" format="1">
  <advance width="1300"/>
  <unicode hex="03B2"/>
  <outline>
    <contour>
      <point x="403" y="217" type="line" name="iv03"/>
      <point x="424" y="202"/>
      <point x="448" y="190" type="qcurve"/>
      <point x="468" y="179"/>
      <point x="518" y="161"/>
      <point x="543" y="160" type="qcurve"/>
      <point x="640" y="155"/>
      <point x="797" y="177"/>
      <point x="913" y="243"/>
      <point x="985" y="360"/>
      <point x="996" y="450" type="qcurve"/>
      <point x="1013" y="591"/>
      <point x="846" y="730"/>
      <point x="683" y="730" type="qcurve" name="iv01"/>
      <point x="641" y="885" type="line"/>
      <point x="705" y="885"/>
      <point x="835" y="910"/>
      <point x="943" y="971"/>
      <point x="1018" y="1072"/>
      <point x="1027" y="1148" type="qcurve"/>
      <point x="1033" y="1196"/>
      <point x="1005" y="1275"/>
      <point x="952" y="1334"/>
      <point x="882" y="1367"/>
      <point x="846" y="1369" type="qcurve"/>
      <point x="768" y="1372"/>
      <point x="676" y="1340"/>
      <point x="644" y="1304" type="qcurve"/>
      <point x="616" y="1273"/>
      <point x="587" y="1205"/>
      <point x="579" y="1160" type="qcurve" name="iv02"/>
    </contour>
    <contour>
      <point x="283" y="-517" type="line" name="av01"/>
      <point x="86" y="-500" type="line"/>
      <point x="372" y="1111" type="line"/>
      <point x="406" y="1306"/>
      <point x="530" y="1418" type="qcurve"/>
      <point x="558" y="1443"/>
      <point x="617" y="1480"/>
      <point x="696" y="1505"/>
      <point x="801" y="1517"/>
      <point x="875" y="1517" type="qcurve" name="at01"/>
      <point x="957" y="1517"/>
      <point x="1088" y="1464"/>
      <point x="1177" y="1371"/>
      <point x="1219" y="1244"/>
      <point x="1212" y="1169" type="qcurve"/>
      <point x="1206" y="1106"/>
      <point x="1169" y="1010"/>
      <point x="1108" y="935"/>
      <point x="1026" y="881"/>
      <point x="976" y="860" type="qcurve"/>
      <point x="814" y="816" type="line"/>
      <point x="959" y="802" type="line"/>
      <point x="1017" y="784"/>
      <point x="1112" y="723"/>
      <point x="1174" y="638"/>
      <point x="1199" y="527"/>
      <point x="1188" y="460" type="qcurve"/>
      <point x="1179" y="366"/>
      <point x="1115" y="225"/>
      <point x="1021" y="123"/>
      <point x="902" y="56"/>
      <point x="772" y="16"/>
      <point x="637" y="0"/>
      <point x="575" y="0" type="qcurve" name="ab01"/>
      <point x="543" y="-1"/>
      <point x="510" y="3" type="qcurve"/>
      <point x="481" y="6"/>
      <point x="413" y="18"/>
      <point x="380" y="32" type="qcurve"/>
    </contour>
  </outline>
</glyph>
<glyph name="epsilon" format="1">
  <advance width="1300"/>
  <unicode hex="03B5"/>
  <outline>
    <contour>
      <point x="931" y="633" type="line" name="sv01"/>
      <point x="888" y="500" type="line" name="sv02"/>
      <point x="634" y="500" type="line"/>
      <point x="585" y="500"/>
      <point x="504" y="472"/>
      <point x="446" y="421"/>
      <point x="414" y="352"/>
      <point x="415" y="312" type="qcurve"/>
      <point x="417" y="240"/>
      <point x="528" y="147"/>
      <point x="639" y="137" type="qcurve"/>
      <point x="698" y="132"/>
      <point x="791" y="149"/>
      <point x="823" y="163" type="qcurve"/>
      <point x="861" y="178"/>
      <point x="890" y="200" type="qcurve"/>
      <point x="962" y="99" type="line"/>
      <point x="936" y="63"/>
      <point x="885" y="36" type="qcurve"/>
      <point x="863" y="24"/>
      <point x="804" y="3"/>
      <point x="727" y="-12"/>
      <point x="631" y="-20"/>
      <point x="572" y="-17" type="qcurve" name="ab01"/>
      <point x="500" y="-14"/>
      <point x="368" y="32"/>
      <point x="271" y="116"/>
      <point x="218" y="236"/>
      <point x="225" y="313" type="qcurve"/>
      <point x="229" y="356"/>
      <point x="258" y="437"/>
      <point x="304" y="504"/>
      <point x="364" y="552"/>
      <point x="398" y="564" type="qcurve"/>
      <point x="346" y="602"/>
      <point x="306" y="723"/>
      <point x="312" y="810" type="qcurve"/>
      <point x="318" y="898"/>
      <point x="402" y="1016"/>
      <point x="531" y="1087"/>
      <point x="690" y="1117"/>
      <point x="771" y="1117" type="qcurve" name="av01"/>
      <point x="828" y="1117"/>
      <point x="925" y="1100"/>
      <point x="962" y="1090" type="qcurve"/>
      <point x="1005" y="1079"/>
      <point x="1041" y="1064" type="qcurve"/>
      <point x="964" y="944" type="line"/>
      <point x="939" y="947"/>
      <point x="911" y="951" type="qcurve"/>
      <point x="886" y="954"/>
      <point x="822" y="960"/>
      <point x="784" y="963" type="qcurve"/>
      <point x="721" y="967"/>
      <point x="616" y="946"/>
      <point x="541" y="899"/>
      <point x="499" y="832"/>
      <point x="499" y="791" type="qcurve"/>
      <point x="499" y="758"/>
      <point x="521" y="701"/>
      <point x="561" y="658"/>
      <point x="620" y="633"/>
      <point x="657" y="633" type="qcurve" name="av02"/>
    </contour>
  </outline>
</glyph>
<glyph name="eta" format="1">
  <advance width="1300"/>
  <unicode hex="03B7"/>
  <outline>
    <contour>
      <point x="355" y="0" type="line" name="sv01"/>
      <point x="171" y="0" type="line" name="ab01"/>
      <point x="364" y="1100" type="line"/>
      <point x="552" y="1121" type="line" name="av01"/>
      <point x="520" y="937" type="line"/>
      <point x="600" y="1044" type="line"/>
      <point x="632" y="1065"/>
      <point x="693" y="1093"/>
      <point x="757" y="1110"/>
      <point x="831" y="1117"/>
      <point x="876" y="1117" type="qcurve" name="av02"/>
      <point x="954" y="1117"/>
      <point x="1049" y="1048"/>
      <point x="1096" y="941"/>
      <point x="1102" y="811"/>
      <point x="1091" y="750" type="qcurve"/>
      <point x="870" y="-500" type="line" name="sv02"/>
      <point x="686" y="-500" type="line" name="av03"/>
      <point x="907" y="750" type="line"/>
      <point x="916" y="800"/>
      <point x="904" y="878"/>
      <point x="870" y="931"/>
      <point x="816" y="958"/>
      <point x="783" y="957" type="qcurve"/>
      <point x="698" y="954"/>
      <point x="563" y="895"/>
      <point x="503" y="844" type="qcurve"/>
    </contour>
  </outline>
</glyph>
<glyph name="theta" format="1">
  <advance width="1300"/>
  <unicode hex="03B8"/>
  <outline>
    <contour>
      <point x="496" y="-17" type="qcurve" name="ab01"/>
      <point x="411" y="-17"/>
      <point x="287" y="47"/>
      <point x="201" y="159"/>
      <point x="150" y="308"/>
      <point x="126" y="479"/>
      <point x="124" y="661"/>
      <point x="132" y="750" type="qcurve"/>
      <point x="140" y="842"/>
      <point x="188" y="1027"/>
      <point x="267" y="1197"/>
      <point x="376" y="1345"/>
      <point x="512" y="1454"/>
      <point x="675" y="1517"/>
      <point x="768" y="1517" type="qcurve" name="at01"/>
      <point x="855" y="1517"/>
      <point x="983" y="1452"/>
      <point x="1071" y="1340"/>
      <point x="1123" y="1190"/>
      <point x="1146" y="1019"/>
      <point x="1143" y="837"/>
      <point x="1132" y="750" type="qcurve"/>
      <point x="1121" y="661"/>
      <point x="1068" y="479"/>
      <point x="986" y="309"/>
      <point x="876" y="159"/>
      <point x="742" y="47"/>
      <point x="585" y="-17"/>
    </contour>
    <contour>
      <point x="739" y="1357" type="qcurve" name="sv01"/>
      <point x="684" y="1364"/>
      <point x="584" y="1324"/>
      <point x="496" y="1244"/>
      <point x="423" y="1133"/>
      <point x="368" y="1009"/>
      <point x="332" y="879"/>
      <point x="326" y="820" type="qcurve" name="av01"/>
      <point x="962" y="820" type="line" name="sv02"/>
      <point x="963" y="878"/>
      <point x="964" y="999"/>
      <point x="953" y="1113"/>
      <point x="928" y="1215"/>
      <point x="877" y="1296"/>
      <point x="798" y="1349"/>
    </contour>
    <contour>
      <point x="525" y="143" type="qcurve" name="sv03"/>
      <point x="570" y="134"/>
      <point x="660" y="166"/>
      <point x="743" y="236"/>
      <point x="817" y="337"/>
      <point x="878" y="460"/>
      <point x="923" y="598"/>
      <point x="935" y="670" type="qcurve" name="sv04"/>
      <point x="300" y="670" type="line" name="sv05"/>
      <point x="298" y="622"/>
      <point x="298" y="512"/>
      <point x="308" y="402"/>
      <point x="334" y="299"/>
      <point x="385" y="214"/>
      <point x="465" y="154"/>
    </contour>
  </outline>
</glyph>
<glyph name="iota" format="1">
  <advance width="1300"/>
  <unicode hex="03B9"/>
  <outline>
    <contour>
      <point x="359" y="902" type="line"/>
      <point x="373" y="1100" type="line"/>
      <point x="587" y="1121" type="line" name="av01"/>
      <point x="458" y="391" type="line"/>
      <point x="453" y="365"/>
      <point x="446" y="304"/>
      <point x="442" y="269" type="qcurve"/>
      <point x="437" y="217"/>
      <point x="479" y="140"/>
      <point x="523" y="131" type="qcurve"/>
      <point x="544" y="126"/>
      <point x="567" y="134"/>
      <point x="573" y="136" type="qcurve"/>
      <point x="620" y="10" type="line"/>
      <point x="613" y="7"/>
      <point x="594" y="-3"/>
      <point x="566" y="-11"/>
      <point x="525" y="-16"/>
      <point x="497" y="-15" type="qcurve" name="ab01"/>
      <point x="401" y="-12"/>
      <point x="295" y="61"/>
      <point x="252" y="178"/>
      <point x="257" y="327"/>
      <point x="271" y="405" type="qcurve"/>
    </contour>
  </outline>
</glyph>
<glyph name="uni03BC" format="1">
  <advance width="1300"/>
  <unicode hex="03BC"/>
  <outline>
    <contour>
      <point x="393" y="1100" type="line" name="av01"/>
      <point x="587" y="1121" type="line" name="av03"/>
      <point x="461" y="406" type="line"/>
      <point x="455" y="358"/>
      <point x="449" y="262"/>
      <point x="475" y="183"/>
      <point x="547" y="131"/>
      <point x="618" y="127" type="qcurve"/>
      <point x="653" y="125"/>
      <point x="705" y="130"/>
      <point x="754" y="150"/>
      <point x="810" y="189"/>
      <point x="849" y="222" type="qcurve"/>
      <point x="1003" y="1100" type="line" name="sv01"/>
      <point x="1197" y="1121" type="line" name="av04"/>
      <point x="1000" y="0" type="line" name="sv02"/>
      <point x="810" y="0" type="line" name="mh01"/>
      <point x="832" y="129" type="line"/>
      <point x="790" y="80"/>
      <point x="704" y="23"/>
      <point x="620" y="-6"/>
      <point x="542" y="-14"/>
      <point x="507" y="-15" type="qcurve" name="ab01"/>
      <point x="470" y="-15"/>
      <point x="398" y="-2"/>
      <point x="371" y="11" type="qcurve"/>
      <point x="363" y="-150" type="line"/>
      <point x="301" y="-500" type="line" name="sv03"/>
      <point x="111" y="-500" type="line" name="av02"/>
    </contour>
  </outline>
</glyph>
<glyph name="nu" format="1">
  <advance width="1300"/>
  <unicode hex="03BD"/>
  <outline>
    <contour>
      <point x="327" y="0" type="line" name="ab01"/>
      <point x="137" y="1100" type="line" name="ih02"/>
      <point x="330" y="1100" type="line" name="sv01"/>
      <point x="466" y="295" type="line"/>
      <point x="473" y="75" type="line" name="ih01"/>
      <point x="560" y="295" type="line"/>
      <point x="978" y="1100" type="line" name="av01"/>
      <point x="1169" y="1100" type="line" name="ih03"/>
      <point x="594" y="0" type="line" name="sv02"/>
    </contour>
  </outline>
</glyph>
<glyph name="pi" format="1">
  <advance width="1300"/>
  <unicode hex="03C0"/>
  <outline>
    <contour>
      <point x="1047" y="950" type="line"/>
      <point x="949" y="393" type="line"/>
      <point x="940" y="341"/>
      <point x="924" y="245"/>
      <point x="931" y="173"/>
      <point x="974" y="131"/>
      <point x="1023" y="133" type="qcurve"/>
      <point x="1034" y="133"/>
      <point x="1059" y="137"/>
      <point x="1070" y="139" type="qcurve"/>
      <point x="1082" y="142"/>
      <point x="1094" y="145" type="qcurve"/>
      <point x="1152" y="19" type="line"/>
      <point x="1133" y="10"/>
      <point x="1060" y="-12"/>
      <point x="997" y="-13" type="qcurve" name="ab02"/>
      <point x="936" y="-14"/>
      <point x="849" y="17"/>
      <point x="792" y="74"/>
      <point x="762" y="152"/>
      <point x="753" y="246"/>
      <point x="761" y="352"/>
      <point x="771" y="407" type="qcurve"/>
      <point x="867" y="950" type="line"/>
      <point x="487" y="950" type="line"/>
      <point x="518" y="787" type="line" name="mh01"/>
      <point x="380" y="0" type="line" name="sv01"/>
      <point x="200" y="0" type="line" name="ab01"/>
      <point x="322" y="694" type="line"/>
      <point x="331" y="743"/>
      <point x="337" y="839"/>
      <point x="323" y="914"/>
      <point x="284" y="958"/>
      <point x="248" y="954" type="qcurve"/>
      <point x="237" y="952"/>
      <point x="212" y="949"/>
      <point x="201" y="947" type="qcurve"/>
      <point x="189" y="944"/>
      <point x="177" y="942" type="qcurve"/>
      <point x="119" y="1068" type="line"/>
      <point x="138" y="1077"/>
      <point x="210" y="1100"/>
      <point x="271" y="1100" type="qcurve" name="av01"/>
      <point x="1212" y="1100" type="line" name="sv02"/>
      <point x="1166" y="950" type="line"/>
    </contour>
  </outline>
</glyph>
<glyph name="upsilon" format="1">
  <advance width="1300"/>
  <unicode hex="03C5"/>
  <outline>
    <contour>
      <point x="487" y="497" type="line" name="sv01"/>
      <point x="474" y="423"/>
      <point x="473" y="294"/>
      <point x="512" y="196"/>
      <point x="598" y="135"/>
      <point x="672" y="129" type="qcurve" name="sv02"/>
      <point x="757" y="122"/>
      <point x="867" y="181"/>
      <point x="936" y="287"/>
      <point x="974" y="425"/>
      <point x="987" y="497" type="qcurve" name="av04"/>
      <point x="1029" y="732" type="line"/>
      <point x="1045" y="822"/>
      <point x="1019" y="930"/>
      <point x="966" y="988"/>
      <point x="900" y="1007"/>
      <point x="877" y="1007" type="qcurve" name="sv04"/>
      <point x="896" y="1117" type="line" name="sv03"/>
      <point x="970" y="1125"/>
      <point x="1100" y="1070"/>
      <point x="1192" y="969"/>
      <point x="1236" y="832"/>
      <point x="1223" y="759" type="qcurve"/>
      <point x="1177" y="495" type="line" name="sv05"/>
      <point x="1170" y="455"/>
      <point x="1145" y="345"/>
      <point x="1099" y="227"/>
      <point x="1025" y="112"/>
      <point x="912" y="24"/>
      <point x="754" y="-24"/>
      <point x="647" y="-17" type="qcurve" name="ab01"/>
      <point x="549" y="-11"/>
      <point x="417" y="47"/>
      <point x="334" y="133"/>
      <point x="294" y="238"/>
      <point x="283" y="348"/>
      <point x="291" y="453"/>
      <point x="299" y="495" type="qcurve" name="av03"/>
      <point x="360" y="845" type="line"/>
      <point x="371" y="905"/>
      <point x="342" y="974"/>
      <point x="295" y="974" type="qcurve" name="sv06"/>
      <point x="246" y="974"/>
      <point x="174" y="905"/>
      <point x="163" y="845" type="qcurve" name="sv07"/>
      <point x="49" y="845" type="line" name="av02"/>
      <point x="60" y="906"/>
      <point x="104" y="1006"/>
      <point x="173" y="1078"/>
      <point x="268" y="1117"/>
      <point x="328" y="1117" type="qcurve" name="av01"/>
      <point x="382" y="1117"/>
      <point x="471" y="1071"/>
      <point x="530" y="996"/>
      <point x="556" y="897"/>
      <point x="548" y="845" type="qcurve"/>
    </contour>
  </outline>
</glyph>
<glyph name="phi" format="1">
  <advance width="1300"/>
  <unicode hex="03C6"/>
  <outline>
    <contour>
      <point x="452" y="1" type="line" name="ab01"/>
      <point x="420" y="5"/>
      <point x="356" y="19"/>
      <point x="326" y="28" type="qcurve"/>
      <point x="264" y="49"/>
      <point x="150" y="125"/>
      <point x="69" y="241"/>
      <point x="29" y="398"/>
      <point x="41" y="500" type="qcurve" name="av02"/>
      <point x="53" y="607"/>
      <point x="136" y="764"/>
      <point x="260" y="876"/>
      <point x="415" y="948"/>
      <point x="499" y="971" type="qcurve"/>
      <point x="566" y="990"/>
      <point x="635" y="998" type="qcurve" name="av04"/>
      <point x="649" y="1100" type="line"/>
      <point x="844" y="1121" type="line" name="av03"/>
      <point x="825" y="998" type="line" name="sv01"/>
      <point x="858" y="994"/>
      <point x="922" y="982"/>
      <point x="952" y="971" type="qcurve"/>
      <point x="1011" y="951"/>
      <point x="1126" y="875"/>
      <point x="1211" y="759"/>
      <point x="1253" y="601"/>
      <point x="1240" y="500" type="qcurve" name="sv04"/>
      <point x="1216" y="312"/>
      <point x="977" y="73"/>
      <point x="781" y="28" type="qcurve"/>
      <point x="641" y="1" type="line" name="sv05"/>
      <point x="554" y="-500" type="line" name="sv06"/>
      <point x="364" y="-500" type="line" name="av01"/>
    </contour>
    <contour>
      <point x="668" y="145" type="line"/>
      <point x="741" y="148"/>
      <point x="882" y="201"/>
      <point x="993" y="293"/>
      <point x="1065" y="421"/>
      <point x="1070" y="500" type="qcurve" name="sv03"/>
      <point x="1074" y="567"/>
      <point x="1052" y="679"/>
      <point x="990" y="767"/>
      <point x="882" y="833"/>
      <point x="798" y="855" type="qcurve"/>
    </contour>
    <contour>
      <point x="419" y="158" type="qcurve"/>
      <point x="434" y="155"/>
      <point x="463" y="147"/>
      <point x="478" y="145" type="qcurve"/>
      <point x="609" y="855" type="line"/>
      <point x="539" y="853"/>
      <point x="401" y="805"/>
      <point x="290" y="715"/>
      <point x="216" y="584"/>
      <point x="210" y="500" type="qcurve" name="sv02"/>
      <point x="205" y="429"/>
      <point x="238" y="311"/>
      <point x="298" y="222"/>
      <point x="378" y="167"/>
    </contour>
  </outline>
</glyph>
<glyph name="omega" format="1">
  <advance width="1300"/>
  <unicode hex="03C9"/>
  <outline>
    <contour>
      <point x="784" y="725" type="line"/>
      <point x="742" y="482" type="line"/>
      <point x="729" y="411"/>
      <point x="712" y="283"/>
      <point x="723" y="186"/>
      <point x="772" y="129"/>
      <point x="825" y="129" type="qcurve"/>
      <point x="885" y="129"/>
      <point x="960" y="188"/>
      <point x="1009" y="295"/>
      <point x="1041" y="442"/>
      <point x="1056" y="530" type="qcurve"/>
      <point x="1072" y="622"/>
      <point x="1074" y="765"/>
      <point x="1054" y="871"/>
      <point x="1018" y="943"/>
      <point x="978" y="988"/>
      <point x="936" y="1007"/>
      <point x="921" y="1007" type="qcurve" name="sv01"/>
      <point x="940" y="1117" type="line" name="ih03"/>
      <point x="1023" y="1117"/>
      <point x="1156" y="1027"/>
      <point x="1241" y="875"/>
      <point x="1271" y="672"/>
      <point x="1251" y="560" type="qcurve"/>
      <point x="1233" y="457" type="line"/>
      <point x="1223" y="402"/>
      <point x="1197" y="289"/>
      <point x="1155" y="184"/>
      <point x="1094" y="92"/>
      <point x="1004" y="23"/>
      <point x="882" y="-17"/>
      <point x="800" y="-17" type="qcurve" name="sv02"/>
      <point x="749" y="-17"/>
      <point x="676" y="3"/>
      <point x="625" y="40"/>
      <point x="593" y="90"/>
      <point x="584" y="120" type="qcurve" name="ih01"/>
      <point x="564" y="90"/>
      <point x="515" y="40"/>
      <point x="451" y="3"/>
      <point x="371" y="-17"/>
      <point x="321" y="-17" type="qcurve" name="ab01"/>
      <point x="239" y="-17"/>
      <point x="131" y="23"/>
      <point x="65" y="92"/>
      <point x="36" y="185"/>
      <point x="31" y="290"/>
      <point x="44" y="402"/>
      <point x="54" y="457" type="qcurve"/>
      <point x="72" y="560" type="line"/>
      <point x="92" y="672"/>
      <point x="190" y="875"/>
      <point x="325" y="1027"/>
      <point x="486" y="1117"/>
      <point x="569" y="1117" type="qcurve" name="ih02"/>
      <point x="550" y="1007" type="line" name="sv03"/>
      <point x="527" y="1007"/>
      <point x="448" y="962"/>
      <point x="362" y="852"/>
      <point x="281" y="669"/>
      <point x="257" y="530" type="qcurve"/>
      <point x="242" y="442"/>
      <point x="221" y="295"/>
      <point x="232" y="188"/>
      <point x="286" y="129"/>
      <point x="346" y="129" type="qcurve"/>
      <point x="399" y="129"/>
      <point x="468" y="186"/>
      <point x="513" y="283"/>
      <point x="542" y="411"/>
      <point x="555" y="482" type="qcurve"/>
      <point x="601" y="745" type="line" name="av01"/>
    </contour>
  </outline>
</glyph>
<glyph name="theta1" format="1">
  <advance width="1300"/>
  <unicode hex="03D1"/>
  <outline>
    <contour>
      <point x="230" y="481" type="line" name="av02"/>
      <point x="241" y="416"/>
      <point x="266" y="293"/>
      <point x="314" y="199"/>
      <point x="395" y="142"/>
      <point x="462" y="143" type="qcurve"/>
      <point x="545" y="144"/>
      <point x="680" y="218"/>
      <point x="784" y="352"/>
      <point x="855" y="538"/>
      <point x="875" y="650" type="qcurve"/>
      <point x="451" y="650" type="line" name="sv03"/>
      <point x="410" y="650"/>
      <point x="327" y="659"/>
      <point x="249" y="685"/>
      <point x="182" y="732"/>
      <point x="133" y="805"/>
      <point x="107" y="909"/>
      <point x="109" y="980" type="qcurve"/>
      <point x="111" y="1040"/>
      <point x="159" y="1167"/>
      <point x="241" y="1286"/>
      <point x="353" y="1393"/>
      <point x="484" y="1472"/>
      <point x="630" y="1518"/>
      <point x="705" y="1517" type="qcurve" name="at01"/>
      <point x="818" y="1516"/>
      <point x="978" y="1402"/>
      <point x="1071" y="1207"/>
      <point x="1097" y="947"/>
      <point x="1077" y="800" type="qcurve"/>
      <point x="1300" y="800" type="line" name="sv01"/>
      <point x="1253" y="650" type="line" name="sv02"/>
      <point x="1047" y="650" type="line"/>
      <point x="1029" y="560"/>
      <point x="971" y="386"/>
      <point x="891" y="231"/>
      <point x="789" y="102"/>
      <point x="665" y="13"/>
      <point x="518" y="-29"/>
      <point x="433" y="-20" type="qcurve" name="ab01"/>
      <point x="340" y="-10"/>
      <point x="204" y="67"/>
      <point x="111" y="181"/>
      <point x="60" y="322"/>
      <point x="53" y="394" type="qcurve"/>
    </contour>
    <contour>
      <point x="676" y="1357" type="qcurve"/>
      <point x="626" y="1363"/>
      <point x="530" y="1340"/>
      <point x="442" y="1288"/>
      <point x="367" y="1213"/>
      <point x="312" y="1123"/>
      <point x="280" y="1023"/>
      <point x="279" y="972" type="qcurve"/>
      <point x="278" y="906"/>
      <point x="315" y="836"/>
      <point x="390" y="805"/>
      <point x="503" y="800"/>
      <point x="578" y="800" type="qcurve" name="av01"/>
      <point x="903" y="800" type="line"/>
      <point x="931" y="919"/>
      <point x="911" y="1117"/>
      <point x="840" y="1263"/>
      <point x="733" y="1349"/>
    </contour>
  </outline>
</glyph>
<glyph name="Upsilon1" format="1">
  <advance width="1300"/>
  <unicode hex="03D2"/>
  <outline>
    <contour>
      <point x="1198" y="1517" type="qcurve" name="ih03"/>
      <point x="1175" y="1387" type="line" name="sv01"/>
      <point x="1155" y="1389"/>
      <point x="1131" y="1380" type="qcurve"/>
      <point x="1111" y="1372"/>
      <point x="1058" y="1331"/>
      <point x="1030" y="1289" type="qcurve"/>
      <point x="609" y="658" type="line"/>
      <point x="493" y="0" type="line" name="sv02"/>
      <point x="301" y="0" type="line" name="ab01"/>
      <point x="417" y="658" type="line"/>
      <point x="218" y="1289" type="line"/>
      <point x="204" y="1331"/>
      <point x="166" y="1371"/>
      <point x="149" y="1379" type="qcurve"/>
      <point x="129" y="1389"/>
      <point x="107" y="1387" type="qcurve" name="sv03"/>
      <point x="130" y="1517" type="line" name="ih02"/>
      <point x="155" y="1517"/>
      <point x="218" y="1507"/>
      <point x="282" y="1471"/>
      <point x="343" y="1401"/>
      <point x="366" y="1340" type="qcurve"/>
      <point x="496" y="1000" type="line"/>
      <point x="533" y="751" type="line" name="ih01"/>
      <point x="650" y="1000" type="line"/>
      <point x="900" y="1340" type="line"/>
      <point x="954" y="1413"/>
      <point x="1033" y="1487"/>
      <point x="1100" y="1517"/>
      <point x="1162" y="1517"/>
    </contour>
  </outline>
</glyph>
<glyph name="omega1" format="1">
  <advance width="1300"/>
  <unicode hex="03D6"/>
  <outline>
    <contour>
      <point x="1300" y="942" type="line" name="sv02"/>
      <point x="1139" y="942" type="line"/>
      <point x="1217" y="885" type="line"/>
      <point x="1228" y="857"/>
      <point x="1247" y="792"/>
      <point x="1256" y="703"/>
      <point x="1249" y="580"/>
      <point x="1234" y="495" type="qcurve" name="sv03"/>
      <point x="1225" y="444" type="line"/>
      <point x="1217" y="401"/>
      <point x="1194" y="299"/>
      <point x="1154" y="196"/>
      <point x="1092" y="101"/>
      <point x="1002" y="27"/>
      <point x="877" y="-17"/>
      <point x="794" y="-17" type="qcurve" name="sv04"/>
      <point x="740" y="-17"/>
      <point x="666" y="3"/>
      <point x="616" y="40"/>
      <point x="587" y="90"/>
      <point x="578" y="120" type="qcurve"/>
      <point x="558" y="90"/>
      <point x="511" y="40"/>
      <point x="450" y="3"/>
      <point x="369" y="-17"/>
      <point x="315" y="-17" type="qcurve" name="ab01"/>
      <point x="232" y="-17"/>
      <point x="123" y="27"/>
      <point x="58" y="101"/>
      <point x="31" y="196"/>
      <point x="26" y="299"/>
      <point x="38" y="401"/>
      <point x="46" y="444" type="qcurve"/>
      <point x="55" y="495" type="line" name="av03"/>
      <point x="70" y="580"/>
      <point x="107" y="703"/>
      <point x="147" y="792"/>
      <point x="189" y="857"/>
      <point x="210" y="885" type="qcurve"/>
      <point x="308" y="942" type="line" name="mv01"/>
      <point x="140" y="942" type="line" name="sv05"/>
      <point x="188" y="1100" type="line" name="av01"/>
      <point x="1348" y="1100" type="line" name="sv01"/>
    </contour>
    <contour>
      <point x="779" y="725" type="line"/>
      <point x="733" y="464" type="line"/>
      <point x="721" y="396"/>
      <point x="704" y="274"/>
      <point x="715" y="182"/>
      <point x="765" y="129"/>
      <point x="820" y="129" type="qcurve"/>
      <point x="873" y="129"/>
      <point x="947" y="190"/>
      <point x="998" y="292"/>
      <point x="1032" y="425"/>
      <point x="1045" y="497" type="qcurve" name="av04"/>
      <point x="1064" y="605"/>
      <point x="1071" y="756"/>
      <point x="1058" y="859"/>
      <point x="1030" y="922"/>
      <point x="1012" y="942" type="qcurve"/>
      <point x="434" y="942" type="line" name="mv02"/>
      <point x="410" y="922"/>
      <point x="359" y="859"/>
      <point x="310" y="756"/>
      <point x="265" y="605"/>
      <point x="246" y="497" type="qcurve" name="sv06"/>
      <point x="233" y="425"/>
      <point x="220" y="292"/>
      <point x="236" y="190"/>
      <point x="288" y="129"/>
      <point x="341" y="129" type="qcurve"/>
      <point x="396" y="129"/>
      <point x="464" y="182"/>
      <point x="508" y="274"/>
      <point x="534" y="396"/>
      <point x="546" y="464" type="qcurve"/>
      <point x="595" y="745" type="line" name="av02"/>
    </contour>
  </outline>
</glyph>
<glyph name="quotationdash" format="1">
  <advance width="1300"/>
  <unicode hex="2015"/>
  <outline>
    <contour>
      <point x="100" y="600" type="line" name="av01"/>
      <point x="1300" y="600" type="line" name="sv01"/>
      <point x="1273" y="445" type="line"/>
      <point x="73" y="445" type="line"/>
    </contour>
  </outline>
</glyph>
<glyph name="doubleverticalline" format="1">
  <advance width="1300"/>
  <unicode hex="2016"/>
  <outline>
    <contour>
      <point x="619" y="1500" type="line"/>
      <point x="355" y="0" type="line"/>
      <point x="200" y="0" type="line" name="ab01"/>
      <point x="464" y="1500" type="line" name="at01"/>
    </contour>
    <contour>
      <point x="919" y="1500" type="line" name="sv01"/>
      <point x="655" y="0" type="line" name="sv02"/>
      <point x="500" y="0" type="line"/>
      <point x="764" y="1500" type="line"/>
    </contour>
  </outline>
</glyph>
<glyph name="quotedblright" format="1">
  <advance width="1300"/>
  <unicode hex="201D"/>
  <outline>
    <contour>
      <point x="194" y="1305" type="qcurve" name="mh01"/>
      <point x="195" y="1331"/>
      <point x="219" y="1378"/>
      <point x="258" y="1413"/>
      <point x="310" y="1430"/>
      <point x="339" y="1426" type="qcurve"/>
      <point x="383" y="1420"/>
      <point x="443" y="1355"/>
      <point x="442" y="1291" type="qcurve"/>
      <point x="442" y="1261"/>
      <point x="422" y="1180"/>
      <point x="372" y="1087"/>
      <point x="285" y="988"/>
      <point x="218" y="940" type="qcurve"/>
      <point x="177" y="960" type="line"/>
      <point x="204" y="993"/>
      <point x="226" y="1030" type="qcurve" name="mh02"/>
      <point x="245" y="1062"/>
      <point x="280" y="1142"/>
      <point x="285" y="1184" type="qcurve" name="mh03"/>
      <point x="243" y="1186"/>
      <point x="192" y="1247"/>
    </contour>
    <contour>
      <point x="594" y="1305" type="qcurve" name="mh04"/>
      <point x="595" y="1331"/>
      <point x="619" y="1378"/>
      <point x="658" y="1413"/>
      <point x="710" y="1430"/>
      <point x="739" y="1426" type="qcurve"/>
      <point x="783" y="1420"/>
      <point x="843" y="1355"/>
      <point x="842" y="1291" type="qcurve"/>
      <point x="842" y="1261"/>
      <point x="822" y="1180"/>
      <point x="772" y="1087"/>
      <point x="685" y="988"/>
      <point x="618" y="940" type="qcurve"/>
      <point x="577" y="960" type="line"/>
      <point x="604" y="993"/>
      <point x="626" y="1030" type="qcurve" name="mh05"/>
      <point x="645" y="1062"/>
      <point x="680" y="1142"/>
      <point x="685" y="1184" type="qcurve" name="mh06"/>
      <point x="643" y="1186"/>
      <point x="592" y="1247"/>
    </contour>
  </outline>
</glyph>
<glyph name="daggerdbl" format="1">
  <advance width="1300"/>
  <unicode hex="2021"/>
  <outline>
    <contour>
      <point x="305" y="1049" type="line" name="at01"/>
      <point x="605" y="1049" type="line"/>
      <point x="685" y="1500" type="line"/>
      <point x="889" y="1520" type="line" name="at02"/>
      <point x="805" y="1049" type="line"/>
      <point x="1125" y="1049" type="line" name="sv01"/>
      <point x="1079" y="900" type="line"/>
      <point x="779" y="900" type="line"/>
      <point x="673" y="300" type="line"/>
      <point x="973" y="300" type="line" name="sv02"/>
      <point x="947" y="150" type="line"/>
      <point x="647" y="150" type="line"/>
      <point x="550" y="-400" type="line" name="sv03"/>
      <point x="350" y="-400" type="line" name="av02"/>
      <point x="447" y="150" type="line"/>
      <point x="147" y="150" type="line"/>
      <point x="173" y="300" type="line" name="av01"/>
      <point x="473" y="300" type="line"/>
      <point x="579" y="900" type="line"/>
      <point x="279" y="900" type="line"/>
    </contour>
  </outline>
</glyph>
<glyph name="perthousand" format="1">
  <advance width="2600"/>
  <unicode hex="2030"/>
  <outline>
    <contour>
      <point x="1446" y="-17" type="qcurve" name="ab02"/>
      <point x="1376" y="-17"/>
      <point x="1287" y="38"/>
      <point x="1242" y="135"/>
      <point x="1237" y="268"/>
      <point x="1251" y="345" type="qcurve"/>
      <point x="1264" y="421"/>
      <point x="1314" y="552"/>
      <point x="1392" y="646"/>
      <point x="1500" y="700"/>
      <point x="1573" y="700" type="qcurve" name="av03"/>
      <point x="1643" y="700"/>
      <point x="1731" y="646"/>
      <point x="1776" y="552"/>
      <point x="1781" y="421"/>
      <point x="1768" y="345" type="qcurve"/>
      <point x="1754" y="268"/>
      <point x="1704" y="135"/>
      <point x="1626" y="38"/>
      <point x="1518" y="-17"/>
    </contour>
    <contour>
      <point x="1628" y="393" type="line"/>
      <point x="1634" y="428"/>
      <point x="1639" y="492"/>
      <point x="1626" y="540"/>
      <point x="1587" y="569"/>
      <point x="1549" y="569" type="qcurve"/>
      <point x="1512" y="569"/>
      <point x="1465" y="543"/>
      <point x="1436" y="499"/>
      <point x="1420" y="440"/>
      <point x="1414" y="407" type="qcurve"/>
      <point x="1396" y="306" type="line"/>
      <point x="1390" y="270"/>
      <point x="1384" y="205"/>
      <point x="1398" y="156"/>
      <point x="1438" y="127"/>
      <point x="1476" y="127" type="qcurve"/>
      <point x="1512" y="127"/>
      <point x="1559" y="153"/>
      <point x="1588" y="197"/>
      <point x="1603" y="256"/>
      <point x="1609" y="288" type="qcurve"/>
    </contour>
    <contour>
      <point x="272" y="0" type="line"/>
      <point x="86" y="0" type="line"/>
      <point x="1027" y="1500" type="line"/>
      <point x="1213" y="1500" type="line"/>
    </contour>
    <contour>
      <point x="327" y="800" type="qcurve" name="av01"/>
      <point x="257" y="800"/>
      <point x="168" y="855"/>
      <point x="123" y="952"/>
      <point x="118" y="1085"/>
      <point x="132" y="1162" type="qcurve"/>
      <point x="145" y="1238"/>
      <point x="195" y="1369"/>
      <point x="273" y="1463"/>
      <point x="381" y="1517"/>
      <point x="454" y="1517" type="qcurve" name="at01"/>
      <point x="524" y="1517"/>
      <point x="612" y="1463"/>
      <point x="657" y="1369"/>
      <point x="662" y="1238"/>
      <point x="649" y="1162" type="qcurve"/>
      <point x="635" y="1085"/>
      <point x="585" y="952"/>
      <point x="507" y="855"/>
      <point x="399" y="800"/>
    </contour>
    <contour>
      <point x="509" y="1210" type="line"/>
      <point x="515" y="1245"/>
      <point x="520" y="1309"/>
      <point x="507" y="1357"/>
      <point x="468" y="1386"/>
      <point x="430" y="1386" type="qcurve"/>
      <point x="393" y="1386"/>
      <point x="346" y="1360"/>
      <point x="317" y="1316"/>
      <point x="301" y="1257"/>
      <point x="295" y="1224" type="qcurve"/>
      <point x="277" y="1123" type="line"/>
      <point x="271" y="1087"/>
      <point x="265" y="1022"/>
      <point x="279" y="973"/>
      <point x="319" y="944"/>
      <point x="357" y="944" type="qcurve"/>
      <point x="393" y="944"/>
      <point x="440" y="970"/>
      <point x="469" y="1014"/>
      <point x="484" y="1073"/>
      <point x="490" y="1105" type="qcurve"/>
    </contour>
    <contour>
      <point x="846" y="-17" type="qcurve" name="ab01"/>
      <point x="776" y="-17"/>
      <point x="687" y="38"/>
      <point x="642" y="135"/>
      <point x="637" y="268"/>
      <point x="651" y="345" type="qcurve"/>
      <point x="664" y="421"/>
      <point x="714" y="552"/>
      <point x="792" y="646"/>
      <point x="900" y="700"/>
      <point x="973" y="700" type="qcurve" name="av02"/>
      <point x="1043" y="700"/>
      <point x="1131" y="646"/>
      <point x="1176" y="552"/>
      <point x="1181" y="421"/>
      <point x="1168" y="345" type="qcurve"/>
      <point x="1154" y="268"/>
      <point x="1104" y="135"/>
      <point x="1026" y="38"/>
      <point x="918" y="-17"/>
    </contour>
    <contour>
      <point x="1028" y="393" type="line"/>
      <point x="1034" y="428"/>
      <point x="1039" y="492"/>
      <point x="1026" y="540"/>
      <point x="987" y="569"/>
      <point x="949" y="569" type="qcurve"/>
      <point x="912" y="569"/>
      <point x="865" y="543"/>
      <point x="836" y="499"/>
      <point x="820" y="440"/>
      <point x="814" y="407" type="qcurve"/>
      <point x="796" y="306" type="line"/>
      <point x="790" y="270"/>
      <point x="784" y="205"/>
      <point x="798" y="156"/>
      <point x="838" y="127"/>
      <point x="876" y="127" type="qcurve"/>
      <point x="912" y="127"/>
      <point x="959" y="153"/>
      <point x="988" y="197"/>
      <point x="1003" y="256"/>
      <point x="1009" y="288" type="qcurve"/>
    </contour>
  </outline>
</glyph>
<glyph name="prime" format="1">
  <advance width="1300"/>
  <unicode hex="2032"/>
  <outline>
    <contour>
      <point x="567" y="1245" type="line" name="sv01"/>
      <point x="340" y="885" type="line" name="sv02"/>
      <point x="255" y="885" type="line" name="av01"/>
      <point x="388" y="1245" type="line" name="av02"/>
      <point x="436" y="1517" type="line" name="at01"/>
      <point x="611" y="1493" type="line"/>
    </contour>
  </outline>
</glyph>
<glyph name="doubleprime" format="1">
  <advance width="1300"/>
  <unicode hex="2033"/>
  <outline>
    <contour>
      <point x="567" y="1245" type="line" name="sv01"/>
      <point x="340" y="885" type="line" name="sv02"/>
      <point x="255" y="885" type="line" name="av01"/>
      <point x="388" y="1245" type="line" name="av02"/>
      <point x="436" y="1517" type="line" name="at01"/>
      <point x="611" y="1493" type="line"/>
    </contour>
    <contour>
      <point x="867" y="1245" type="line" name="sv03"/>
      <point x="640" y="885" type="line" name="sv04"/>
      <point x="555" y="885" type="line" name="av03"/>
      <point x="688" y="1245" type="line" name="av04"/>
      <point x="736" y="1517" type="line" name="at02"/>
      <point x="911" y="1493" type="line"/>
    </contour>
  </outline>
</glyph>
<glyph name="reversedprime" format="1">
  <advance width="1300"/>
  <unicode hex="2035"/>
  <outline>
    <contour>
      <point x="189" y="1493" type="line"/>
      <point x="364" y="1517" type="line" name="at01"/>
      <point x="412" y="1245" type="line" name="sv02"/>
      <point x="545" y="885" type="line" name="sv01"/>
      <point x="460" y="885" type="line" name="av02"/>
      <point x="233" y="1245" type="line" name="av01"/>
    </contour>
  </outline>
</glyph>
<glyph name="guilsinglright" format="1">
  <advance width="1300"/>
  <unicode hex="203A"/>
  <outline>
    <contour>
      <point x="808" y="617" type="line"/>
      <point x="784" y="478" type="line"/>
      <point x="243" y="66" type="line" name="av01"/>
      <point x="213" y="201" type="line"/>
      <point x="592" y="490" type="line"/>
      <point x="739" y="550" type="line" name="iv01"/>
      <point x="612" y="610" type="line"/>
      <point x="338" y="901" type="line"/>
      <point x="410" y="1026" type="line" name="at01"/>
    </contour>
  </outline>
</glyph>
<glyph name="asterism" format="1">
  <advance width="1300"/>
  <unicode hex="2042"/>
  <outline>
    <contour>
      <point x="653" y="1097" type="line"/>
      <point x="706" y="1001" type="line"/>
      <point x="648" y="956" type="line"/>
      <point x="592" y="1059" type="line"/>
      <point x="586" y="1095" type="line"/>
      <point x="568" y="1059" type="line"/>
      <point x="481" y="963" type="line"/>
      <point x="429" y="996" type="line"/>
      <point x="521" y="1098" type="line"/>
      <point x="557" y="1120" type="line"/>
      <point x="517" y="1122" type="line"/>
      <point x="412" y="1159" type="line"/>
      <point x="437" y="1224" type="line"/>
      <point x="549" y="1186" type="line"/>
      <point x="578" y="1160" type="line"/>
      <point x="574" y="1201" type="line"/>
      <point x="595" y="1318" type="line"/>
      <point x="662" y="1325" type="line"/>
      <point x="640" y="1199" type="line"/>
      <point x="620" y="1159" type="line"/>
      <point x="657" y="1184" type="line"/>
      <point x="776" y="1220" type="line"/>
      <point x="793" y="1159" type="line"/>
      <point x="665" y="1120" type="line"/>
      <point x="625" y="1118" type="line"/>
    </contour>
    <contour>
      <point x="953" y="497" type="line"/>
      <point x="1006" y="401" type="line"/>
      <point x="948" y="356" type="line"/>
      <point x="892" y="459" type="line"/>
      <point x="886" y="495" type="line"/>
      <point x="868" y="459" type="line"/>
      <point x="781" y="363" type="line"/>
      <point x="729" y="396" type="line"/>
      <point x="821" y="498" type="line"/>
      <point x="857" y="520" type="line"/>
      <point x="817" y="522" type="line"/>
      <point x="712" y="559" type="line"/>
      <point x="737" y="624" type="line"/>
      <point x="849" y="586" type="line"/>
      <point x="878" y="560" type="line"/>
      <point x="874" y="601" type="line"/>
      <point x="895" y="718" type="line"/>
      <point x="962" y="725" type="line"/>
      <point x="940" y="599" type="line"/>
      <point x="920" y="559" type="line"/>
      <point x="957" y="584" type="line"/>
      <point x="1076" y="620" type="line"/>
      <point x="1093" y="559" type="line"/>
      <point x="965" y="520" type="line"/>
      <point x="925" y="518" type="line"/>
    </contour>
    <contour>
      <point x="353" y="497" type="line"/>
      <point x="406" y="401" type="line"/>
      <point x="348" y="356" type="line"/>
      <point x="292" y="459" type="line"/>
      <point x="286" y="495" type="line"/>
      <point x="268" y="459" type="line"/>
      <point x="181" y="363" type="line"/>
      <point x="129" y="396" type="line"/>
      <point x="221" y="498" type="line"/>
      <point x="257" y="520" type="line"/>
      <point x="217" y="522" type="line"/>
      <point x="112" y="559" type="line"/>
      <point x="137" y="624" type="line"/>
      <point x="249" y="586" type="line"/>
      <point x="278" y="560" type="line"/>
      <point x="274" y="601" type="line"/>
      <point x="295" y="718" type="line"/>
      <point x="362" y="725" type="line"/>
      <point x="340" y="599" type="line"/>
      <point x="320" y="559" type="line"/>
      <point x="357" y="584" type="line"/>
      <point x="476" y="620" type="line"/>
      <point x="493" y="559" type="line"/>
      <point x="365" y="520" type="line"/>
      <point x="325" y="518" type="line"/>
    </contour>
  </outline>
</glyph>
<glyph name="twoasterisksvertical" format="1">
  <advance width="1300"/>
  <unicode hex="2051"/>
  <outline>
    <contour>
      <point x="653" y="1097" type="line"/>
      <point x="706" y="1001" type="line"/>
      <point x="648" y="956" type="line"/>
      <point x="592" y="1059" type="line"/>
      <point x="586" y="1095" type="line"/>
      <point x="568" y="1059" type="line"/>
      <point x="481" y="963" type="line"/>
      <point x="429" y="996" type="line"/>
      <point x="521" y="1098" type="line"/>
      <point x="557" y="1120" type="line"/>
      <point x="517" y="1122" type="line"/>
      <point x="412" y="1159" type="line"/>
      <point x="437" y="1224" type="line"/>
      <point x="549" y="1186" type="line"/>
      <point x="578" y="1160" type="line"/>
      <point x="574" y="1201" type="line"/>
      <point x="595" y="1318" type="line"/>
      <point x="662" y="1325" type="line"/>
      <point x="640" y="1199" type="line"/>
      <point x="620" y="1159" type="line"/>
      <point x="657" y="1184" type="line"/>
      <point x="776" y="1220" type="line"/>
      <point x="793" y="1159" type="line"/>
      <point x="665" y="1120" type="line"/>
      <point x="625" y="1118" type="line"/>
    </contour>
    <contour>
      <point x="653" y="497" type="line"/>
      <point x="706" y="401" type="line"/>
      <point x="648" y="356" type="line"/>
      <point x="592" y="459" type="line"/>
      <point x="586" y="495" type="line"/>
      <point x="568" y="459" type="line"/>
      <point x="481" y="363" type="line"/>
      <point x="429" y="396" type="line"/>
      <point x="521" y="498" type="line"/>
      <point x="557" y="520" type="line"/>
      <point x="517" y="522" type="line"/>
      <point x="412" y="559" type="line"/>
      <point x="437" y="624" type="line"/>
      <point x="549" y="586" type="line"/>
      <point x="578" y="560" type="line"/>
      <point x="574" y="601" type="line"/>
      <point x="595" y="718" type="line"/>
      <point x="662" y="725" type="line"/>
      <point x="640" y="599" type="line"/>
      <point x="620" y="559" type="line"/>
      <point x="657" y="584" type="line"/>
      <point x="776" y="620" type="line"/>
      <point x="793" y="559" type="line"/>
      <point x="665" y="520" type="line"/>
      <point x="625" y="518" type="line"/>
    </contour>
  </outline>
</glyph>
<glyph name="zerosuperior" format="1">
  <advance width="1300"/>
  <unicode hex="2070"/>
  <outline>
    <contour>
      <point x="344" y="711" type="qcurve"/>
      <point x="302" y="716"/>
      <point x="240" y="753"/>
      <point x="196" y="809"/>
      <point x="170" y="881"/>
      <point x="157" y="962"/>
      <point x="157" y="1051"/>
      <point x="161" y="1095" type="qcurve"/>
      <point x="165" y="1140"/>
      <point x="190" y="1235"/>
      <point x="230" y="1323"/>
      <point x="285" y="1400"/>
      <point x="353" y="1455"/>
      <point x="433" y="1483"/>
      <point x="479" y="1478" type="qcurve"/>
      <point x="521" y="1474"/>
      <point x="583" y="1438"/>
      <point x="627" y="1382"/>
      <point x="654" y="1309"/>
      <point x="668" y="1227"/>
      <point x="668" y="1138"/>
      <point x="663" y="1095" type="qcurve"/>
      <point x="657" y="1049"/>
      <point x="631" y="954"/>
      <point x="589" y="865"/>
      <point x="534" y="788"/>
      <point x="467" y="733"/>
      <point x="388" y="706"/>
    </contour>
    <contour>
      <point x="264" y="1116" type="qcurve"/>
      <point x="260" y="1087"/>
      <point x="253" y="1020"/>
      <point x="252" y="951"/>
      <point x="261" y="887"/>
      <point x="286" y="836"/>
      <point x="329" y="802"/>
      <point x="363" y="799" type="qcurve"/>
      <point x="392" y="796"/>
      <point x="443" y="817"/>
      <point x="485" y="857"/>
      <point x="518" y="912"/>
      <point x="542" y="975"/>
      <point x="557" y="1042"/>
      <point x="559" y="1073" type="qcurve"/>
      <point x="561" y="1102"/>
      <point x="567" y="1170"/>
      <point x="567" y="1239"/>
      <point x="558" y="1303"/>
      <point x="535" y="1354"/>
      <point x="493" y="1387"/>
      <point x="460" y="1390" type="qcurve"/>
      <point x="429" y="1393"/>
      <point x="379" y="1373"/>
      <point x="339" y="1333"/>
      <point x="307" y="1277"/>
      <point x="284" y="1214"/>
      <point x="268" y="1148"/>
    </contour>
  </outline>
</glyph>
<glyph name="superscriptfour" format="1">
  <advance width="1300"/>
  <unicode hex="2074"/>
  <outline>
    <contour>
      <point x="653" y="870" type="line"/>
      <point x="563" y="870" type="line"/>
      <point x="537" y="720" type="line"/>
      <point x="437" y="720" type="line"/>
      <point x="463" y="870" type="line"/>
      <point x="166" y="870" type="line"/>
      <point x="181" y="955" type="line"/>
      <point x="516" y="1480" type="line"/>
      <point x="608" y="1470" type="line"/>
      <point x="321" y="1020" type="line"/>
      <point x="263" y="950" type="line"/>
      <point x="478" y="950" type="line"/>
      <point x="513" y="1153" type="line"/>
      <point x="612" y="1145" type="line"/>
      <point x="578" y="950" type="line"/>
      <point x="675" y="950" type="line"/>
    </contour>
  </outline>
</glyph>
<glyph name="superscriptfive" format="1">
  <advance width="1300"/>
  <unicode hex="2075"/>
  <outline>
    <contour>
      <point x="328" y="1211" type="line"/>
      <point x="332" y="1213"/>
      <point x="350" y="1222"/>
      <point x="374" y="1231"/>
      <point x="401" y="1237"/>
      <point x="415" y="1237" type="qcurve"/>
      <point x="466" y="1237"/>
      <point x="541" y="1208"/>
      <point x="589" y="1157"/>
      <point x="612" y="1088"/>
      <point x="612" y="1047" type="qcurve"/>
      <point x="612" y="989"/>
      <point x="574" y="896"/>
      <point x="509" y="823"/>
      <point x="419" y="770"/>
      <point x="315" y="736"/>
      <point x="200" y="720"/>
      <point x="142" y="720" type="qcurve"/>
      <point x="156" y="800" type="line"/>
      <point x="204" y="800"/>
      <point x="294" y="815"/>
      <point x="373" y="843"/>
      <point x="439" y="883"/>
      <point x="486" y="934"/>
      <point x="512" y="995"/>
      <point x="512" y="1029" type="qcurve"/>
      <point x="512" y="1054"/>
      <point x="495" y="1098"/>
      <point x="463" y="1132"/>
      <point x="418" y="1153"/>
      <point x="391" y="1153" type="qcurve"/>
      <point x="350" y="1153"/>
      <point x="293" y="1136"/>
      <point x="270" y="1120" type="qcurve"/>
      <point x="213" y="1120" type="line"/>
      <point x="274" y="1470" type="line"/>
      <point x="646" y="1470" type="line"/>
      <point x="632" y="1390" type="line"/>
      <point x="359" y="1390" type="line"/>
    </contour>
  </outline>
</glyph>
<glyph name="superscriptsix" format="1">
  <advance width="1300"/>
  <unicode hex="2076"/>
  <outline>
    <contour>
      <point x="632" y="1392" type="line"/>
      <point x="629" y="1393"/>
      <point x="616" y="1393"/>
      <point x="610" y="1393" type="qcurve"/>
      <point x="566" y="1393"/>
      <point x="489" y="1371"/>
      <point x="422" y="1330"/>
      <point x="365" y="1273"/>
      <point x="320" y="1204"/>
      <point x="285" y="1126"/>
      <point x="274" y="1085" type="qcurve"/>
      <point x="326" y="1143" type="line"/>
      <point x="339" y="1151"/>
      <point x="372" y="1165"/>
      <point x="408" y="1177"/>
      <point x="444" y="1184"/>
      <point x="461" y="1184" type="qcurve"/>
      <point x="504" y="1184"/>
      <point x="575" y="1162"/>
      <point x="626" y="1115"/>
      <point x="655" y="1042"/>
      <point x="655" y="990" type="qcurve"/>
      <point x="655" y="934"/>
      <point x="612" y="833"/>
      <point x="538" y="756"/>
      <point x="438" y="710"/>
      <point x="382" y="710" type="qcurve"/>
      <point x="377" y="710"/>
      <point x="367" y="711"/>
      <point x="361" y="711" type="qcurve"/>
      <point x="322" y="714"/>
      <point x="263" y="742"/>
      <point x="220" y="783"/>
      <point x="191" y="837"/>
      <point x="174" y="896"/>
      <point x="167" y="956"/>
      <point x="167" y="985" type="qcurve"/>
      <point x="167" y="1049"/>
      <point x="199" y="1172"/>
      <point x="257" y="1281"/>
      <point x="340" y="1374"/>
      <point x="443" y="1441"/>
      <point x="563" y="1478"/>
      <point x="630" y="1478" type="qcurve"/>
      <point x="637" y="1478"/>
      <point x="655" y="1478"/>
      <point x="660" y="1477" type="qcurve"/>
    </contour>
    <contour>
      <point x="264" y="1018" type="qcurve"/>
      <point x="260" y="999"/>
      <point x="259" y="969"/>
      <point x="259" y="954" type="qcurve"/>
      <point x="259" y="923"/>
      <point x="274" y="869"/>
      <point x="304" y="827"/>
      <point x="348" y="800"/>
      <point x="377" y="796" type="qcurve"/>
      <point x="388" y="795"/>
      <point x="398" y="795" type="qcurve"/>
      <point x="429" y="795"/>
      <point x="486" y="823"/>
      <point x="530" y="874"/>
      <point x="555" y="944"/>
      <point x="555" y="985" type="qcurve"/>
      <point x="555" y="1015"/>
      <point x="534" y="1058"/>
      <point x="498" y="1086"/>
      <point x="451" y="1099"/>
      <point x="425" y="1099" type="qcurve"/>
      <point x="376" y="1099"/>
      <point x="294" y="1059"/>
    </contour>
  </outline>
</glyph>
<glyph name="superscripteight" format="1">
  <advance width="1300"/>
  <unicode hex="2078"/>
  <outline>
    <contour>
      <point x="499" y="1478" type="line"/>
      <point x="539" y="1477"/>
      <point x="605" y="1454"/>
      <point x="650" y="1414"/>
      <point x="675" y="1356"/>
      <point x="675" y="1319" type="qcurve"/>
      <point x="675" y="1283"/>
      <point x="653" y="1230"/>
      <point x="617" y="1189"/>
      <point x="569" y="1157"/>
      <point x="543" y="1143" type="qcurve"/>
      <point x="569" y="1131"/>
      <point x="612" y="1088"/>
      <point x="642" y="1034"/>
      <point x="658" y="975"/>
      <point x="658" y="949" type="qcurve"/>
      <point x="658" y="884"/>
      <point x="615" y="793"/>
      <point x="541" y="737"/>
      <point x="445" y="711"/>
      <point x="391" y="711" type="qcurve"/>
      <point x="344" y="711"/>
      <point x="262" y="734"/>
      <point x="200" y="781"/>
      <point x="165" y="854"/>
      <point x="165" y="904" type="qcurve"/>
      <point x="165" y="948"/>
      <point x="193" y="1023"/>
      <point x="242" y="1083"/>
      <point x="310" y="1128"/>
      <point x="349" y="1145" type="qcurve"/>
      <point x="312" y="1171"/>
      <point x="267" y="1244"/>
      <point x="267" y="1286" type="qcurve"/>
      <point x="267" y="1320"/>
      <point x="285" y="1375"/>
      <point x="316" y="1418"/>
      <point x="359" y="1449"/>
      <point x="408" y="1469"/>
      <point x="461" y="1478"/>
      <point x="488" y="1478" type="qcurve"/>
    </contour>
    <contour>
      <point x="427" y="1100" type="qcurve"/>
      <point x="393" y="1086"/>
      <point x="332" y="1054"/>
      <point x="286" y="1013"/>
      <point x="259" y="961"/>
      <point x="259" y="927" type="qcurve"/>
      <point x="259" y="892"/>
      <point x="281" y="842"/>
      <point x="319" y="808"/>
      <point x="371" y="792"/>
      <point x="401" y="792" type="qcurve"/>
      <point x="430" y="792"/>
      <point x="488" y="812"/>
      <point x="535" y="847"/>
      <point x="563" y="897"/>
      <point x="563" y="927" type="qcurve"/>
      <point x="563" y="962"/>
      <point x="541" y="1016"/>
      <point x="504" y="1056"/>
      <point x="454" y="1087"/>
    </contour>
    <contour>
      <point x="461" y="1181" type="qcurve"/>
      <point x="486" y="1192"/>
      <point x="531" y="1216"/>
      <point x="564" y="1245"/>
      <point x="583" y="1280"/>
      <point x="583" y="1301" type="qcurve"/>
      <point x="583" y="1329"/>
      <point x="565" y="1367"/>
      <point x="535" y="1391"/>
      <point x="499" y="1401"/>
      <point x="481" y="1401" type="qcurve"/>
      <point x="460" y="1401"/>
      <point x="417" y="1385"/>
      <point x="383" y="1357"/>
      <point x="361" y="1322"/>
      <point x="361" y="1303" type="qcurve"/>
      <point x="361" y="1280"/>
      <point x="376" y="1244"/>
      <point x="402" y="1216"/>
      <point x="439" y="1192"/>
    </contour>
  </outline>
</glyph>
<glyph name="superscriptplussign" format="1">
  <advance width="1300"/>
  <unicode hex="207A"/>
  <outline>
    <contour>
      <point x="211" y="1070" type="line"/>
      <point x="398" y="1070" type="line"/>
      <point x="435" y="1281" type="line"/>
      <point x="513" y="1281" type="line"/>
      <point x="475" y="1070" type="line"/>
      <point x="661" y="1070" type="line"/>
      <point x="648" y="992" type="line"/>
      <point x="462" y="992" type="line"/>
      <point x="424" y="781" type="line"/>
      <point x="347" y="781" type="line"/>
      <point x="384" y="992" type="line"/>
      <point x="198" y="992" type="line"/>
    </contour>
  </outline>
</glyph>
<glyph name="superscriptsmalln" format="1">
  <advance width="1300"/>
  <unicode hex="207F"/>
  <outline>
    <contour>
      <point x="246" y="720" type="line"/>
      <point x="151" y="720" type="line"/>
      <point x="248" y="1270" type="line"/>
      <point x="344" y="1280" type="line"/>
      <point x="327" y="1183" type="line"/>
      <point x="368" y="1242" type="line"/>
      <point x="378" y="1248"/>
      <point x="407" y="1261"/>
      <point x="447" y="1271"/>
      <point x="499" y="1278"/>
      <point x="531" y="1278" type="qcurve"/>
      <point x="600" y="1278"/>
      <point x="671" y="1206"/>
      <point x="671" y="1142" type="qcurve"/>
      <point x="671" y="1119"/>
      <point x="666" y="1095" type="qcurve"/>
      <point x="600" y="720" type="line"/>
      <point x="505" y="720" type="line"/>
      <point x="571" y="1095" type="line"/>
      <point x="572" y="1102"/>
      <point x="574" y="1115"/>
      <point x="574" y="1121" type="qcurve"/>
      <point x="574" y="1145"/>
      <point x="561" y="1176"/>
      <point x="538" y="1193"/>
      <point x="505" y="1198"/>
      <point x="485" y="1198" type="qcurve"/>
      <point x="458" y="1198"/>
      <point x="411" y="1186"/>
      <point x="370" y="1168"/>
      <point x="334" y="1146"/>
      <point x="319" y="1137" type="qcurve"/>
    </contour>
  </outline>
</glyph>
<glyph name="subscriptthree" format="1">
  <advance width="1300"/>
  <unicode hex="2083"/>
  <outline>
    <contour>
      <point x="285" y="170" type="line"/>
      <point x="307" y="250" type="line"/>
      <point x="672" y="250" type="line"/>
      <point x="659" y="180" type="line"/>
      <point x="650" y="160"/>
      <point x="614" y="116"/>
      <point x="567" y="72"/>
      <point x="514" y="29"/>
      <point x="488" y="9" type="qcurve"/>
      <point x="415" y="-26" type="line"/>
      <point x="451" y="-26" type="line"/>
      <point x="484" y="-26"/>
      <point x="550" y="-51"/>
      <point x="602" y="-97"/>
      <point x="634" y="-162"/>
      <point x="634" y="-202" type="qcurve"/>
      <point x="634" y="-258"/>
      <point x="593" y="-346"/>
      <point x="524" y="-412"/>
      <point x="431" y="-458"/>
      <point x="326" y="-487"/>
      <point x="213" y="-500"/>
      <point x="160" y="-500" type="qcurve"/>
      <point x="174" y="-420" type="line"/>
      <point x="213" y="-420"/>
      <point x="297" y="-408"/>
      <point x="376" y="-385"/>
      <point x="447" y="-353"/>
      <point x="500" y="-311"/>
      <point x="531" y="-259"/>
      <point x="531" y="-229" type="qcurve"/>
      <point x="531" y="-197"/>
      <point x="508" y="-150"/>
      <point x="466" y="-120"/>
      <point x="408" y="-105"/>
      <point x="373" y="-105" type="qcurve"/>
      <point x="350" y="-105"/>
      <point x="307" y="-106"/>
      <point x="286" y="-107" type="qcurve"/>
      <point x="300" y="-30" type="line"/>
      <point x="323" y="-15"/>
      <point x="378" y="23"/>
      <point x="435" y="64"/>
      <point x="489" y="107"/>
      <point x="535" y="145"/>
      <point x="567" y="179"/>
      <point x="573" y="190" type="qcurve"/>
      <point x="493" y="170" type="line"/>
    </contour>
  </outline>
</glyph>
<glyph name="subscriptfour" format="1">
  <advance width="1300"/>
  <unicode hex="2084"/>
  <outline>
    <contour>
      <point x="653" y="-350" type="line"/>
      <point x="563" y="-350" type="line"/>
      <point x="537" y="-500" type="line"/>
      <point x="437" y="-500" type="line"/>
      <point x="463" y="-350" type="line"/>
      <point x="166" y="-350" type="line"/>
      <point x="181" y="-265" type="line"/>
      <point x="516" y="260" type="line"/>
      <point x="608" y="250" type="line"/>
      <point x="321" y="-200" type="line"/>
      <point x="263" y="-270" type="line"/>
      <point x="478" y="-270" type="line"/>
      <point x="513" y="-67" type="line"/>
      <point x="612" y="-75" type="line"/>
      <point x="578" y="-270" type="line"/>
      <point x="675" y="-270" type="line"/>
    </contour>
  </outline>
</glyph>
<glyph name="subscripteight" format="1">
  <advance width="1300"/>
  <unicode hex="2088"/>
  <outline>
    <contour>
      <point x="499" y="258" type="line"/>
      <point x="539" y="257"/>
      <point x="605" y="234"/>
      <point x="650" y="194"/>
      <point x="675" y="136"/>
      <point x="675" y="99" type="qcurve"/>
      <point x="675" y="63"/>
      <point x="653" y="10"/>
      <point x="617" y="-31"/>
      <point x="569" y="-63"/>
      <point x="543" y="-77" type="qcurve"/>
      <point x="569" y="-89"/>
      <point x="612" y="-132"/>
      <point x="642" y="-186"/>
      <point x="658" y="-245"/>
      <point x="658" y="-271" type="qcurve"/>
      <point x="658" y="-336"/>
      <point x="615" y="-427"/>
      <point x="541" y="-483"/>
      <point x="445" y="-509"/>
      <point x="391" y="-509" type="qcurve"/>
      <point x="344" y="-509"/>
      <point x="262" y="-486"/>
      <point x="200" y="-439"/>
      <point x="165" y="-366"/>
      <point x="165" y="-316" type="qcurve"/>
      <point x="165" y="-272"/>
      <point x="193" y="-197"/>
      <point x="242" y="-137"/>
      <point x="310" y="-92"/>
      <point x="349" y="-75" type="qcurve"/>
      <point x="312" y="-49"/>
      <point x="267" y="24"/>
      <point x="267" y="66" type="qcurve"/>
      <point x="267" y="100"/>
      <point x="285" y="155"/>
      <point x="316" y="198"/>
      <point x="359" y="229"/>
      <point x="408" y="249"/>
      <point x="461" y="258"/>
      <point x="488" y="258" type="qcurve"/>
    </contour>
    <contour>
      <point x="427" y="-120" type="qcurve"/>
      <point x="393" y="-134"/>
      <point x="332" y="-166"/>
      <point x="286" y="-207"/>
      <point x="259" y="-259"/>
      <point x="259" y="-293" type="qcurve"/>
      <point x="259" y="-328"/>
      <point x="281" y="-378"/>
      <point x="319" y="-412"/>
      <point x="371" y="-428"/>
      <point x="401" y="-428" type="qcurve"/>
      <point x="430" y="-428"/>
      <point x="488" y="-408"/>
      <point x="535" y="-373"/>
      <point x="563" y="-323"/>
      <point x="563" y="-293" type="qcurve"/>
      <point x="563" y="-258"/>
      <point x="541" y="-204"/>
      <point x="504" y="-164"/>
      <point x="454" y="-133"/>
    </contour>
    <contour>
      <point x="461" y="-39" type="qcurve"/>
      <point x="486" y="-28"/>
      <point x="531" y="-4"/>
      <point x="564" y="25"/>
      <point x="583" y="60"/>
      <point x="583" y="81" type="qcurve"/>
      <point x="583" y="109"/>
      <point x="565" y="147"/>
      <point x="535" y="171"/>
      <point x="499" y="181"/>
      <point x="481" y="181" type="qcurve"/>
      <point x="460" y="181"/>
      <point x="417" y="165"/>
      <point x="383" y="137"/>
      <point x="361" y="102"/>
      <point x="361" y="83" type="qcurve"/>
      <point x="361" y="60"/>
      <point x="376" y="24"/>
      <point x="402" y="-4"/>
      <point x="439" y="-28"/>
    </contour>
  </outline>
</glyph>
<glyph name="subscriptplussign" format="1">
  <advance width="1300"/>
  <unicode hex="208A"/>
  <outline>
    <contour>
      <point x="211" y="-150" type="line"/>
      <point x="398" y="-150" type="line"/>
      <point x="435" y="61" type="line"/>
      <point x="513" y="61" type="line"/>
      <point x="475" y="-150" type="line"/>
      <point x="661" y="-150" type="line"/>
      <point x="648" y="-228" type="line"/>
      <point x="462" y="-228" type="line"/>
      <point x="424" y="-439" type="line"/>
      <point x="347" y="-439" type="line"/>
      <point x="384" y="-228" type="line"/>
      <point x="198" y="-228" type="line"/>
    </contour>
  </outline>
</glyph>
<glyph name="subscriptequals" format="1">
  <advance width="1300"/>
  <unicode hex="208C"/>
  <outline>
    <contour>
      <point x="270" y="-100" type="line"/>
      <point x="620" y="-100" type="line"/>
      <point x="606" y="-178" type="line"/>
      <point x="256" y="-178" type="line"/>
    </contour>
    <contour>
      <point x="235" y="-300" type="line"/>
      <point x="585" y="-300" type="line"/>
      <point x="571" y="-378" type="line"/>
      <point x="221" y="-378" type="line"/>
    </contour>
  </outline>
</glyph>
<glyph name="Euro" format="1">
  <advance width="1300"/>
  <unicode hex="20AC"/>
  <outline>
    <contour>
      <point x="1071" y="95" type="line"/>
      <point x="1051" y="81"/>
      <point x="979" y="43"/>
      <point x="875" y="8"/>
      <point x="737" y="-17"/>
      <point x="650" y="-17" type="qcurve" name="ab01"/>
      <point x="544" y="-17"/>
      <point x="382" y="59"/>
      <point x="268" y="195"/>
      <point x="202" y="386"/>
      <point x="192" y="500" type="qcurve"/>
      <point x="19" y="500" type="line"/>
      <point x="45" y="651" type="line" name="av02"/>
      <point x="189" y="651" type="line"/>
      <point x="190" y="708"/>
      <point x="198" y="770" type="qcurve"/>
      <point x="203" y="812"/>
      <point x="210" y="850" type="qcurve"/>
      <point x="80" y="850" type="line"/>
      <point x="107" y="1000" type="line" name="av01"/>
      <point x="247" y="1000" type="line"/>
      <point x="285" y="1118"/>
      <point x="408" y="1309"/>
      <point x="575" y="1444"/>
      <point x="784" y="1517"/>
      <point x="908" y="1517" type="qcurve" name="at01"/>
      <point x="1151" y="1517"/>
      <point x="1283" y="1385" type="qcurve"/>
      <point x="1185" y="1263" type="line"/>
      <point x="1153" y="1285"/>
      <point x="1089" y="1315"/>
      <point x="1019" y="1333"/>
      <point x="940" y="1341"/>
      <point x="894" y="1341" type="qcurve"/>
      <point x="808" y="1340"/>
      <point x="662" y="1286"/>
      <point x="546" y="1186"/>
      <point x="460" y="1043"/>
      <point x="433" y="953" type="qcurve"/>
      <point x="532" y="1000" type="line"/>
      <point x="1169" y="1000" type="line" name="sv01"/>
      <point x="1064" y="850" type="line"/>
      <point x="409" y="850" type="line"/>
      <point x="406" y="831"/>
      <point x="401" y="793"/>
      <point x="399" y="773" type="qcurve"/>
      <point x="395" y="734"/>
      <point x="390" y="655"/>
      <point x="388" y="614" type="qcurve"/>
      <point x="450" y="651" type="line"/>
      <point x="940" y="651" type="line" name="sv02"/>
      <point x="835" y="500" type="line"/>
      <point x="390" y="500" type="line"/>
      <point x="395" y="429"/>
      <point x="430" y="303"/>
      <point x="502" y="208"/>
      <point x="618" y="153"/>
      <point x="705" y="153" type="qcurve"/>
      <point x="750" y="153"/>
      <point x="832" y="165"/>
      <point x="910" y="189"/>
      <point x="988" y="224"/>
      <point x="1029" y="247" type="qcurve"/>
    </contour>
  </outline>
</glyph>
<glyph name="indianrupee" format="1">
  <advance width="1300"/>
  <unicode hex="20B9"/>
  <outline>
    <contour>
      <point x="248" y="1350" type="line" name="mh01"/>
      <point x="314" y="1500" type="line" name="mh02"/>
      <point x="1182" y="1500" type="line"/>
      <point x="1078" y="1350" type="line"/>
      <point x="868" y="1350" type="line" name="mh03"/>
      <point x="768" y="1375" type="line" name="mv01"/>
      <point x="831" y="1309" type="line"/>
      <point x="860" y="1277"/>
      <point x="871" y="1198"/>
      <point x="860" y="1151" type="qcurve" name="mv02"/>
      <point x="1121" y="1151" type="line"/>
      <point x="1016" y="1000" type="line"/>
      <point x="862" y="1000" type="line" name="mh04"/>
      <point x="765" y="1016" type="line"/>
      <point x="815" y="955" type="line" name="mh05"/>
      <point x="793" y="886"/>
      <point x="699" y="770"/>
      <point x="570" y="686"/>
      <point x="413" y="636"/>
      <point x="329" y="633" type="qcurve"/>
      <point x="464" y="593" type="line"/>
      <point x="803" y="0" type="line"/>
      <point x="580" y="0" type="line"/>
      <point x="241" y="595" type="line"/>
      <point x="233" y="609"/>
      <point x="206" y="614"/>
      <point x="198" y="614" type="qcurve"/>
      <point x="148" y="614" type="line" name="mh06"/>
      <point x="174" y="765" type="line"/>
      <point x="252" y="765" type="line"/>
      <point x="331" y="765"/>
      <point x="462" y="799"/>
      <point x="560" y="861"/>
      <point x="626" y="948"/>
      <point x="641" y="1000" type="qcurve"/>
      <point x="186" y="1000" type="line" name="mh07"/>
      <point x="252" y="1151" type="line"/>
      <point x="670" y="1151" type="line"/>
      <point x="671" y="1254"/>
      <point x="560" y="1350"/>
      <point x="440" y="1350" type="qcurve"/>
    </contour>
  </outline>
</glyph>
<glyph name="weierstrass" format="1">
  <advance width="1300"/>
  <unicode hex="2118"/>
  <outline>
    <contour>
      <point x="249" y="-358" type="curve" smooth="yes"/>
      <point x="316" y="-358"/>
      <point x="346" y="-253"/>
      <point x="346" y="-161" type="curve" smooth="yes"/>
      <point x="346" y="-64"/>
      <point x="313" y="116"/>
      <point x="282" y="200" type="curve"/>
      <point x="282" y="286" type="line"/>
      <point x="197" y="142"/>
      <point x="149" y="-71"/>
      <point x="149" y="-236" type="curve" smooth="yes"/>
      <point x="149" y="-314"/>
      <point x="182" y="-358"/>
    </contour>
    <contour>
      <point x="620" y="1031" type="line"/>
      <point x="455" y="999"/>
      <point x="271" y="899"/>
      <point x="271" y="662" type="curve" smooth="yes"/>
      <point x="271" y="634"/>
      <point x="275" y="602"/>
      <point x="282" y="570" type="curve"/>
      <point x="282" y="448" type="line"/>
      <point x="472" y="745"/>
      <point x="696" y="934"/>
      <point x="950" y="934" type="curve" smooth="yes"/>
      <point x="1197" y="934"/>
      <point x="1289" y="750"/>
      <point x="1289" y="536" type="curve" smooth="yes"/>
      <point x="1289" y="490"/>
      <point x="1285" y="444"/>
      <point x="1277" y="397" type="curve" smooth="yes"/>
      <point x="1261" y="301"/>
      <point x="1149" y="-17"/>
      <point x="834" y="-17" type="curve" smooth="yes"/>
      <point x="691" y="-17"/>
      <point x="548" y="82"/>
      <point x="548" y="251" type="curve" smooth="yes"/>
      <point x="548" y="510"/>
      <point x="750" y="600"/>
      <point x="900" y="600" type="curve"/>
      <point x="880" y="520" type="line"/>
      <point x="780" y="520"/>
      <point x="652" y="458"/>
      <point x="652" y="261" type="curve" smooth="yes"/>
      <point x="652" y="175"/>
      <point x="737" y="97"/>
      <point x="843" y="97" type="curve" smooth="yes"/>
      <point x="1000" y="97"/>
      <point x="1122" y="357"/>
      <point x="1122" y="546" type="curve" smooth="yes"/>
      <point x="1122" y="692"/>
      <point x="1036" y="800"/>
      <point x="900" y="800" type="curve" smooth="yes"/>
      <point x="647" y="800"/>
      <point x="489" y="599"/>
      <point x="346" y="395" type="curve"/>
      <point x="427" y="221"/>
      <point x="500" y="19"/>
      <point x="500" y="-154" type="curve" smooth="yes"/>
      <point x="500" y="-317"/>
      <point x="442" y="-514"/>
      <point x="224" y="-514" type="curve" smooth="yes"/>
      <point x="67" y="-514"/>
      <point x="21" y="-397"/>
      <point x="21" y="-266" type="curve" smooth="yes"/>
      <point x="21" y="-45"/>
      <point x="110" y="184"/>
      <point x="213" y="331" type="curve"/>
      <point x="172" y="421"/>
      <point x="123" y="512"/>
      <point x="123" y="637" type="curve" smooth="yes"/>
      <point x="123" y="951"/>
      <point x="400" y="1117"/>
      <point x="600" y="1117" type="curve"/>
    </contour>
  </outline>
</glyph>
<glyph name="Ohm" format="1">
  <advance width="1300"/>
  <unicode hex="2126"/>
  <outline>
    <contour>
      <point x="28" y="160" type="line"/>
      <point x="158" y="160" type="line"/>
      <point x="348" y="100" type="line"/>
      <point x="175" y="304" type="line"/>
      <point x="88" y="442"/>
      <point x="74" y="611"/>
      <point x="90" y="775" type="curve" smooth="yes"/>
      <point x="133" y="1214"/>
      <point x="326" y="1538"/>
      <point x="797" y="1517" type="curve" smooth="yes"/>
      <point x="1132" y="1502"/>
      <point x="1285" y="1226"/>
      <point x="1242" y="775" type="curve" smooth="yes"/>
      <point x="1219" y="529"/>
      <point x="1094" y="375"/>
      <point x="1030" y="300" type="curve"/>
      <point x="746" y="100" type="line"/>
      <point x="957" y="160" type="line"/>
      <point x="1128" y="160" type="line"/>
      <point x="1100" y="0" type="line"/>
      <point x="579" y="0" type="line"/>
      <point x="614" y="200" type="line"/>
      <point x="789" y="251"/>
      <point x="998" y="487"/>
      <point x="1029" y="744" type="curve" smooth="yes"/>
      <point x="1074" y="1115"/>
      <point x="985" y="1320"/>
      <point x="761" y="1327" type="curve" smooth="yes"/>
      <point x="480" y="1336"/>
      <point x="325" y="1070"/>
      <point x="304" y="810" type="curve" smooth="yes"/>
      <point x="277" y="473"/>
      <point x="337" y="318"/>
      <point x="515" y="200" type="curve"/>
      <point x="480" y="0" type="line"/>
      <point x="0" y="0" type="line"/>
    </contour>
  </outline>
</glyph>
<glyph name="twothirds" format="1">
  <advance width="1300"/>
  <unicode hex="2154"/>
  <outline>
    <contour>
      <point x="354" y="0" type="line"/>
      <point x="219" y="0" type="line"/>
      <point x="994" y="1500" type="line"/>
      <point x="1120" y="1500" type="line"/>
    </contour>
    <contour>
      <point x="35" y="720" type="line"/>
      <point x="50" y="804" type="line"/>
      <point x="84" y="853"/>
      <point x="156" y="934"/>
      <point x="228" y="1003"/>
      <point x="299" y="1062"/>
      <point x="332" y="1089" type="qcurve"/>
      <point x="362" y="1113"/>
      <point x="416" y="1160"/>
      <point x="457" y="1206"/>
      <point x="481" y="1255"/>
      <point x="481" y="1281" type="qcurve"/>
      <point x="481" y="1308"/>
      <point x="467" y="1351"/>
      <point x="436" y="1380"/>
      <point x="386" y="1396"/>
      <point x="349" y="1396" type="qcurve"/>
      <point x="325" y="1396"/>
      <point x="285" y="1379"/>
      <point x="251" y="1352"/>
      <point x="223" y="1318"/>
      <point x="213" y="1300" type="qcurve"/>
      <point x="148" y="1330" type="line"/>
      <point x="181" y="1401"/>
      <point x="299" y="1478"/>
      <point x="376" y="1478" type="qcurve"/>
      <point x="381" y="1478"/>
      <point x="390" y="1478"/>
      <point x="395" y="1478" type="qcurve"/>
      <point x="441" y="1475"/>
      <point x="507" y="1440"/>
      <point x="551" y="1386"/>
      <point x="572" y="1319"/>
      <point x="572" y="1284" type="qcurve"/>
      <point x="572" y="1281"/>
      <point x="571" y="1275"/>
      <point x="571" y="1272" type="qcurve"/>
      <point x="569" y="1232"/>
      <point x="532" y="1164"/>
      <point x="478" y="1103"/>
      <point x="414" y="1049"/>
      <point x="386" y="1023" type="qcurve"/>
      <point x="350" y="991"/>
      <point x="285" y="934"/>
      <point x="230" y="880"/>
      <point x="184" y="827"/>
      <point x="166" y="800" type="qcurve"/>
      <point x="501" y="800" type="line"/>
      <point x="487" y="720" type="line"/>
    </contour>
    <contour>
      <point x="838" y="670" type="line"/>
      <point x="860" y="750" type="line"/>
      <point x="1225" y="750" type="line"/>
      <point x="1212" y="680" type="line"/>
      <point x="1203" y="660"/>
      <point x="1167" y="616"/>
      <point x="1120" y="572"/>
      <point x="1067" y="529"/>
      <point x="1041" y="509" type="qcurve"/>
      <point x="968" y="474" type="line"/>
      <point x="1004" y="474" type="line"/>
      <point x="1037" y="474"/>
      <point x="1103" y="449"/>
      <point x="1155" y="403"/>
      <point x="1187" y="338"/>
      <point x="1187" y="298" type="qcurve"/>
      <point x="1187" y="242"/>
      <point x="1146" y="154"/>
      <point x="1077" y="88"/>
      <point x="984" y="42"/>
      <point x="879" y="13"/>
      <point x="766" y="0"/>
      <point x="713" y="0" type="qcurve"/>
      <point x="727" y="80" type="line"/>
      <point x="766" y="80"/>
      <point x="850" y="92"/>
      <point x="929" y="115"/>
      <point x="1000" y="147"/>
      <point x="1053" y="189"/>
      <point x="1084" y="241"/>
      <point x="1084" y="271" type="qcurve"/>
      <point x="1084" y="303"/>
      <point x="1061" y="350"/>
      <point x="1019" y="380"/>
      <point x="961" y="395"/>
      <point x="926" y="395" type="qcurve"/>
      <point x="903" y="395"/>
      <point x="860" y="394"/>
      <point x="839" y="393" type="qcurve"/>
      <point x="853" y="470" type="line"/>
      <point x="876" y="485"/>
      <point x="931" y="523"/>
      <point x="988" y="564"/>
      <point x="1042" y="607"/>
      <point x="1088" y="645"/>
      <point x="1120" y="679"/>
      <point x="1126" y="690" type="qcurve"/>
      <point x="1046" y="670" type="line"/>
    </contour>
  </outline>
</glyph>
<glyph name="onefifth" format="1">
  <advance width="1300"/>
  <unicode hex="2155"/>
  <outline>
    <contour>
      <point x="354" y="0" type="line"/>
      <point x="219" y="0" type="line"/>
      <point x="994" y="1500" type="line"/>
      <point x="1120" y="1500" type="line"/>
    </contour>
    <contour>
      <point x="46" y="720" type="line"/>
      <point x="60" y="800" type="line"/>
      <point x="182" y="800" type="line"/>
      <point x="267" y="1283" type="line"/>
      <point x="316" y="1396" type="line"/>
      <point x="232" y="1303" type="line"/>
      <point x="109" y="1209" type="line"/>
      <point x="66" y="1270" type="line"/>
      <point x="332" y="1480" type="line"/>
      <point x="400" y="1470" type="line"/>
      <point x="282" y="800" type="line"/>
      <point x="405" y="800" type="line"/>
      <point x="391" y="720" type="line"/>
    </contour>
    <contour>
      <point x="916" y="491" type="line"/>
      <point x="920" y="493"/>
      <point x="938" y="502"/>
      <point x="962" y="511"/>
      <point x="989" y="517"/>
      <point x="1003" y="517" type="qcurve"/>
      <point x="1054" y="517"/>
      <point x="1129" y="488"/>
      <point x="1177" y="437"/>
      <point x="1200" y="368"/>
      <point x="1200" y="327" type="qcurve"/>
      <point x="1200" y="269"/>
      <point x="1162" y="176"/>
      <point x="1097" y="103"/>
      <point x="1007" y="50"/>
      <point x="903" y="16"/>
      <point x="788" y="0"/>
      <point x="730" y="0" type="qcurve"/>
      <point x="744" y="80" type="line"/>
      <point x="792" y="80"/>
      <point x="882" y="95"/>
      <point x="961" y="123"/>
      <point x="1027" y="163"/>
      <point x="1074" y="214"/>
      <point x="1100" y="275"/>
      <point x="1100" y="309" type="qcurve"/>
      <point x="1100" y="334"/>
      <point x="1083" y="378"/>
      <point x="1051" y="412"/>
      <point x="1006" y="433"/>
      <point x="979" y="433" type="qcurve"/>
      <point x="938" y="433"/>
      <point x="881" y="416"/>
      <point x="858" y="400" type="qcurve"/>
      <point x="801" y="400" type="line"/>
      <point x="862" y="750" type="line"/>
      <point x="1234" y="750" type="line"/>
      <point x="1220" y="670" type="line"/>
      <point x="947" y="670" type="line"/>
    </contour>
  </outline>
</glyph>
<glyph name="fourfifths" format="1">
  <advance width="1300"/>
  <unicode hex="2158"/>
  <outline>
    <contour>
      <point x="354" y="0" type="line"/>
      <point x="219" y="0" type="line"/>
      <point x="994" y="1500" type="line"/>
      <point x="1120" y="1500" type="line"/>
    </contour>
    <contour>
      <point x="916" y="491" type="line"/>
      <point x="920" y="493"/>
      <point x="938" y="502"/>
      <point x="962" y="511"/>
      <point x="989" y="517"/>
      <point x="1003" y="517" type="qcurve"/>
      <point x="1054" y="517"/>
      <point x="1129" y="488"/>
      <point x="1177" y="437"/>
      <point x="1200" y="368"/>
      <point x="1200" y="327" type="qcurve"/>
      <point x="1200" y="269"/>
      <point x="1162" y="176"/>
      <point x="1097" y="103"/>
      <point x="1007" y="50"/>
      <point x="903" y="16"/>
      <point x="788" y="0"/>
      <point x="730" y="0" type="qcurve"/>
      <point x="744" y="80" type="line"/>
      <point x="792" y="80"/>
      <point x="882" y="95"/>
      <point x="961" y="123"/>
      <point x="1027" y="163"/>
      <point x="1074" y="214"/>
      <point x="1100" y="275"/>
      <point x="1100" y="309" type="qcurve"/>
      <point x="1100" y="334"/>
      <point x="1083" y="378"/>
      <point x="1051" y="412"/>
      <point x="1006" y="433"/>
      <point x="979" y="433" type="qcurve"/>
      <point x="938" y="433"/>
      <point x="881" y="416"/>
      <point x="858" y="400" type="qcurve"/>
      <point x="801" y="400" type="line"/>
      <point x="862" y="750" type="line"/>
      <point x="1234" y="750" type="line"/>
      <point x="1220" y="670" type="line"/>
      <point x="947" y="670" type="line"/>
    </contour>
    <contour>
      <point x="553" y="870" type="line"/>
      <point x="463" y="870" type="line"/>
      <point x="437" y="720" type="line"/>
      <point x="337" y="720" type="line"/>
      <point x="363" y="870" type="line"/>
      <point x="66" y="870" type="line"/>
      <point x="81" y="955" type="line"/>
      <point x="416" y="1480" type="line"/>
      <point x="508" y="1470" type="line"/>
      <point x="221" y="1020" type="line"/>
      <point x="163" y="950" type="line"/>
      <point x="378" y="950" type="line"/>
      <point x="413" y="1153" type="line"/>
      <point x="512" y="1145" type="line"/>
      <point x="478" y="950" type="line"/>
      <point x="575" y="950" type="line"/>
    </contour>
  </outline>
</glyph>
<glyph name="fivesixths" format="1">
  <advance width="1300"/>
  <unicode hex="215A"/>
  <outline>
    <contour>
      <point x="354" y="0" type="line"/>
      <point x="219" y="0" type="line"/>
      <point x="994" y="1500" type="line"/>
      <point x="1120" y="1500" type="line"/>
    </contour>
    <contour>
      <point x="1185" y="672" type="line"/>
      <point x="1182" y="673"/>
      <point x="1169" y="673"/>
      <point x="1163" y="673" type="qcurve"/>
      <point x="1119" y="673"/>
      <point x="1042" y="651"/>
      <point x="975" y="610"/>
      <point x="918" y="553"/>
      <point x="873" y="484"/>
      <point x="838" y="406"/>
      <point x="827" y="365" type="qcurve"/>
      <point x="879" y="423" type="line"/>
      <point x="892" y="431"/>
      <point x="925" y="445"/>
      <point x="961" y="457"/>
      <point x="997" y="464"/>
      <point x="1014" y="464" type="qcurve"/>
      <point x="1057" y="464"/>
      <point x="1128" y="442"/>
      <point x="1179" y="395"/>
      <point x="1208" y="322"/>
      <point x="1208" y="270" type="qcurve"/>
      <point x="1208" y="214"/>
      <point x="1165" y="113"/>
      <point x="1091" y="36"/>
      <point x="991" y="-10"/>
      <point x="935" y="-10" type="qcurve"/>
      <point x="930" y="-10"/>
      <point x="920" y="-9"/>
      <point x="914" y="-9" type="qcurve"/>
      <point x="875" y="-6"/>
      <point x="816" y="22"/>
      <point x="773" y="63"/>
      <point x="744" y="117"/>
      <point x="727" y="176"/>
      <point x="720" y="236"/>
      <point x="720" y="265" type="qcurve"/>
      <point x="720" y="329"/>
      <point x="752" y="452"/>
      <point x="810" y="561"/>
      <point x="893" y="654"/>
      <point x="996" y="721"/>
      <point x="1116" y="758"/>
      <point x="1183" y="758" type="qcurve"/>
      <point x="1190" y="758"/>
      <point x="1208" y="758"/>
      <point x="1213" y="757" type="qcurve"/>
    </contour>
    <contour>
      <point x="817" y="298" type="qcurve"/>
      <point x="813" y="279"/>
      <point x="812" y="249"/>
      <point x="812" y="234" type="qcurve"/>
      <point x="812" y="203"/>
      <point x="827" y="149"/>
      <point x="857" y="107"/>
      <point x="901" y="80"/>
      <point x="930" y="76" type="qcurve"/>
      <point x="941" y="75"/>
      <point x="951" y="75" type="qcurve"/>
      <point x="982" y="75"/>
      <point x="1039" y="103"/>
      <point x="1083" y="154"/>
      <point x="1108" y="224"/>
      <point x="1108" y="265" type="qcurve"/>
      <point x="1108" y="295"/>
      <point x="1087" y="338"/>
      <point x="1051" y="366"/>
      <point x="1004" y="379"/>
      <point x="978" y="379" type="qcurve"/>
      <point x="929" y="379"/>
      <point x="847" y="339"/>
    </contour>
    <contour>
      <point x="228" y="1211" type="line"/>
      <point x="232" y="1213"/>
      <point x="250" y="1222"/>
      <point x="274" y="1231"/>
      <point x="301" y="1237"/>
      <point x="315" y="1237" type="qcurve"/>
      <point x="366" y="1237"/>
      <point x="441" y="1208"/>
      <point x="489" y="1157"/>
      <point x="512" y="1088"/>
      <point x="512" y="1047" type="qcurve"/>
      <point x="512" y="989"/>
      <point x="474" y="896"/>
      <point x="409" y="823"/>
      <point x="319" y="770"/>
      <point x="215" y="736"/>
      <point x="100" y="720"/>
      <point x="42" y="720" type="qcurve"/>
      <point x="56" y="800" type="line"/>
      <point x="104" y="800"/>
      <point x="194" y="815"/>
      <point x="273" y="843"/>
      <point x="339" y="883"/>
      <point x="386" y="934"/>
      <point x="412" y="995"/>
      <point x="412" y="1029" type="qcurve"/>
      <point x="412" y="1054"/>
      <point x="395" y="1098"/>
      <point x="363" y="1132"/>
      <point x="318" y="1153"/>
      <point x="291" y="1153" type="qcurve"/>
      <point x="250" y="1153"/>
      <point x="193" y="1136"/>
      <point x="170" y="1120" type="qcurve"/>
      <point x="113" y="1120" type="line"/>
      <point x="174" y="1470" type="line"/>
      <point x="546" y="1470" type="line"/>
      <point x="532" y="1390" type="line"/>
      <point x="259" y="1390" type="line"/>
    </contour>
  </outline>
</glyph>
